M48
; DRILL file {KiCad (5.1.4)-1} date 12/01/2020 7:46:35 PM
; FORMAT={-:-/ absolute / inch / decimal}
; #@! TF.CreationDate,2020-01-12T19:46:35+08:00
; #@! TF.GenerationSoftware,Kicad,Pcbnew,(5.1.4)-1
; #@! TF.FileFunction,Plated,1,2,PTH
FMAT,2
INCH
T1C0.0157
T2C0.0197
T3C0.0236
T4C0.0315
T5C0.0335
T6C0.0400
T7C0.0598
T8C0.0870
T9C0.1693
%
G90
G05
T1
X1.0039Y-0.0197
X1.2402Y-2.1063
X1.5551Y-1.8701
X1.5748Y-0.6693
X1.5748Y-1.1417
X1.5748Y-1.4567
X1.7224Y-1.6043
X1.8504Y-2.0079
X2.2165Y-1.3031
X2.5472Y-0.9252
X2.5591Y-1.9685
X2.8543Y-2.3031
X2.9921Y-1.9488
X3.0709Y-2.3031
X3.2087Y-1.8307
X3.2677Y-2.3031
X3.3268Y-2.1457
X3.4843Y-1.6732
T2
X3.4252Y-0.748
X3.4252Y-0.8268
X3.4252Y-0.9055
X3.4252Y-0.9843
X3.4252Y-1.063
X3.5039Y-0.748
X3.5039Y-0.8268
X3.5039Y-0.9843
X3.5039Y-1.063
X3.5335Y-1.1417
X3.5827Y-0.748
X3.5827Y-0.8268
X3.5827Y-0.9055
X3.5827Y-0.9843
X3.5827Y-1.063
X3.622Y-1.1417
X3.6614Y-0.748
X3.6614Y-0.8268
X3.6614Y-0.9055
X3.6614Y-0.9843
X3.6614Y-1.063
T3
X3.4163Y-1.378
X3.4535Y-1.2882
X3.4535Y-1.4677
X3.5433Y-1.251
X3.5433Y-1.5049
X3.6331Y-1.2882
X3.6331Y-1.4677
X3.6703Y-1.378
T4
X2.4409Y-0.0984
X2.6378Y-0.0984
X2.8315Y-1.437
X2.8315Y-1.737
X2.9315Y-1.437
X2.9315Y-1.737
X3.0315Y-1.437
X3.0315Y-1.737
X1.6929Y-0.4724
X1.8898Y-0.4724
X2.874Y-0.0984
X3.0709Y-0.0984
X2.8937Y-0.4724
X3.0906Y-0.4724
T5
X1.7244Y-0.1575
X1.8244Y-0.1575
X1.9244Y-0.1575
X2.1244Y-0.1575
X2.2244Y-0.1575
T6
X3.5024Y-1.9654
X3.5024Y-2.0654
X3.5024Y-2.1654
X3.6024Y-1.9654
X3.6024Y-2.0654
X3.6024Y-2.1654
T7
X0.289Y-0.0197
X0.489Y-0.0197
X0.689Y-0.0197
X0.2988Y-2.2933
X0.4988Y-2.2933
X0.6988Y-2.2933
X3.563Y-0.1118
X3.563Y-0.3118
X3.563Y-0.5118
T9
X3.5433Y-1.378
T8
G00X0.3049Y-0.4666
M15
G01X0.3049Y-0.478
M16
G05
G00X0.3049Y-0.8606
M15
G01X0.3049Y-0.872
M16
G05
G00X0.4916Y-0.4723
M15
G01X0.4802Y-0.4723
M16
G05
G00X0.4859Y-0.8606
M15
G01X0.4859Y-0.872
M16
G05
G00X0.7229Y-0.4666
M15
G01X0.7229Y-0.478
M16
G05
G00X0.7229Y-0.8606
M15
G01X0.7229Y-0.872
M16
G05
G00X1.0096Y-0.3893
M15
G01X0.9982Y-0.3893
M16
G05
G00X1.0096Y-0.9493
M15
G01X0.9982Y-0.9493
M16
G05
G00X0.3111Y-1.451
M15
G01X0.3111Y-1.4624
M16
G05
G00X0.3111Y-1.845
M15
G01X0.3111Y-1.8564
M16
G05
G00X0.4978Y-1.4567
M15
G01X0.4864Y-1.4567
M16
G05
G00X0.4921Y-1.845
M15
G01X0.4921Y-1.8564
M16
G05
G00X0.7291Y-1.451
M15
G01X0.7291Y-1.4624
M16
G05
G00X0.7291Y-1.845
M15
G01X0.7291Y-1.8564
M16
G05
G00X1.0158Y-1.3737
M15
G01X1.0044Y-1.3737
M16
G05
G00X1.0158Y-1.9337
M15
G01X1.0044Y-1.9337
M16
G05
T0
M30
