G04 #@! TF.GenerationSoftware,KiCad,Pcbnew,(5.1.4)-1*
G04 #@! TF.CreationDate,2020-01-12T19:46:33+08:00*
G04 #@! TF.ProjectId,i2c x2 relays socketed,69326320-7832-4207-9265-6c6179732073,rev?*
G04 #@! TF.SameCoordinates,Original*
G04 #@! TF.FileFunction,Copper,L2,Bot*
G04 #@! TF.FilePolarity,Positive*
%FSLAX46Y46*%
G04 Gerber Fmt 4.6, Leading zero omitted, Abs format (unit mm)*
G04 Created by KiCad (PCBNEW (5.1.4)-1) date 2020-01-12 19:46:33*
%MOMM*%
%LPD*%
G04 APERTURE LIST*
%ADD10O,3.225800X6.451600*%
%ADD11C,1.850000*%
%ADD12R,1.850000X1.850000*%
%ADD13C,1.600000*%
%ADD14R,1.600000X1.600000*%
%ADD15O,1.600000X1.600000*%
%ADD16C,3.000000*%
%ADD17R,3.000000X3.000000*%
%ADD18O,1.727200X1.727200*%
%ADD19R,1.727200X1.727200*%
%ADD20C,0.900000*%
%ADD21C,8.600000*%
%ADD22C,1.000000*%
%ADD23C,0.800000*%
%ADD24C,0.250000*%
%ADD25C,1.500000*%
%ADD26C,2.000000*%
%ADD27C,0.500000*%
%ADD28C,3.000000*%
%ADD29C,0.254000*%
G04 APERTURE END LIST*
D10*
X25657200Y-34891800D03*
X25657200Y-49115800D03*
X18519800Y-37000000D03*
X18519800Y-47007600D03*
X12500000Y-37000000D03*
X12500000Y-47007600D03*
X7902600Y-37000000D03*
X7902600Y-47007600D03*
X25500000Y-9888000D03*
X25500000Y-24112000D03*
X18362600Y-11996200D03*
X18362600Y-22003800D03*
X12342800Y-11996200D03*
X12342800Y-22003800D03*
X7745400Y-11996200D03*
X7745400Y-22003800D03*
D11*
X43800000Y-4000000D03*
X46340000Y-4000000D03*
X48880000Y-4000000D03*
X53960000Y-4000000D03*
D12*
X56500000Y-4000000D03*
D13*
X73500000Y-12000000D03*
D14*
X78500000Y-12000000D03*
D15*
X77000000Y-44120000D03*
X71920000Y-36500000D03*
X74460000Y-44120000D03*
X74460000Y-36500000D03*
X71920000Y-44120000D03*
D14*
X77000000Y-36500000D03*
D16*
X90500000Y-2840000D03*
X90500000Y-7920000D03*
D17*
X90500000Y-13000000D03*
D16*
X7340000Y-500000D03*
X12420000Y-500000D03*
D17*
X17500000Y-500000D03*
D16*
X7590000Y-58250000D03*
X12670000Y-58250000D03*
D17*
X17750000Y-58250000D03*
D18*
X88960000Y-49920000D03*
X91500000Y-49920000D03*
X88960000Y-52460000D03*
X91500000Y-52460000D03*
X88960000Y-55000000D03*
D19*
X91500000Y-55000000D03*
D20*
X92280419Y-32719581D03*
X90000000Y-31775000D03*
X87719581Y-32719581D03*
X86775000Y-35000000D03*
X87719581Y-37280419D03*
X90000000Y-38225000D03*
X92280419Y-37280419D03*
X93225000Y-35000000D03*
D21*
X90000000Y-35000000D03*
D13*
X48000000Y-12000000D03*
D14*
X43000000Y-12000000D03*
D13*
X62000000Y-2500000D03*
D14*
X67000000Y-2500000D03*
D13*
X73000000Y-2500000D03*
D14*
X78000000Y-2500000D03*
D22*
X89750000Y-29000000D03*
X92000000Y-29000000D03*
X91000000Y-25000000D03*
X89000000Y-25000000D03*
X91000000Y-23000000D03*
X91000000Y-21000000D03*
X89000000Y-21000000D03*
X87000000Y-19000000D03*
X87000000Y-21000000D03*
X87000000Y-23000000D03*
X87000000Y-25000000D03*
X87000000Y-27000000D03*
X89000000Y-27000000D03*
X91000000Y-27000000D03*
X93000000Y-27000000D03*
X93000000Y-25000000D03*
X93000000Y-23000000D03*
X93000000Y-21000000D03*
X93000000Y-19000000D03*
X91000000Y-19000000D03*
X89000000Y-19000000D03*
D23*
X83000000Y-58500000D03*
X78000000Y-58500000D03*
X72500000Y-58500000D03*
X65000000Y-50000000D03*
X56300000Y-33100000D03*
X88500000Y-42500000D03*
X84500000Y-54500000D03*
X76000000Y-49500000D03*
X81500000Y-46500000D03*
X64700000Y-23500000D03*
X47000000Y-51000000D03*
X40000000Y-29000000D03*
X40000000Y-17000000D03*
X39500000Y-47500000D03*
X43750000Y-40750000D03*
X40000000Y-37000000D03*
X31500000Y-53500000D03*
X25500000Y-500000D03*
D24*
X87728601Y-51271399D02*
X84500000Y-54500000D01*
X91500000Y-52460000D02*
X90311399Y-51271399D01*
X90311399Y-51271399D02*
X87728601Y-51271399D01*
X81500000Y-46500000D02*
X78500000Y-49500000D01*
X78500000Y-49500000D02*
X76000000Y-49500000D01*
D25*
X76200000Y-12000000D02*
X64700000Y-23500000D01*
X78500000Y-12000000D02*
X76200000Y-12000000D01*
X90500000Y-7920000D02*
X96024990Y-13444990D01*
X96024990Y-45395010D02*
X91500000Y-49920000D01*
X96024990Y-13444990D02*
X96024990Y-45395010D01*
D26*
X43750000Y-40750000D02*
X40000000Y-37000000D01*
X31500000Y-52934315D02*
X31500000Y-53500000D01*
X31500000Y-37121700D02*
X31500000Y-52934315D01*
X29270100Y-34891800D02*
X31500000Y-37121700D01*
X25657200Y-34891800D02*
X29270100Y-34891800D01*
D27*
X27612900Y-24112000D02*
X29500000Y-22224900D01*
X25500000Y-24112000D02*
X27612900Y-24112000D01*
X29500000Y-22224900D02*
X29500000Y-3500000D01*
X29500000Y-3500000D02*
X26500000Y-500000D01*
X26500000Y-500000D02*
X25500000Y-500000D01*
D28*
X17750000Y-47777400D02*
X18519800Y-47007600D01*
X17750000Y-58250000D02*
X17750000Y-47777400D01*
X7590000Y-47320200D02*
X7902600Y-47007600D01*
X7590000Y-58250000D02*
X7590000Y-47320200D01*
X12670000Y-47177600D02*
X12500000Y-47007600D01*
X12670000Y-58250000D02*
X12670000Y-47177600D01*
X7340000Y-11590800D02*
X7745400Y-11996200D01*
X7340000Y-500000D02*
X7340000Y-11590800D01*
X17500000Y-11133600D02*
X18362600Y-11996200D01*
X17500000Y-500000D02*
X17500000Y-11133600D01*
X12420000Y-11919000D02*
X12342800Y-11996200D01*
X12420000Y-500000D02*
X12420000Y-11919000D01*
D29*
G36*
X50431824Y-3832605D02*
G01*
X50403292Y-3630152D01*
X50301868Y-3340079D01*
X50218653Y-3184393D01*
X49961917Y-3097688D01*
X49059605Y-4000000D01*
X49961917Y-4902312D01*
X50218653Y-4815607D01*
X50352048Y-4538777D01*
X50428873Y-4241243D01*
X50431006Y-4203415D01*
X50308279Y-59840000D01*
X34987280Y-59840000D01*
X35037662Y-37000000D01*
X38357089Y-37000000D01*
X38388658Y-37320516D01*
X38482148Y-37628714D01*
X38633970Y-37912752D01*
X38787085Y-38099323D01*
X42650676Y-41962915D01*
X42837247Y-42116030D01*
X43121285Y-42267852D01*
X43429483Y-42361343D01*
X43750000Y-42392911D01*
X44070516Y-42361343D01*
X44378714Y-42267852D01*
X44662752Y-42116030D01*
X44911713Y-41911713D01*
X45116030Y-41662752D01*
X45267852Y-41378714D01*
X45361343Y-41070516D01*
X45392911Y-40750000D01*
X45361343Y-40429483D01*
X45267852Y-40121285D01*
X45116030Y-39837247D01*
X44962915Y-39650676D01*
X41099323Y-35787085D01*
X40912752Y-35633970D01*
X40628714Y-35482148D01*
X40320516Y-35388658D01*
X40000000Y-35357089D01*
X39679484Y-35388658D01*
X39371286Y-35482148D01*
X39087248Y-35633970D01*
X38838287Y-35838287D01*
X38633970Y-36087248D01*
X38482148Y-36371286D01*
X38388658Y-36679484D01*
X38357089Y-37000000D01*
X35037662Y-37000000D01*
X35094573Y-11200000D01*
X41561928Y-11200000D01*
X41561928Y-12800000D01*
X41574188Y-12924482D01*
X41610498Y-13044180D01*
X41669463Y-13154494D01*
X41748815Y-13251185D01*
X41845506Y-13330537D01*
X41955820Y-13389502D01*
X42075518Y-13425812D01*
X42200000Y-13438072D01*
X43800000Y-13438072D01*
X43924482Y-13425812D01*
X44044180Y-13389502D01*
X44154494Y-13330537D01*
X44251185Y-13251185D01*
X44330537Y-13154494D01*
X44389502Y-13044180D01*
X44405117Y-12992702D01*
X47186903Y-12992702D01*
X47258486Y-13236671D01*
X47513996Y-13357571D01*
X47788184Y-13426300D01*
X48070512Y-13440217D01*
X48350130Y-13398787D01*
X48616292Y-13303603D01*
X48741514Y-13236671D01*
X48813097Y-12992702D01*
X48000000Y-12179605D01*
X47186903Y-12992702D01*
X44405117Y-12992702D01*
X44425812Y-12924482D01*
X44438072Y-12800000D01*
X44438072Y-12070512D01*
X46559783Y-12070512D01*
X46601213Y-12350130D01*
X46696397Y-12616292D01*
X46763329Y-12741514D01*
X47007298Y-12813097D01*
X47820395Y-12000000D01*
X48179605Y-12000000D01*
X48992702Y-12813097D01*
X49236671Y-12741514D01*
X49357571Y-12486004D01*
X49426300Y-12211816D01*
X49440217Y-11929488D01*
X49398787Y-11649870D01*
X49303603Y-11383708D01*
X49236671Y-11258486D01*
X48992702Y-11186903D01*
X48179605Y-12000000D01*
X47820395Y-12000000D01*
X47007298Y-11186903D01*
X46763329Y-11258486D01*
X46642429Y-11513996D01*
X46573700Y-11788184D01*
X46559783Y-12070512D01*
X44438072Y-12070512D01*
X44438072Y-11200000D01*
X44425812Y-11075518D01*
X44405118Y-11007298D01*
X47186903Y-11007298D01*
X48000000Y-11820395D01*
X48813097Y-11007298D01*
X48741514Y-10763329D01*
X48486004Y-10642429D01*
X48211816Y-10573700D01*
X47929488Y-10559783D01*
X47649870Y-10601213D01*
X47383708Y-10696397D01*
X47258486Y-10763329D01*
X47186903Y-11007298D01*
X44405118Y-11007298D01*
X44389502Y-10955820D01*
X44330537Y-10845506D01*
X44251185Y-10748815D01*
X44154494Y-10669463D01*
X44044180Y-10610498D01*
X43924482Y-10574188D01*
X43800000Y-10561928D01*
X42200000Y-10561928D01*
X42075518Y-10574188D01*
X41955820Y-10610498D01*
X41845506Y-10669463D01*
X41748815Y-10748815D01*
X41669463Y-10845506D01*
X41610498Y-10955820D01*
X41574188Y-11075518D01*
X41561928Y-11200000D01*
X35094573Y-11200000D01*
X35110794Y-3846353D01*
X42240000Y-3846353D01*
X42240000Y-4153647D01*
X42299950Y-4455035D01*
X42417546Y-4738937D01*
X42588269Y-4994442D01*
X42805558Y-5211731D01*
X43061063Y-5382454D01*
X43344965Y-5500050D01*
X43646353Y-5560000D01*
X43953647Y-5560000D01*
X44255035Y-5500050D01*
X44538937Y-5382454D01*
X44794442Y-5211731D01*
X45011731Y-4994442D01*
X45070000Y-4907236D01*
X45128269Y-4994442D01*
X45345558Y-5211731D01*
X45601063Y-5382454D01*
X45884965Y-5500050D01*
X46186353Y-5560000D01*
X46493647Y-5560000D01*
X46795035Y-5500050D01*
X47078937Y-5382454D01*
X47334442Y-5211731D01*
X47464256Y-5081917D01*
X47977688Y-5081917D01*
X48064393Y-5338653D01*
X48341223Y-5472048D01*
X48638757Y-5548873D01*
X48945562Y-5566176D01*
X49249848Y-5523292D01*
X49539921Y-5421868D01*
X49695607Y-5338653D01*
X49782312Y-5081917D01*
X48880000Y-4179605D01*
X47977688Y-5081917D01*
X47464256Y-5081917D01*
X47551731Y-4994442D01*
X47647313Y-4851394D01*
X47798083Y-4902312D01*
X48700395Y-4000000D01*
X47798083Y-3097688D01*
X47647313Y-3148606D01*
X47551731Y-3005558D01*
X47464256Y-2918083D01*
X47977688Y-2918083D01*
X48880000Y-3820395D01*
X49782312Y-2918083D01*
X49695607Y-2661347D01*
X49418777Y-2527952D01*
X49121243Y-2451127D01*
X48814438Y-2433824D01*
X48510152Y-2476708D01*
X48220079Y-2578132D01*
X48064393Y-2661347D01*
X47977688Y-2918083D01*
X47464256Y-2918083D01*
X47334442Y-2788269D01*
X47078937Y-2617546D01*
X46795035Y-2499950D01*
X46493647Y-2440000D01*
X46186353Y-2440000D01*
X45884965Y-2499950D01*
X45601063Y-2617546D01*
X45345558Y-2788269D01*
X45128269Y-3005558D01*
X45070000Y-3092764D01*
X45011731Y-3005558D01*
X44794442Y-2788269D01*
X44538937Y-2617546D01*
X44255035Y-2499950D01*
X43953647Y-2440000D01*
X43646353Y-2440000D01*
X43344965Y-2499950D01*
X43061063Y-2617546D01*
X42805558Y-2788269D01*
X42588269Y-3005558D01*
X42417546Y-3261063D01*
X42299950Y-3544965D01*
X42240000Y-3846353D01*
X35110794Y-3846353D01*
X35122235Y1340000D01*
X50443234Y1340000D01*
X50431824Y-3832605D01*
X50431824Y-3832605D01*
G37*
X50431824Y-3832605D02*
X50403292Y-3630152D01*
X50301868Y-3340079D01*
X50218653Y-3184393D01*
X49961917Y-3097688D01*
X49059605Y-4000000D01*
X49961917Y-4902312D01*
X50218653Y-4815607D01*
X50352048Y-4538777D01*
X50428873Y-4241243D01*
X50431006Y-4203415D01*
X50308279Y-59840000D01*
X34987280Y-59840000D01*
X35037662Y-37000000D01*
X38357089Y-37000000D01*
X38388658Y-37320516D01*
X38482148Y-37628714D01*
X38633970Y-37912752D01*
X38787085Y-38099323D01*
X42650676Y-41962915D01*
X42837247Y-42116030D01*
X43121285Y-42267852D01*
X43429483Y-42361343D01*
X43750000Y-42392911D01*
X44070516Y-42361343D01*
X44378714Y-42267852D01*
X44662752Y-42116030D01*
X44911713Y-41911713D01*
X45116030Y-41662752D01*
X45267852Y-41378714D01*
X45361343Y-41070516D01*
X45392911Y-40750000D01*
X45361343Y-40429483D01*
X45267852Y-40121285D01*
X45116030Y-39837247D01*
X44962915Y-39650676D01*
X41099323Y-35787085D01*
X40912752Y-35633970D01*
X40628714Y-35482148D01*
X40320516Y-35388658D01*
X40000000Y-35357089D01*
X39679484Y-35388658D01*
X39371286Y-35482148D01*
X39087248Y-35633970D01*
X38838287Y-35838287D01*
X38633970Y-36087248D01*
X38482148Y-36371286D01*
X38388658Y-36679484D01*
X38357089Y-37000000D01*
X35037662Y-37000000D01*
X35094573Y-11200000D01*
X41561928Y-11200000D01*
X41561928Y-12800000D01*
X41574188Y-12924482D01*
X41610498Y-13044180D01*
X41669463Y-13154494D01*
X41748815Y-13251185D01*
X41845506Y-13330537D01*
X41955820Y-13389502D01*
X42075518Y-13425812D01*
X42200000Y-13438072D01*
X43800000Y-13438072D01*
X43924482Y-13425812D01*
X44044180Y-13389502D01*
X44154494Y-13330537D01*
X44251185Y-13251185D01*
X44330537Y-13154494D01*
X44389502Y-13044180D01*
X44405117Y-12992702D01*
X47186903Y-12992702D01*
X47258486Y-13236671D01*
X47513996Y-13357571D01*
X47788184Y-13426300D01*
X48070512Y-13440217D01*
X48350130Y-13398787D01*
X48616292Y-13303603D01*
X48741514Y-13236671D01*
X48813097Y-12992702D01*
X48000000Y-12179605D01*
X47186903Y-12992702D01*
X44405117Y-12992702D01*
X44425812Y-12924482D01*
X44438072Y-12800000D01*
X44438072Y-12070512D01*
X46559783Y-12070512D01*
X46601213Y-12350130D01*
X46696397Y-12616292D01*
X46763329Y-12741514D01*
X47007298Y-12813097D01*
X47820395Y-12000000D01*
X48179605Y-12000000D01*
X48992702Y-12813097D01*
X49236671Y-12741514D01*
X49357571Y-12486004D01*
X49426300Y-12211816D01*
X49440217Y-11929488D01*
X49398787Y-11649870D01*
X49303603Y-11383708D01*
X49236671Y-11258486D01*
X48992702Y-11186903D01*
X48179605Y-12000000D01*
X47820395Y-12000000D01*
X47007298Y-11186903D01*
X46763329Y-11258486D01*
X46642429Y-11513996D01*
X46573700Y-11788184D01*
X46559783Y-12070512D01*
X44438072Y-12070512D01*
X44438072Y-11200000D01*
X44425812Y-11075518D01*
X44405118Y-11007298D01*
X47186903Y-11007298D01*
X48000000Y-11820395D01*
X48813097Y-11007298D01*
X48741514Y-10763329D01*
X48486004Y-10642429D01*
X48211816Y-10573700D01*
X47929488Y-10559783D01*
X47649870Y-10601213D01*
X47383708Y-10696397D01*
X47258486Y-10763329D01*
X47186903Y-11007298D01*
X44405118Y-11007298D01*
X44389502Y-10955820D01*
X44330537Y-10845506D01*
X44251185Y-10748815D01*
X44154494Y-10669463D01*
X44044180Y-10610498D01*
X43924482Y-10574188D01*
X43800000Y-10561928D01*
X42200000Y-10561928D01*
X42075518Y-10574188D01*
X41955820Y-10610498D01*
X41845506Y-10669463D01*
X41748815Y-10748815D01*
X41669463Y-10845506D01*
X41610498Y-10955820D01*
X41574188Y-11075518D01*
X41561928Y-11200000D01*
X35094573Y-11200000D01*
X35110794Y-3846353D01*
X42240000Y-3846353D01*
X42240000Y-4153647D01*
X42299950Y-4455035D01*
X42417546Y-4738937D01*
X42588269Y-4994442D01*
X42805558Y-5211731D01*
X43061063Y-5382454D01*
X43344965Y-5500050D01*
X43646353Y-5560000D01*
X43953647Y-5560000D01*
X44255035Y-5500050D01*
X44538937Y-5382454D01*
X44794442Y-5211731D01*
X45011731Y-4994442D01*
X45070000Y-4907236D01*
X45128269Y-4994442D01*
X45345558Y-5211731D01*
X45601063Y-5382454D01*
X45884965Y-5500050D01*
X46186353Y-5560000D01*
X46493647Y-5560000D01*
X46795035Y-5500050D01*
X47078937Y-5382454D01*
X47334442Y-5211731D01*
X47464256Y-5081917D01*
X47977688Y-5081917D01*
X48064393Y-5338653D01*
X48341223Y-5472048D01*
X48638757Y-5548873D01*
X48945562Y-5566176D01*
X49249848Y-5523292D01*
X49539921Y-5421868D01*
X49695607Y-5338653D01*
X49782312Y-5081917D01*
X48880000Y-4179605D01*
X47977688Y-5081917D01*
X47464256Y-5081917D01*
X47551731Y-4994442D01*
X47647313Y-4851394D01*
X47798083Y-4902312D01*
X48700395Y-4000000D01*
X47798083Y-3097688D01*
X47647313Y-3148606D01*
X47551731Y-3005558D01*
X47464256Y-2918083D01*
X47977688Y-2918083D01*
X48880000Y-3820395D01*
X49782312Y-2918083D01*
X49695607Y-2661347D01*
X49418777Y-2527952D01*
X49121243Y-2451127D01*
X48814438Y-2433824D01*
X48510152Y-2476708D01*
X48220079Y-2578132D01*
X48064393Y-2661347D01*
X47977688Y-2918083D01*
X47464256Y-2918083D01*
X47334442Y-2788269D01*
X47078937Y-2617546D01*
X46795035Y-2499950D01*
X46493647Y-2440000D01*
X46186353Y-2440000D01*
X45884965Y-2499950D01*
X45601063Y-2617546D01*
X45345558Y-2788269D01*
X45128269Y-3005558D01*
X45070000Y-3092764D01*
X45011731Y-3005558D01*
X44794442Y-2788269D01*
X44538937Y-2617546D01*
X44255035Y-2499950D01*
X43953647Y-2440000D01*
X43646353Y-2440000D01*
X43344965Y-2499950D01*
X43061063Y-2617546D01*
X42805558Y-2788269D01*
X42588269Y-3005558D01*
X42417546Y-3261063D01*
X42299950Y-3544965D01*
X42240000Y-3846353D01*
X35110794Y-3846353D01*
X35122235Y1340000D01*
X50443234Y1340000D01*
X50431824Y-3832605D01*
G36*
X96340001Y-11801315D02*
G01*
X92635000Y-8096315D01*
X92635000Y-7709721D01*
X92552953Y-7297244D01*
X92392012Y-6908698D01*
X92158363Y-6559017D01*
X91860983Y-6261637D01*
X91511302Y-6027988D01*
X91122756Y-5867047D01*
X90710279Y-5785000D01*
X90289721Y-5785000D01*
X89877244Y-5867047D01*
X89488698Y-6027988D01*
X89139017Y-6261637D01*
X88841637Y-6559017D01*
X88607988Y-6908698D01*
X88447047Y-7297244D01*
X88365000Y-7709721D01*
X88365000Y-8130279D01*
X88447047Y-8542756D01*
X88607988Y-8931302D01*
X88841637Y-9280983D01*
X89139017Y-9578363D01*
X89488698Y-9812012D01*
X89877244Y-9972953D01*
X90289721Y-10055000D01*
X90676315Y-10055000D01*
X91484547Y-10863232D01*
X90785750Y-10865000D01*
X90627000Y-11023750D01*
X90627000Y-12873000D01*
X92476250Y-12873000D01*
X92635000Y-12714250D01*
X92636768Y-12015453D01*
X94639990Y-14018676D01*
X94639991Y-33279788D01*
X94606893Y-33165062D01*
X94160394Y-32301560D01*
X94085149Y-32188946D01*
X93482818Y-31696787D01*
X90179605Y-35000000D01*
X93482818Y-38303213D01*
X94085149Y-37811054D01*
X94555063Y-36960067D01*
X94639991Y-36693270D01*
X94639991Y-44821323D01*
X90936373Y-48524942D01*
X90923736Y-48528775D01*
X90663394Y-48667931D01*
X90435203Y-48855203D01*
X90247931Y-49083394D01*
X90230000Y-49116940D01*
X90212069Y-49083394D01*
X90024797Y-48855203D01*
X89796606Y-48667931D01*
X89536264Y-48528775D01*
X89253777Y-48443084D01*
X89033619Y-48421400D01*
X88886381Y-48421400D01*
X88666223Y-48443084D01*
X88383736Y-48528775D01*
X88123394Y-48667931D01*
X87895203Y-48855203D01*
X87707931Y-49083394D01*
X87568775Y-49343736D01*
X87483084Y-49626223D01*
X87454149Y-49920000D01*
X87483084Y-50213777D01*
X87568775Y-50496264D01*
X87582586Y-50522103D01*
X87579615Y-50522396D01*
X87436354Y-50565853D01*
X87304325Y-50636425D01*
X87188600Y-50731398D01*
X87164802Y-50760396D01*
X84460199Y-53465000D01*
X84398061Y-53465000D01*
X84198102Y-53504774D01*
X84009744Y-53582795D01*
X83840226Y-53696063D01*
X83696063Y-53840226D01*
X83582795Y-54009744D01*
X83504774Y-54198102D01*
X83465000Y-54398061D01*
X83465000Y-54601939D01*
X83504774Y-54801898D01*
X83582795Y-54990256D01*
X83696063Y-55159774D01*
X83840226Y-55303937D01*
X84009744Y-55417205D01*
X84198102Y-55495226D01*
X84398061Y-55535000D01*
X84601939Y-55535000D01*
X84801898Y-55495226D01*
X84990256Y-55417205D01*
X85077327Y-55359026D01*
X87505042Y-55359026D01*
X87550778Y-55509814D01*
X87677316Y-55774944D01*
X87853146Y-56010293D01*
X88071512Y-56206817D01*
X88324022Y-56356964D01*
X88600973Y-56454963D01*
X88833000Y-56334464D01*
X88833000Y-55127000D01*
X89087000Y-55127000D01*
X89087000Y-56334464D01*
X89319027Y-56454963D01*
X89595978Y-56356964D01*
X89848488Y-56206817D01*
X90027947Y-56045308D01*
X90046898Y-56107780D01*
X90105863Y-56218094D01*
X90185215Y-56314785D01*
X90281906Y-56394137D01*
X90392220Y-56453102D01*
X90511918Y-56489412D01*
X90636400Y-56501672D01*
X91214250Y-56498600D01*
X91373000Y-56339850D01*
X91373000Y-55127000D01*
X91627000Y-55127000D01*
X91627000Y-56339850D01*
X91785750Y-56498600D01*
X92363600Y-56501672D01*
X92488082Y-56489412D01*
X92607780Y-56453102D01*
X92718094Y-56394137D01*
X92814785Y-56314785D01*
X92894137Y-56218094D01*
X92953102Y-56107780D01*
X92989412Y-55988082D01*
X93001672Y-55863600D01*
X92998600Y-55285750D01*
X92839850Y-55127000D01*
X91627000Y-55127000D01*
X91373000Y-55127000D01*
X89087000Y-55127000D01*
X88833000Y-55127000D01*
X87626183Y-55127000D01*
X87505042Y-55359026D01*
X85077327Y-55359026D01*
X85159774Y-55303937D01*
X85303937Y-55159774D01*
X85417205Y-54990256D01*
X85495226Y-54801898D01*
X85535000Y-54601939D01*
X85535000Y-54539801D01*
X87468553Y-52606248D01*
X87483084Y-52753777D01*
X87568775Y-53036264D01*
X87707931Y-53296606D01*
X87895203Y-53524797D01*
X88123394Y-53712069D01*
X88167910Y-53735863D01*
X88071512Y-53793183D01*
X87853146Y-53989707D01*
X87677316Y-54225056D01*
X87550778Y-54490186D01*
X87505042Y-54640974D01*
X87626183Y-54873000D01*
X88833000Y-54873000D01*
X88833000Y-54853000D01*
X89087000Y-54853000D01*
X89087000Y-54873000D01*
X91373000Y-54873000D01*
X91373000Y-54853000D01*
X91627000Y-54853000D01*
X91627000Y-54873000D01*
X92839850Y-54873000D01*
X92998600Y-54714250D01*
X93001672Y-54136400D01*
X92989412Y-54011918D01*
X92953102Y-53892220D01*
X92894137Y-53781906D01*
X92814785Y-53685215D01*
X92718094Y-53605863D01*
X92607780Y-53546898D01*
X92556735Y-53531414D01*
X92564797Y-53524797D01*
X92752069Y-53296606D01*
X92891225Y-53036264D01*
X92976916Y-52753777D01*
X93005851Y-52460000D01*
X92976916Y-52166223D01*
X92891225Y-51883736D01*
X92752069Y-51623394D01*
X92564797Y-51395203D01*
X92336606Y-51207931D01*
X92303060Y-51190000D01*
X92336606Y-51172069D01*
X92564797Y-50984797D01*
X92752069Y-50756606D01*
X92891225Y-50496264D01*
X92895058Y-50483627D01*
X96340000Y-47038686D01*
X96340000Y-59840000D01*
X52674677Y-59840000D01*
X52666999Y-49398061D01*
X74965000Y-49398061D01*
X74965000Y-49601939D01*
X75004774Y-49801898D01*
X75082795Y-49990256D01*
X75196063Y-50159774D01*
X75340226Y-50303937D01*
X75509744Y-50417205D01*
X75698102Y-50495226D01*
X75898061Y-50535000D01*
X76101939Y-50535000D01*
X76301898Y-50495226D01*
X76490256Y-50417205D01*
X76659774Y-50303937D01*
X76703711Y-50260000D01*
X78462678Y-50260000D01*
X78500000Y-50263676D01*
X78537322Y-50260000D01*
X78537333Y-50260000D01*
X78648986Y-50249003D01*
X78792247Y-50205546D01*
X78924276Y-50134974D01*
X79040001Y-50040001D01*
X79063804Y-50010997D01*
X81539802Y-47535000D01*
X81601939Y-47535000D01*
X81801898Y-47495226D01*
X81990256Y-47417205D01*
X82159774Y-47303937D01*
X82303937Y-47159774D01*
X82417205Y-46990256D01*
X82495226Y-46801898D01*
X82535000Y-46601939D01*
X82535000Y-46398061D01*
X82495226Y-46198102D01*
X82417205Y-46009744D01*
X82303937Y-45840226D01*
X82159774Y-45696063D01*
X81990256Y-45582795D01*
X81801898Y-45504774D01*
X81601939Y-45465000D01*
X81398061Y-45465000D01*
X81198102Y-45504774D01*
X81009744Y-45582795D01*
X80840226Y-45696063D01*
X80696063Y-45840226D01*
X80582795Y-46009744D01*
X80504774Y-46198102D01*
X80465000Y-46398061D01*
X80465000Y-46460198D01*
X78185199Y-48740000D01*
X76703711Y-48740000D01*
X76659774Y-48696063D01*
X76490256Y-48582795D01*
X76301898Y-48504774D01*
X76101939Y-48465000D01*
X75898061Y-48465000D01*
X75698102Y-48504774D01*
X75509744Y-48582795D01*
X75340226Y-48696063D01*
X75196063Y-48840226D01*
X75082795Y-49009744D01*
X75004774Y-49198102D01*
X74965000Y-49398061D01*
X52666999Y-49398061D01*
X52663118Y-44120000D01*
X70478057Y-44120000D01*
X70505764Y-44401309D01*
X70587818Y-44671808D01*
X70721068Y-44921101D01*
X70900392Y-45139608D01*
X71118899Y-45318932D01*
X71368192Y-45452182D01*
X71638691Y-45534236D01*
X71849508Y-45555000D01*
X71990492Y-45555000D01*
X72201309Y-45534236D01*
X72471808Y-45452182D01*
X72721101Y-45318932D01*
X72939608Y-45139608D01*
X73118932Y-44921101D01*
X73190000Y-44788142D01*
X73261068Y-44921101D01*
X73440392Y-45139608D01*
X73658899Y-45318932D01*
X73908192Y-45452182D01*
X74178691Y-45534236D01*
X74389508Y-45555000D01*
X74530492Y-45555000D01*
X74741309Y-45534236D01*
X75011808Y-45452182D01*
X75261101Y-45318932D01*
X75479608Y-45139608D01*
X75658932Y-44921101D01*
X75730000Y-44788142D01*
X75801068Y-44921101D01*
X75980392Y-45139608D01*
X76198899Y-45318932D01*
X76448192Y-45452182D01*
X76718691Y-45534236D01*
X76929508Y-45555000D01*
X77070492Y-45555000D01*
X77281309Y-45534236D01*
X77551808Y-45452182D01*
X77801101Y-45318932D01*
X78019608Y-45139608D01*
X78198932Y-44921101D01*
X78332182Y-44671808D01*
X78414236Y-44401309D01*
X78441943Y-44120000D01*
X78414236Y-43838691D01*
X78332182Y-43568192D01*
X78198932Y-43318899D01*
X78019608Y-43100392D01*
X77801101Y-42921068D01*
X77551808Y-42787818D01*
X77281309Y-42705764D01*
X77070492Y-42685000D01*
X76929508Y-42685000D01*
X76718691Y-42705764D01*
X76448192Y-42787818D01*
X76198899Y-42921068D01*
X75980392Y-43100392D01*
X75801068Y-43318899D01*
X75730000Y-43451858D01*
X75658932Y-43318899D01*
X75479608Y-43100392D01*
X75261101Y-42921068D01*
X75011808Y-42787818D01*
X74741309Y-42705764D01*
X74530492Y-42685000D01*
X74389508Y-42685000D01*
X74178691Y-42705764D01*
X73908192Y-42787818D01*
X73658899Y-42921068D01*
X73440392Y-43100392D01*
X73261068Y-43318899D01*
X73190000Y-43451858D01*
X73118932Y-43318899D01*
X72939608Y-43100392D01*
X72721101Y-42921068D01*
X72471808Y-42787818D01*
X72201309Y-42705764D01*
X71990492Y-42685000D01*
X71849508Y-42685000D01*
X71638691Y-42705764D01*
X71368192Y-42787818D01*
X71118899Y-42921068D01*
X70900392Y-43100392D01*
X70721068Y-43318899D01*
X70587818Y-43568192D01*
X70505764Y-43838691D01*
X70478057Y-44120000D01*
X52663118Y-44120000D01*
X52658974Y-38482818D01*
X86696787Y-38482818D01*
X87188946Y-39085149D01*
X88039933Y-39555063D01*
X88966243Y-39849929D01*
X89932281Y-39958414D01*
X90900921Y-39876351D01*
X91834938Y-39606893D01*
X92698440Y-39160394D01*
X92811054Y-39085149D01*
X93303213Y-38482818D01*
X90000000Y-35179605D01*
X86696787Y-38482818D01*
X52658974Y-38482818D01*
X52657772Y-36849040D01*
X70528091Y-36849040D01*
X70622930Y-37113881D01*
X70767615Y-37355131D01*
X70956586Y-37563519D01*
X71182580Y-37731037D01*
X71436913Y-37851246D01*
X71570961Y-37891904D01*
X71793000Y-37769915D01*
X71793000Y-36627000D01*
X72047000Y-36627000D01*
X72047000Y-37769915D01*
X72269039Y-37891904D01*
X72403087Y-37851246D01*
X72657420Y-37731037D01*
X72883414Y-37563519D01*
X73072385Y-37355131D01*
X73190000Y-37159018D01*
X73307615Y-37355131D01*
X73496586Y-37563519D01*
X73722580Y-37731037D01*
X73976913Y-37851246D01*
X74110961Y-37891904D01*
X74333000Y-37769915D01*
X74333000Y-36627000D01*
X74587000Y-36627000D01*
X74587000Y-37769915D01*
X74809039Y-37891904D01*
X74943087Y-37851246D01*
X75197420Y-37731037D01*
X75423414Y-37563519D01*
X75571769Y-37399920D01*
X75574188Y-37424482D01*
X75610498Y-37544180D01*
X75669463Y-37654494D01*
X75748815Y-37751185D01*
X75845506Y-37830537D01*
X75955820Y-37889502D01*
X76075518Y-37925812D01*
X76200000Y-37938072D01*
X76714250Y-37935000D01*
X76873000Y-37776250D01*
X76873000Y-36627000D01*
X77127000Y-36627000D01*
X77127000Y-37776250D01*
X77285750Y-37935000D01*
X77800000Y-37938072D01*
X77924482Y-37925812D01*
X78044180Y-37889502D01*
X78154494Y-37830537D01*
X78251185Y-37751185D01*
X78330537Y-37654494D01*
X78389502Y-37544180D01*
X78425812Y-37424482D01*
X78438072Y-37300000D01*
X78435000Y-36785750D01*
X78276250Y-36627000D01*
X77127000Y-36627000D01*
X76873000Y-36627000D01*
X74587000Y-36627000D01*
X74333000Y-36627000D01*
X72047000Y-36627000D01*
X71793000Y-36627000D01*
X70649376Y-36627000D01*
X70528091Y-36849040D01*
X52657772Y-36849040D01*
X52657259Y-36150960D01*
X70528091Y-36150960D01*
X70649376Y-36373000D01*
X71793000Y-36373000D01*
X71793000Y-35230085D01*
X72047000Y-35230085D01*
X72047000Y-36373000D01*
X74333000Y-36373000D01*
X74333000Y-35230085D01*
X74587000Y-35230085D01*
X74587000Y-36373000D01*
X76873000Y-36373000D01*
X76873000Y-35223750D01*
X77127000Y-35223750D01*
X77127000Y-36373000D01*
X78276250Y-36373000D01*
X78435000Y-36214250D01*
X78438072Y-35700000D01*
X78425812Y-35575518D01*
X78389502Y-35455820D01*
X78330537Y-35345506D01*
X78251185Y-35248815D01*
X78154494Y-35169463D01*
X78044180Y-35110498D01*
X77924482Y-35074188D01*
X77800000Y-35061928D01*
X77285750Y-35065000D01*
X77127000Y-35223750D01*
X76873000Y-35223750D01*
X76714250Y-35065000D01*
X76200000Y-35061928D01*
X76075518Y-35074188D01*
X75955820Y-35110498D01*
X75845506Y-35169463D01*
X75748815Y-35248815D01*
X75669463Y-35345506D01*
X75610498Y-35455820D01*
X75574188Y-35575518D01*
X75571769Y-35600080D01*
X75423414Y-35436481D01*
X75197420Y-35268963D01*
X74943087Y-35148754D01*
X74809039Y-35108096D01*
X74587000Y-35230085D01*
X74333000Y-35230085D01*
X74110961Y-35108096D01*
X73976913Y-35148754D01*
X73722580Y-35268963D01*
X73496586Y-35436481D01*
X73307615Y-35644869D01*
X73190000Y-35840982D01*
X73072385Y-35644869D01*
X72883414Y-35436481D01*
X72657420Y-35268963D01*
X72403087Y-35148754D01*
X72269039Y-35108096D01*
X72047000Y-35230085D01*
X71793000Y-35230085D01*
X71570961Y-35108096D01*
X71436913Y-35148754D01*
X71182580Y-35268963D01*
X70956586Y-35436481D01*
X70767615Y-35644869D01*
X70622930Y-35886119D01*
X70528091Y-36150960D01*
X52657259Y-36150960D01*
X52656363Y-34932281D01*
X85041586Y-34932281D01*
X85123649Y-35900921D01*
X85393107Y-36834938D01*
X85839606Y-37698440D01*
X85914851Y-37811054D01*
X86517182Y-38303213D01*
X89820395Y-35000000D01*
X86517182Y-31696787D01*
X85914851Y-32188946D01*
X85444937Y-33039933D01*
X85150071Y-33966243D01*
X85041586Y-34932281D01*
X52656363Y-34932281D01*
X52653852Y-31517182D01*
X86696787Y-31517182D01*
X90000000Y-34820395D01*
X93303213Y-31517182D01*
X92811054Y-30914851D01*
X91960067Y-30444937D01*
X91033757Y-30150071D01*
X90067719Y-30041586D01*
X89099079Y-30123649D01*
X88165062Y-30393107D01*
X87301560Y-30839606D01*
X87188946Y-30914851D01*
X86696787Y-31517182D01*
X52653852Y-31517182D01*
X52647956Y-23500000D01*
X63308300Y-23500000D01*
X63335040Y-23771507D01*
X63414236Y-24032580D01*
X63542844Y-24273188D01*
X63715919Y-24484081D01*
X63926812Y-24657156D01*
X64167420Y-24785764D01*
X64428493Y-24864960D01*
X64700000Y-24891700D01*
X64971507Y-24864960D01*
X65232580Y-24785764D01*
X65473188Y-24657156D01*
X65631233Y-24527452D01*
X75658685Y-14500000D01*
X88361928Y-14500000D01*
X88374188Y-14624482D01*
X88410498Y-14744180D01*
X88469463Y-14854494D01*
X88548815Y-14951185D01*
X88645506Y-15030537D01*
X88755820Y-15089502D01*
X88875518Y-15125812D01*
X89000000Y-15138072D01*
X90214250Y-15135000D01*
X90373000Y-14976250D01*
X90373000Y-13127000D01*
X90627000Y-13127000D01*
X90627000Y-14976250D01*
X90785750Y-15135000D01*
X92000000Y-15138072D01*
X92124482Y-15125812D01*
X92244180Y-15089502D01*
X92354494Y-15030537D01*
X92451185Y-14951185D01*
X92530537Y-14854494D01*
X92589502Y-14744180D01*
X92625812Y-14624482D01*
X92638072Y-14500000D01*
X92635000Y-13285750D01*
X92476250Y-13127000D01*
X90627000Y-13127000D01*
X90373000Y-13127000D01*
X88523750Y-13127000D01*
X88365000Y-13285750D01*
X88361928Y-14500000D01*
X75658685Y-14500000D01*
X76773686Y-13385000D01*
X77447397Y-13385000D01*
X77455820Y-13389502D01*
X77575518Y-13425812D01*
X77700000Y-13438072D01*
X79300000Y-13438072D01*
X79424482Y-13425812D01*
X79544180Y-13389502D01*
X79654494Y-13330537D01*
X79751185Y-13251185D01*
X79830537Y-13154494D01*
X79889502Y-13044180D01*
X79925812Y-12924482D01*
X79938072Y-12800000D01*
X79938072Y-11500000D01*
X88361928Y-11500000D01*
X88365000Y-12714250D01*
X88523750Y-12873000D01*
X90373000Y-12873000D01*
X90373000Y-11023750D01*
X90214250Y-10865000D01*
X89000000Y-10861928D01*
X88875518Y-10874188D01*
X88755820Y-10910498D01*
X88645506Y-10969463D01*
X88548815Y-11048815D01*
X88469463Y-11145506D01*
X88410498Y-11255820D01*
X88374188Y-11375518D01*
X88361928Y-11500000D01*
X79938072Y-11500000D01*
X79938072Y-11200000D01*
X79925812Y-11075518D01*
X79889502Y-10955820D01*
X79830537Y-10845506D01*
X79751185Y-10748815D01*
X79654494Y-10669463D01*
X79544180Y-10610498D01*
X79424482Y-10574188D01*
X79300000Y-10561928D01*
X77700000Y-10561928D01*
X77575518Y-10574188D01*
X77455820Y-10610498D01*
X77447397Y-10615000D01*
X76268029Y-10615000D01*
X76200000Y-10608300D01*
X76131971Y-10615000D01*
X76131963Y-10615000D01*
X75951892Y-10632735D01*
X75928492Y-10635040D01*
X75726226Y-10696397D01*
X75667419Y-10714236D01*
X75426812Y-10842843D01*
X75426810Y-10842844D01*
X75426811Y-10842844D01*
X75268766Y-10972548D01*
X75268764Y-10972550D01*
X75215919Y-11015919D01*
X75172550Y-11068764D01*
X74817828Y-11423486D01*
X74803603Y-11383708D01*
X74736671Y-11258486D01*
X74492702Y-11186903D01*
X73679605Y-12000000D01*
X73693748Y-12014143D01*
X73514143Y-12193748D01*
X73500000Y-12179605D01*
X72686903Y-12992702D01*
X72758486Y-13236671D01*
X72925579Y-13315735D01*
X63672548Y-22568767D01*
X63542844Y-22726812D01*
X63414236Y-22967420D01*
X63335040Y-23228493D01*
X63308300Y-23500000D01*
X52647956Y-23500000D01*
X52639552Y-12070512D01*
X72059783Y-12070512D01*
X72101213Y-12350130D01*
X72196397Y-12616292D01*
X72263329Y-12741514D01*
X72507298Y-12813097D01*
X73320395Y-12000000D01*
X72507298Y-11186903D01*
X72263329Y-11258486D01*
X72142429Y-11513996D01*
X72073700Y-11788184D01*
X72059783Y-12070512D01*
X52639552Y-12070512D01*
X52638771Y-11007298D01*
X72686903Y-11007298D01*
X73500000Y-11820395D01*
X74313097Y-11007298D01*
X74241514Y-10763329D01*
X73986004Y-10642429D01*
X73711816Y-10573700D01*
X73429488Y-10559783D01*
X73149870Y-10601213D01*
X72883708Y-10696397D01*
X72758486Y-10763329D01*
X72686903Y-11007298D01*
X52638771Y-11007298D01*
X52634220Y-4819955D01*
X52878083Y-4902312D01*
X53780395Y-4000000D01*
X52878083Y-3097688D01*
X52633015Y-3180453D01*
X52632823Y-2918083D01*
X53057688Y-2918083D01*
X53960000Y-3820395D01*
X53974143Y-3806253D01*
X54153748Y-3985858D01*
X54139605Y-4000000D01*
X54153748Y-4014143D01*
X53974143Y-4193748D01*
X53960000Y-4179605D01*
X53057688Y-5081917D01*
X53144393Y-5338653D01*
X53421223Y-5472048D01*
X53718757Y-5548873D01*
X54025562Y-5566176D01*
X54329848Y-5523292D01*
X54619921Y-5421868D01*
X54775607Y-5338653D01*
X54862311Y-5081919D01*
X54978186Y-5197794D01*
X54992918Y-5183062D01*
X55044463Y-5279494D01*
X55123815Y-5376185D01*
X55220506Y-5455537D01*
X55330820Y-5514502D01*
X55450518Y-5550812D01*
X55575000Y-5563072D01*
X57425000Y-5563072D01*
X57549482Y-5550812D01*
X57669180Y-5514502D01*
X57779494Y-5455537D01*
X57876185Y-5376185D01*
X57955537Y-5279494D01*
X58014502Y-5169180D01*
X58050812Y-5049482D01*
X58063072Y-4925000D01*
X58063072Y-3492702D01*
X61186903Y-3492702D01*
X61258486Y-3736671D01*
X61513996Y-3857571D01*
X61788184Y-3926300D01*
X62070512Y-3940217D01*
X62350130Y-3898787D01*
X62616292Y-3803603D01*
X62741514Y-3736671D01*
X62813097Y-3492702D01*
X62000000Y-2679605D01*
X61186903Y-3492702D01*
X58063072Y-3492702D01*
X58063072Y-3075000D01*
X58050812Y-2950518D01*
X58014502Y-2830820D01*
X57955537Y-2720506D01*
X57876185Y-2623815D01*
X57811235Y-2570512D01*
X60559783Y-2570512D01*
X60601213Y-2850130D01*
X60696397Y-3116292D01*
X60763329Y-3241514D01*
X61007298Y-3313097D01*
X61820395Y-2500000D01*
X62179605Y-2500000D01*
X62992702Y-3313097D01*
X63236671Y-3241514D01*
X63357571Y-2986004D01*
X63426300Y-2711816D01*
X63440217Y-2429488D01*
X63398787Y-2149870D01*
X63303603Y-1883708D01*
X63236671Y-1758486D01*
X63037340Y-1700000D01*
X65561928Y-1700000D01*
X65561928Y-3300000D01*
X65574188Y-3424482D01*
X65610498Y-3544180D01*
X65669463Y-3654494D01*
X65748815Y-3751185D01*
X65845506Y-3830537D01*
X65955820Y-3889502D01*
X66075518Y-3925812D01*
X66200000Y-3938072D01*
X67800000Y-3938072D01*
X67924482Y-3925812D01*
X68044180Y-3889502D01*
X68154494Y-3830537D01*
X68251185Y-3751185D01*
X68330537Y-3654494D01*
X68389502Y-3544180D01*
X68405117Y-3492702D01*
X72186903Y-3492702D01*
X72258486Y-3736671D01*
X72513996Y-3857571D01*
X72788184Y-3926300D01*
X73070512Y-3940217D01*
X73350130Y-3898787D01*
X73616292Y-3803603D01*
X73741514Y-3736671D01*
X73813097Y-3492702D01*
X73000000Y-2679605D01*
X72186903Y-3492702D01*
X68405117Y-3492702D01*
X68425812Y-3424482D01*
X68438072Y-3300000D01*
X68438072Y-2570512D01*
X71559783Y-2570512D01*
X71601213Y-2850130D01*
X71696397Y-3116292D01*
X71763329Y-3241514D01*
X72007298Y-3313097D01*
X72820395Y-2500000D01*
X73179605Y-2500000D01*
X73992702Y-3313097D01*
X74236671Y-3241514D01*
X74357571Y-2986004D01*
X74426300Y-2711816D01*
X74440217Y-2429488D01*
X74398787Y-2149870D01*
X74303603Y-1883708D01*
X74236671Y-1758486D01*
X74037340Y-1700000D01*
X76561928Y-1700000D01*
X76561928Y-3300000D01*
X76574188Y-3424482D01*
X76610498Y-3544180D01*
X76669463Y-3654494D01*
X76748815Y-3751185D01*
X76845506Y-3830537D01*
X76955820Y-3889502D01*
X77075518Y-3925812D01*
X77200000Y-3938072D01*
X78800000Y-3938072D01*
X78924482Y-3925812D01*
X79044180Y-3889502D01*
X79154494Y-3830537D01*
X79251185Y-3751185D01*
X79330537Y-3654494D01*
X79389502Y-3544180D01*
X79425812Y-3424482D01*
X79438072Y-3300000D01*
X79438072Y-2629721D01*
X88365000Y-2629721D01*
X88365000Y-3050279D01*
X88447047Y-3462756D01*
X88607988Y-3851302D01*
X88841637Y-4200983D01*
X89139017Y-4498363D01*
X89488698Y-4732012D01*
X89877244Y-4892953D01*
X90289721Y-4975000D01*
X90710279Y-4975000D01*
X91122756Y-4892953D01*
X91511302Y-4732012D01*
X91860983Y-4498363D01*
X92158363Y-4200983D01*
X92392012Y-3851302D01*
X92552953Y-3462756D01*
X92635000Y-3050279D01*
X92635000Y-2629721D01*
X92552953Y-2217244D01*
X92392012Y-1828698D01*
X92158363Y-1479017D01*
X91860983Y-1181637D01*
X91511302Y-947988D01*
X91122756Y-787047D01*
X90710279Y-705000D01*
X90289721Y-705000D01*
X89877244Y-787047D01*
X89488698Y-947988D01*
X89139017Y-1181637D01*
X88841637Y-1479017D01*
X88607988Y-1828698D01*
X88447047Y-2217244D01*
X88365000Y-2629721D01*
X79438072Y-2629721D01*
X79438072Y-1700000D01*
X79425812Y-1575518D01*
X79389502Y-1455820D01*
X79330537Y-1345506D01*
X79251185Y-1248815D01*
X79154494Y-1169463D01*
X79044180Y-1110498D01*
X78924482Y-1074188D01*
X78800000Y-1061928D01*
X77200000Y-1061928D01*
X77075518Y-1074188D01*
X76955820Y-1110498D01*
X76845506Y-1169463D01*
X76748815Y-1248815D01*
X76669463Y-1345506D01*
X76610498Y-1455820D01*
X76574188Y-1575518D01*
X76561928Y-1700000D01*
X74037340Y-1700000D01*
X73992702Y-1686903D01*
X73179605Y-2500000D01*
X72820395Y-2500000D01*
X72007298Y-1686903D01*
X71763329Y-1758486D01*
X71642429Y-2013996D01*
X71573700Y-2288184D01*
X71559783Y-2570512D01*
X68438072Y-2570512D01*
X68438072Y-1700000D01*
X68425812Y-1575518D01*
X68405118Y-1507298D01*
X72186903Y-1507298D01*
X73000000Y-2320395D01*
X73813097Y-1507298D01*
X73741514Y-1263329D01*
X73486004Y-1142429D01*
X73211816Y-1073700D01*
X72929488Y-1059783D01*
X72649870Y-1101213D01*
X72383708Y-1196397D01*
X72258486Y-1263329D01*
X72186903Y-1507298D01*
X68405118Y-1507298D01*
X68389502Y-1455820D01*
X68330537Y-1345506D01*
X68251185Y-1248815D01*
X68154494Y-1169463D01*
X68044180Y-1110498D01*
X67924482Y-1074188D01*
X67800000Y-1061928D01*
X66200000Y-1061928D01*
X66075518Y-1074188D01*
X65955820Y-1110498D01*
X65845506Y-1169463D01*
X65748815Y-1248815D01*
X65669463Y-1345506D01*
X65610498Y-1455820D01*
X65574188Y-1575518D01*
X65561928Y-1700000D01*
X63037340Y-1700000D01*
X62992702Y-1686903D01*
X62179605Y-2500000D01*
X61820395Y-2500000D01*
X61007298Y-1686903D01*
X60763329Y-1758486D01*
X60642429Y-2013996D01*
X60573700Y-2288184D01*
X60559783Y-2570512D01*
X57811235Y-2570512D01*
X57779494Y-2544463D01*
X57669180Y-2485498D01*
X57549482Y-2449188D01*
X57425000Y-2436928D01*
X55575000Y-2436928D01*
X55450518Y-2449188D01*
X55330820Y-2485498D01*
X55220506Y-2544463D01*
X55123815Y-2623815D01*
X55044463Y-2720506D01*
X54992918Y-2816938D01*
X54978186Y-2802206D01*
X54862311Y-2918081D01*
X54775607Y-2661347D01*
X54498777Y-2527952D01*
X54201243Y-2451127D01*
X53894438Y-2433824D01*
X53590152Y-2476708D01*
X53300079Y-2578132D01*
X53144393Y-2661347D01*
X53057688Y-2918083D01*
X52632823Y-2918083D01*
X52631786Y-1507298D01*
X61186903Y-1507298D01*
X62000000Y-2320395D01*
X62813097Y-1507298D01*
X62741514Y-1263329D01*
X62486004Y-1142429D01*
X62211816Y-1073700D01*
X61929488Y-1059783D01*
X61649870Y-1101213D01*
X61383708Y-1196397D01*
X61258486Y-1263329D01*
X61186903Y-1507298D01*
X52631786Y-1507298D01*
X52629691Y1340000D01*
X96340001Y1340000D01*
X96340001Y-11801315D01*
X96340001Y-11801315D01*
G37*
X96340001Y-11801315D02*
X92635000Y-8096315D01*
X92635000Y-7709721D01*
X92552953Y-7297244D01*
X92392012Y-6908698D01*
X92158363Y-6559017D01*
X91860983Y-6261637D01*
X91511302Y-6027988D01*
X91122756Y-5867047D01*
X90710279Y-5785000D01*
X90289721Y-5785000D01*
X89877244Y-5867047D01*
X89488698Y-6027988D01*
X89139017Y-6261637D01*
X88841637Y-6559017D01*
X88607988Y-6908698D01*
X88447047Y-7297244D01*
X88365000Y-7709721D01*
X88365000Y-8130279D01*
X88447047Y-8542756D01*
X88607988Y-8931302D01*
X88841637Y-9280983D01*
X89139017Y-9578363D01*
X89488698Y-9812012D01*
X89877244Y-9972953D01*
X90289721Y-10055000D01*
X90676315Y-10055000D01*
X91484547Y-10863232D01*
X90785750Y-10865000D01*
X90627000Y-11023750D01*
X90627000Y-12873000D01*
X92476250Y-12873000D01*
X92635000Y-12714250D01*
X92636768Y-12015453D01*
X94639990Y-14018676D01*
X94639991Y-33279788D01*
X94606893Y-33165062D01*
X94160394Y-32301560D01*
X94085149Y-32188946D01*
X93482818Y-31696787D01*
X90179605Y-35000000D01*
X93482818Y-38303213D01*
X94085149Y-37811054D01*
X94555063Y-36960067D01*
X94639991Y-36693270D01*
X94639991Y-44821323D01*
X90936373Y-48524942D01*
X90923736Y-48528775D01*
X90663394Y-48667931D01*
X90435203Y-48855203D01*
X90247931Y-49083394D01*
X90230000Y-49116940D01*
X90212069Y-49083394D01*
X90024797Y-48855203D01*
X89796606Y-48667931D01*
X89536264Y-48528775D01*
X89253777Y-48443084D01*
X89033619Y-48421400D01*
X88886381Y-48421400D01*
X88666223Y-48443084D01*
X88383736Y-48528775D01*
X88123394Y-48667931D01*
X87895203Y-48855203D01*
X87707931Y-49083394D01*
X87568775Y-49343736D01*
X87483084Y-49626223D01*
X87454149Y-49920000D01*
X87483084Y-50213777D01*
X87568775Y-50496264D01*
X87582586Y-50522103D01*
X87579615Y-50522396D01*
X87436354Y-50565853D01*
X87304325Y-50636425D01*
X87188600Y-50731398D01*
X87164802Y-50760396D01*
X84460199Y-53465000D01*
X84398061Y-53465000D01*
X84198102Y-53504774D01*
X84009744Y-53582795D01*
X83840226Y-53696063D01*
X83696063Y-53840226D01*
X83582795Y-54009744D01*
X83504774Y-54198102D01*
X83465000Y-54398061D01*
X83465000Y-54601939D01*
X83504774Y-54801898D01*
X83582795Y-54990256D01*
X83696063Y-55159774D01*
X83840226Y-55303937D01*
X84009744Y-55417205D01*
X84198102Y-55495226D01*
X84398061Y-55535000D01*
X84601939Y-55535000D01*
X84801898Y-55495226D01*
X84990256Y-55417205D01*
X85077327Y-55359026D01*
X87505042Y-55359026D01*
X87550778Y-55509814D01*
X87677316Y-55774944D01*
X87853146Y-56010293D01*
X88071512Y-56206817D01*
X88324022Y-56356964D01*
X88600973Y-56454963D01*
X88833000Y-56334464D01*
X88833000Y-55127000D01*
X89087000Y-55127000D01*
X89087000Y-56334464D01*
X89319027Y-56454963D01*
X89595978Y-56356964D01*
X89848488Y-56206817D01*
X90027947Y-56045308D01*
X90046898Y-56107780D01*
X90105863Y-56218094D01*
X90185215Y-56314785D01*
X90281906Y-56394137D01*
X90392220Y-56453102D01*
X90511918Y-56489412D01*
X90636400Y-56501672D01*
X91214250Y-56498600D01*
X91373000Y-56339850D01*
X91373000Y-55127000D01*
X91627000Y-55127000D01*
X91627000Y-56339850D01*
X91785750Y-56498600D01*
X92363600Y-56501672D01*
X92488082Y-56489412D01*
X92607780Y-56453102D01*
X92718094Y-56394137D01*
X92814785Y-56314785D01*
X92894137Y-56218094D01*
X92953102Y-56107780D01*
X92989412Y-55988082D01*
X93001672Y-55863600D01*
X92998600Y-55285750D01*
X92839850Y-55127000D01*
X91627000Y-55127000D01*
X91373000Y-55127000D01*
X89087000Y-55127000D01*
X88833000Y-55127000D01*
X87626183Y-55127000D01*
X87505042Y-55359026D01*
X85077327Y-55359026D01*
X85159774Y-55303937D01*
X85303937Y-55159774D01*
X85417205Y-54990256D01*
X85495226Y-54801898D01*
X85535000Y-54601939D01*
X85535000Y-54539801D01*
X87468553Y-52606248D01*
X87483084Y-52753777D01*
X87568775Y-53036264D01*
X87707931Y-53296606D01*
X87895203Y-53524797D01*
X88123394Y-53712069D01*
X88167910Y-53735863D01*
X88071512Y-53793183D01*
X87853146Y-53989707D01*
X87677316Y-54225056D01*
X87550778Y-54490186D01*
X87505042Y-54640974D01*
X87626183Y-54873000D01*
X88833000Y-54873000D01*
X88833000Y-54853000D01*
X89087000Y-54853000D01*
X89087000Y-54873000D01*
X91373000Y-54873000D01*
X91373000Y-54853000D01*
X91627000Y-54853000D01*
X91627000Y-54873000D01*
X92839850Y-54873000D01*
X92998600Y-54714250D01*
X93001672Y-54136400D01*
X92989412Y-54011918D01*
X92953102Y-53892220D01*
X92894137Y-53781906D01*
X92814785Y-53685215D01*
X92718094Y-53605863D01*
X92607780Y-53546898D01*
X92556735Y-53531414D01*
X92564797Y-53524797D01*
X92752069Y-53296606D01*
X92891225Y-53036264D01*
X92976916Y-52753777D01*
X93005851Y-52460000D01*
X92976916Y-52166223D01*
X92891225Y-51883736D01*
X92752069Y-51623394D01*
X92564797Y-51395203D01*
X92336606Y-51207931D01*
X92303060Y-51190000D01*
X92336606Y-51172069D01*
X92564797Y-50984797D01*
X92752069Y-50756606D01*
X92891225Y-50496264D01*
X92895058Y-50483627D01*
X96340000Y-47038686D01*
X96340000Y-59840000D01*
X52674677Y-59840000D01*
X52666999Y-49398061D01*
X74965000Y-49398061D01*
X74965000Y-49601939D01*
X75004774Y-49801898D01*
X75082795Y-49990256D01*
X75196063Y-50159774D01*
X75340226Y-50303937D01*
X75509744Y-50417205D01*
X75698102Y-50495226D01*
X75898061Y-50535000D01*
X76101939Y-50535000D01*
X76301898Y-50495226D01*
X76490256Y-50417205D01*
X76659774Y-50303937D01*
X76703711Y-50260000D01*
X78462678Y-50260000D01*
X78500000Y-50263676D01*
X78537322Y-50260000D01*
X78537333Y-50260000D01*
X78648986Y-50249003D01*
X78792247Y-50205546D01*
X78924276Y-50134974D01*
X79040001Y-50040001D01*
X79063804Y-50010997D01*
X81539802Y-47535000D01*
X81601939Y-47535000D01*
X81801898Y-47495226D01*
X81990256Y-47417205D01*
X82159774Y-47303937D01*
X82303937Y-47159774D01*
X82417205Y-46990256D01*
X82495226Y-46801898D01*
X82535000Y-46601939D01*
X82535000Y-46398061D01*
X82495226Y-46198102D01*
X82417205Y-46009744D01*
X82303937Y-45840226D01*
X82159774Y-45696063D01*
X81990256Y-45582795D01*
X81801898Y-45504774D01*
X81601939Y-45465000D01*
X81398061Y-45465000D01*
X81198102Y-45504774D01*
X81009744Y-45582795D01*
X80840226Y-45696063D01*
X80696063Y-45840226D01*
X80582795Y-46009744D01*
X80504774Y-46198102D01*
X80465000Y-46398061D01*
X80465000Y-46460198D01*
X78185199Y-48740000D01*
X76703711Y-48740000D01*
X76659774Y-48696063D01*
X76490256Y-48582795D01*
X76301898Y-48504774D01*
X76101939Y-48465000D01*
X75898061Y-48465000D01*
X75698102Y-48504774D01*
X75509744Y-48582795D01*
X75340226Y-48696063D01*
X75196063Y-48840226D01*
X75082795Y-49009744D01*
X75004774Y-49198102D01*
X74965000Y-49398061D01*
X52666999Y-49398061D01*
X52663118Y-44120000D01*
X70478057Y-44120000D01*
X70505764Y-44401309D01*
X70587818Y-44671808D01*
X70721068Y-44921101D01*
X70900392Y-45139608D01*
X71118899Y-45318932D01*
X71368192Y-45452182D01*
X71638691Y-45534236D01*
X71849508Y-45555000D01*
X71990492Y-45555000D01*
X72201309Y-45534236D01*
X72471808Y-45452182D01*
X72721101Y-45318932D01*
X72939608Y-45139608D01*
X73118932Y-44921101D01*
X73190000Y-44788142D01*
X73261068Y-44921101D01*
X73440392Y-45139608D01*
X73658899Y-45318932D01*
X73908192Y-45452182D01*
X74178691Y-45534236D01*
X74389508Y-45555000D01*
X74530492Y-45555000D01*
X74741309Y-45534236D01*
X75011808Y-45452182D01*
X75261101Y-45318932D01*
X75479608Y-45139608D01*
X75658932Y-44921101D01*
X75730000Y-44788142D01*
X75801068Y-44921101D01*
X75980392Y-45139608D01*
X76198899Y-45318932D01*
X76448192Y-45452182D01*
X76718691Y-45534236D01*
X76929508Y-45555000D01*
X77070492Y-45555000D01*
X77281309Y-45534236D01*
X77551808Y-45452182D01*
X77801101Y-45318932D01*
X78019608Y-45139608D01*
X78198932Y-44921101D01*
X78332182Y-44671808D01*
X78414236Y-44401309D01*
X78441943Y-44120000D01*
X78414236Y-43838691D01*
X78332182Y-43568192D01*
X78198932Y-43318899D01*
X78019608Y-43100392D01*
X77801101Y-42921068D01*
X77551808Y-42787818D01*
X77281309Y-42705764D01*
X77070492Y-42685000D01*
X76929508Y-42685000D01*
X76718691Y-42705764D01*
X76448192Y-42787818D01*
X76198899Y-42921068D01*
X75980392Y-43100392D01*
X75801068Y-43318899D01*
X75730000Y-43451858D01*
X75658932Y-43318899D01*
X75479608Y-43100392D01*
X75261101Y-42921068D01*
X75011808Y-42787818D01*
X74741309Y-42705764D01*
X74530492Y-42685000D01*
X74389508Y-42685000D01*
X74178691Y-42705764D01*
X73908192Y-42787818D01*
X73658899Y-42921068D01*
X73440392Y-43100392D01*
X73261068Y-43318899D01*
X73190000Y-43451858D01*
X73118932Y-43318899D01*
X72939608Y-43100392D01*
X72721101Y-42921068D01*
X72471808Y-42787818D01*
X72201309Y-42705764D01*
X71990492Y-42685000D01*
X71849508Y-42685000D01*
X71638691Y-42705764D01*
X71368192Y-42787818D01*
X71118899Y-42921068D01*
X70900392Y-43100392D01*
X70721068Y-43318899D01*
X70587818Y-43568192D01*
X70505764Y-43838691D01*
X70478057Y-44120000D01*
X52663118Y-44120000D01*
X52658974Y-38482818D01*
X86696787Y-38482818D01*
X87188946Y-39085149D01*
X88039933Y-39555063D01*
X88966243Y-39849929D01*
X89932281Y-39958414D01*
X90900921Y-39876351D01*
X91834938Y-39606893D01*
X92698440Y-39160394D01*
X92811054Y-39085149D01*
X93303213Y-38482818D01*
X90000000Y-35179605D01*
X86696787Y-38482818D01*
X52658974Y-38482818D01*
X52657772Y-36849040D01*
X70528091Y-36849040D01*
X70622930Y-37113881D01*
X70767615Y-37355131D01*
X70956586Y-37563519D01*
X71182580Y-37731037D01*
X71436913Y-37851246D01*
X71570961Y-37891904D01*
X71793000Y-37769915D01*
X71793000Y-36627000D01*
X72047000Y-36627000D01*
X72047000Y-37769915D01*
X72269039Y-37891904D01*
X72403087Y-37851246D01*
X72657420Y-37731037D01*
X72883414Y-37563519D01*
X73072385Y-37355131D01*
X73190000Y-37159018D01*
X73307615Y-37355131D01*
X73496586Y-37563519D01*
X73722580Y-37731037D01*
X73976913Y-37851246D01*
X74110961Y-37891904D01*
X74333000Y-37769915D01*
X74333000Y-36627000D01*
X74587000Y-36627000D01*
X74587000Y-37769915D01*
X74809039Y-37891904D01*
X74943087Y-37851246D01*
X75197420Y-37731037D01*
X75423414Y-37563519D01*
X75571769Y-37399920D01*
X75574188Y-37424482D01*
X75610498Y-37544180D01*
X75669463Y-37654494D01*
X75748815Y-37751185D01*
X75845506Y-37830537D01*
X75955820Y-37889502D01*
X76075518Y-37925812D01*
X76200000Y-37938072D01*
X76714250Y-37935000D01*
X76873000Y-37776250D01*
X76873000Y-36627000D01*
X77127000Y-36627000D01*
X77127000Y-37776250D01*
X77285750Y-37935000D01*
X77800000Y-37938072D01*
X77924482Y-37925812D01*
X78044180Y-37889502D01*
X78154494Y-37830537D01*
X78251185Y-37751185D01*
X78330537Y-37654494D01*
X78389502Y-37544180D01*
X78425812Y-37424482D01*
X78438072Y-37300000D01*
X78435000Y-36785750D01*
X78276250Y-36627000D01*
X77127000Y-36627000D01*
X76873000Y-36627000D01*
X74587000Y-36627000D01*
X74333000Y-36627000D01*
X72047000Y-36627000D01*
X71793000Y-36627000D01*
X70649376Y-36627000D01*
X70528091Y-36849040D01*
X52657772Y-36849040D01*
X52657259Y-36150960D01*
X70528091Y-36150960D01*
X70649376Y-36373000D01*
X71793000Y-36373000D01*
X71793000Y-35230085D01*
X72047000Y-35230085D01*
X72047000Y-36373000D01*
X74333000Y-36373000D01*
X74333000Y-35230085D01*
X74587000Y-35230085D01*
X74587000Y-36373000D01*
X76873000Y-36373000D01*
X76873000Y-35223750D01*
X77127000Y-35223750D01*
X77127000Y-36373000D01*
X78276250Y-36373000D01*
X78435000Y-36214250D01*
X78438072Y-35700000D01*
X78425812Y-35575518D01*
X78389502Y-35455820D01*
X78330537Y-35345506D01*
X78251185Y-35248815D01*
X78154494Y-35169463D01*
X78044180Y-35110498D01*
X77924482Y-35074188D01*
X77800000Y-35061928D01*
X77285750Y-35065000D01*
X77127000Y-35223750D01*
X76873000Y-35223750D01*
X76714250Y-35065000D01*
X76200000Y-35061928D01*
X76075518Y-35074188D01*
X75955820Y-35110498D01*
X75845506Y-35169463D01*
X75748815Y-35248815D01*
X75669463Y-35345506D01*
X75610498Y-35455820D01*
X75574188Y-35575518D01*
X75571769Y-35600080D01*
X75423414Y-35436481D01*
X75197420Y-35268963D01*
X74943087Y-35148754D01*
X74809039Y-35108096D01*
X74587000Y-35230085D01*
X74333000Y-35230085D01*
X74110961Y-35108096D01*
X73976913Y-35148754D01*
X73722580Y-35268963D01*
X73496586Y-35436481D01*
X73307615Y-35644869D01*
X73190000Y-35840982D01*
X73072385Y-35644869D01*
X72883414Y-35436481D01*
X72657420Y-35268963D01*
X72403087Y-35148754D01*
X72269039Y-35108096D01*
X72047000Y-35230085D01*
X71793000Y-35230085D01*
X71570961Y-35108096D01*
X71436913Y-35148754D01*
X71182580Y-35268963D01*
X70956586Y-35436481D01*
X70767615Y-35644869D01*
X70622930Y-35886119D01*
X70528091Y-36150960D01*
X52657259Y-36150960D01*
X52656363Y-34932281D01*
X85041586Y-34932281D01*
X85123649Y-35900921D01*
X85393107Y-36834938D01*
X85839606Y-37698440D01*
X85914851Y-37811054D01*
X86517182Y-38303213D01*
X89820395Y-35000000D01*
X86517182Y-31696787D01*
X85914851Y-32188946D01*
X85444937Y-33039933D01*
X85150071Y-33966243D01*
X85041586Y-34932281D01*
X52656363Y-34932281D01*
X52653852Y-31517182D01*
X86696787Y-31517182D01*
X90000000Y-34820395D01*
X93303213Y-31517182D01*
X92811054Y-30914851D01*
X91960067Y-30444937D01*
X91033757Y-30150071D01*
X90067719Y-30041586D01*
X89099079Y-30123649D01*
X88165062Y-30393107D01*
X87301560Y-30839606D01*
X87188946Y-30914851D01*
X86696787Y-31517182D01*
X52653852Y-31517182D01*
X52647956Y-23500000D01*
X63308300Y-23500000D01*
X63335040Y-23771507D01*
X63414236Y-24032580D01*
X63542844Y-24273188D01*
X63715919Y-24484081D01*
X63926812Y-24657156D01*
X64167420Y-24785764D01*
X64428493Y-24864960D01*
X64700000Y-24891700D01*
X64971507Y-24864960D01*
X65232580Y-24785764D01*
X65473188Y-24657156D01*
X65631233Y-24527452D01*
X75658685Y-14500000D01*
X88361928Y-14500000D01*
X88374188Y-14624482D01*
X88410498Y-14744180D01*
X88469463Y-14854494D01*
X88548815Y-14951185D01*
X88645506Y-15030537D01*
X88755820Y-15089502D01*
X88875518Y-15125812D01*
X89000000Y-15138072D01*
X90214250Y-15135000D01*
X90373000Y-14976250D01*
X90373000Y-13127000D01*
X90627000Y-13127000D01*
X90627000Y-14976250D01*
X90785750Y-15135000D01*
X92000000Y-15138072D01*
X92124482Y-15125812D01*
X92244180Y-15089502D01*
X92354494Y-15030537D01*
X92451185Y-14951185D01*
X92530537Y-14854494D01*
X92589502Y-14744180D01*
X92625812Y-14624482D01*
X92638072Y-14500000D01*
X92635000Y-13285750D01*
X92476250Y-13127000D01*
X90627000Y-13127000D01*
X90373000Y-13127000D01*
X88523750Y-13127000D01*
X88365000Y-13285750D01*
X88361928Y-14500000D01*
X75658685Y-14500000D01*
X76773686Y-13385000D01*
X77447397Y-13385000D01*
X77455820Y-13389502D01*
X77575518Y-13425812D01*
X77700000Y-13438072D01*
X79300000Y-13438072D01*
X79424482Y-13425812D01*
X79544180Y-13389502D01*
X79654494Y-13330537D01*
X79751185Y-13251185D01*
X79830537Y-13154494D01*
X79889502Y-13044180D01*
X79925812Y-12924482D01*
X79938072Y-12800000D01*
X79938072Y-11500000D01*
X88361928Y-11500000D01*
X88365000Y-12714250D01*
X88523750Y-12873000D01*
X90373000Y-12873000D01*
X90373000Y-11023750D01*
X90214250Y-10865000D01*
X89000000Y-10861928D01*
X88875518Y-10874188D01*
X88755820Y-10910498D01*
X88645506Y-10969463D01*
X88548815Y-11048815D01*
X88469463Y-11145506D01*
X88410498Y-11255820D01*
X88374188Y-11375518D01*
X88361928Y-11500000D01*
X79938072Y-11500000D01*
X79938072Y-11200000D01*
X79925812Y-11075518D01*
X79889502Y-10955820D01*
X79830537Y-10845506D01*
X79751185Y-10748815D01*
X79654494Y-10669463D01*
X79544180Y-10610498D01*
X79424482Y-10574188D01*
X79300000Y-10561928D01*
X77700000Y-10561928D01*
X77575518Y-10574188D01*
X77455820Y-10610498D01*
X77447397Y-10615000D01*
X76268029Y-10615000D01*
X76200000Y-10608300D01*
X76131971Y-10615000D01*
X76131963Y-10615000D01*
X75951892Y-10632735D01*
X75928492Y-10635040D01*
X75726226Y-10696397D01*
X75667419Y-10714236D01*
X75426812Y-10842843D01*
X75426810Y-10842844D01*
X75426811Y-10842844D01*
X75268766Y-10972548D01*
X75268764Y-10972550D01*
X75215919Y-11015919D01*
X75172550Y-11068764D01*
X74817828Y-11423486D01*
X74803603Y-11383708D01*
X74736671Y-11258486D01*
X74492702Y-11186903D01*
X73679605Y-12000000D01*
X73693748Y-12014143D01*
X73514143Y-12193748D01*
X73500000Y-12179605D01*
X72686903Y-12992702D01*
X72758486Y-13236671D01*
X72925579Y-13315735D01*
X63672548Y-22568767D01*
X63542844Y-22726812D01*
X63414236Y-22967420D01*
X63335040Y-23228493D01*
X63308300Y-23500000D01*
X52647956Y-23500000D01*
X52639552Y-12070512D01*
X72059783Y-12070512D01*
X72101213Y-12350130D01*
X72196397Y-12616292D01*
X72263329Y-12741514D01*
X72507298Y-12813097D01*
X73320395Y-12000000D01*
X72507298Y-11186903D01*
X72263329Y-11258486D01*
X72142429Y-11513996D01*
X72073700Y-11788184D01*
X72059783Y-12070512D01*
X52639552Y-12070512D01*
X52638771Y-11007298D01*
X72686903Y-11007298D01*
X73500000Y-11820395D01*
X74313097Y-11007298D01*
X74241514Y-10763329D01*
X73986004Y-10642429D01*
X73711816Y-10573700D01*
X73429488Y-10559783D01*
X73149870Y-10601213D01*
X72883708Y-10696397D01*
X72758486Y-10763329D01*
X72686903Y-11007298D01*
X52638771Y-11007298D01*
X52634220Y-4819955D01*
X52878083Y-4902312D01*
X53780395Y-4000000D01*
X52878083Y-3097688D01*
X52633015Y-3180453D01*
X52632823Y-2918083D01*
X53057688Y-2918083D01*
X53960000Y-3820395D01*
X53974143Y-3806253D01*
X54153748Y-3985858D01*
X54139605Y-4000000D01*
X54153748Y-4014143D01*
X53974143Y-4193748D01*
X53960000Y-4179605D01*
X53057688Y-5081917D01*
X53144393Y-5338653D01*
X53421223Y-5472048D01*
X53718757Y-5548873D01*
X54025562Y-5566176D01*
X54329848Y-5523292D01*
X54619921Y-5421868D01*
X54775607Y-5338653D01*
X54862311Y-5081919D01*
X54978186Y-5197794D01*
X54992918Y-5183062D01*
X55044463Y-5279494D01*
X55123815Y-5376185D01*
X55220506Y-5455537D01*
X55330820Y-5514502D01*
X55450518Y-5550812D01*
X55575000Y-5563072D01*
X57425000Y-5563072D01*
X57549482Y-5550812D01*
X57669180Y-5514502D01*
X57779494Y-5455537D01*
X57876185Y-5376185D01*
X57955537Y-5279494D01*
X58014502Y-5169180D01*
X58050812Y-5049482D01*
X58063072Y-4925000D01*
X58063072Y-3492702D01*
X61186903Y-3492702D01*
X61258486Y-3736671D01*
X61513996Y-3857571D01*
X61788184Y-3926300D01*
X62070512Y-3940217D01*
X62350130Y-3898787D01*
X62616292Y-3803603D01*
X62741514Y-3736671D01*
X62813097Y-3492702D01*
X62000000Y-2679605D01*
X61186903Y-3492702D01*
X58063072Y-3492702D01*
X58063072Y-3075000D01*
X58050812Y-2950518D01*
X58014502Y-2830820D01*
X57955537Y-2720506D01*
X57876185Y-2623815D01*
X57811235Y-2570512D01*
X60559783Y-2570512D01*
X60601213Y-2850130D01*
X60696397Y-3116292D01*
X60763329Y-3241514D01*
X61007298Y-3313097D01*
X61820395Y-2500000D01*
X62179605Y-2500000D01*
X62992702Y-3313097D01*
X63236671Y-3241514D01*
X63357571Y-2986004D01*
X63426300Y-2711816D01*
X63440217Y-2429488D01*
X63398787Y-2149870D01*
X63303603Y-1883708D01*
X63236671Y-1758486D01*
X63037340Y-1700000D01*
X65561928Y-1700000D01*
X65561928Y-3300000D01*
X65574188Y-3424482D01*
X65610498Y-3544180D01*
X65669463Y-3654494D01*
X65748815Y-3751185D01*
X65845506Y-3830537D01*
X65955820Y-3889502D01*
X66075518Y-3925812D01*
X66200000Y-3938072D01*
X67800000Y-3938072D01*
X67924482Y-3925812D01*
X68044180Y-3889502D01*
X68154494Y-3830537D01*
X68251185Y-3751185D01*
X68330537Y-3654494D01*
X68389502Y-3544180D01*
X68405117Y-3492702D01*
X72186903Y-3492702D01*
X72258486Y-3736671D01*
X72513996Y-3857571D01*
X72788184Y-3926300D01*
X73070512Y-3940217D01*
X73350130Y-3898787D01*
X73616292Y-3803603D01*
X73741514Y-3736671D01*
X73813097Y-3492702D01*
X73000000Y-2679605D01*
X72186903Y-3492702D01*
X68405117Y-3492702D01*
X68425812Y-3424482D01*
X68438072Y-3300000D01*
X68438072Y-2570512D01*
X71559783Y-2570512D01*
X71601213Y-2850130D01*
X71696397Y-3116292D01*
X71763329Y-3241514D01*
X72007298Y-3313097D01*
X72820395Y-2500000D01*
X73179605Y-2500000D01*
X73992702Y-3313097D01*
X74236671Y-3241514D01*
X74357571Y-2986004D01*
X74426300Y-2711816D01*
X74440217Y-2429488D01*
X74398787Y-2149870D01*
X74303603Y-1883708D01*
X74236671Y-1758486D01*
X74037340Y-1700000D01*
X76561928Y-1700000D01*
X76561928Y-3300000D01*
X76574188Y-3424482D01*
X76610498Y-3544180D01*
X76669463Y-3654494D01*
X76748815Y-3751185D01*
X76845506Y-3830537D01*
X76955820Y-3889502D01*
X77075518Y-3925812D01*
X77200000Y-3938072D01*
X78800000Y-3938072D01*
X78924482Y-3925812D01*
X79044180Y-3889502D01*
X79154494Y-3830537D01*
X79251185Y-3751185D01*
X79330537Y-3654494D01*
X79389502Y-3544180D01*
X79425812Y-3424482D01*
X79438072Y-3300000D01*
X79438072Y-2629721D01*
X88365000Y-2629721D01*
X88365000Y-3050279D01*
X88447047Y-3462756D01*
X88607988Y-3851302D01*
X88841637Y-4200983D01*
X89139017Y-4498363D01*
X89488698Y-4732012D01*
X89877244Y-4892953D01*
X90289721Y-4975000D01*
X90710279Y-4975000D01*
X91122756Y-4892953D01*
X91511302Y-4732012D01*
X91860983Y-4498363D01*
X92158363Y-4200983D01*
X92392012Y-3851302D01*
X92552953Y-3462756D01*
X92635000Y-3050279D01*
X92635000Y-2629721D01*
X92552953Y-2217244D01*
X92392012Y-1828698D01*
X92158363Y-1479017D01*
X91860983Y-1181637D01*
X91511302Y-947988D01*
X91122756Y-787047D01*
X90710279Y-705000D01*
X90289721Y-705000D01*
X89877244Y-787047D01*
X89488698Y-947988D01*
X89139017Y-1181637D01*
X88841637Y-1479017D01*
X88607988Y-1828698D01*
X88447047Y-2217244D01*
X88365000Y-2629721D01*
X79438072Y-2629721D01*
X79438072Y-1700000D01*
X79425812Y-1575518D01*
X79389502Y-1455820D01*
X79330537Y-1345506D01*
X79251185Y-1248815D01*
X79154494Y-1169463D01*
X79044180Y-1110498D01*
X78924482Y-1074188D01*
X78800000Y-1061928D01*
X77200000Y-1061928D01*
X77075518Y-1074188D01*
X76955820Y-1110498D01*
X76845506Y-1169463D01*
X76748815Y-1248815D01*
X76669463Y-1345506D01*
X76610498Y-1455820D01*
X76574188Y-1575518D01*
X76561928Y-1700000D01*
X74037340Y-1700000D01*
X73992702Y-1686903D01*
X73179605Y-2500000D01*
X72820395Y-2500000D01*
X72007298Y-1686903D01*
X71763329Y-1758486D01*
X71642429Y-2013996D01*
X71573700Y-2288184D01*
X71559783Y-2570512D01*
X68438072Y-2570512D01*
X68438072Y-1700000D01*
X68425812Y-1575518D01*
X68405118Y-1507298D01*
X72186903Y-1507298D01*
X73000000Y-2320395D01*
X73813097Y-1507298D01*
X73741514Y-1263329D01*
X73486004Y-1142429D01*
X73211816Y-1073700D01*
X72929488Y-1059783D01*
X72649870Y-1101213D01*
X72383708Y-1196397D01*
X72258486Y-1263329D01*
X72186903Y-1507298D01*
X68405118Y-1507298D01*
X68389502Y-1455820D01*
X68330537Y-1345506D01*
X68251185Y-1248815D01*
X68154494Y-1169463D01*
X68044180Y-1110498D01*
X67924482Y-1074188D01*
X67800000Y-1061928D01*
X66200000Y-1061928D01*
X66075518Y-1074188D01*
X65955820Y-1110498D01*
X65845506Y-1169463D01*
X65748815Y-1248815D01*
X65669463Y-1345506D01*
X65610498Y-1455820D01*
X65574188Y-1575518D01*
X65561928Y-1700000D01*
X63037340Y-1700000D01*
X62992702Y-1686903D01*
X62179605Y-2500000D01*
X61820395Y-2500000D01*
X61007298Y-1686903D01*
X60763329Y-1758486D01*
X60642429Y-2013996D01*
X60573700Y-2288184D01*
X60559783Y-2570512D01*
X57811235Y-2570512D01*
X57779494Y-2544463D01*
X57669180Y-2485498D01*
X57549482Y-2449188D01*
X57425000Y-2436928D01*
X55575000Y-2436928D01*
X55450518Y-2449188D01*
X55330820Y-2485498D01*
X55220506Y-2544463D01*
X55123815Y-2623815D01*
X55044463Y-2720506D01*
X54992918Y-2816938D01*
X54978186Y-2802206D01*
X54862311Y-2918081D01*
X54775607Y-2661347D01*
X54498777Y-2527952D01*
X54201243Y-2451127D01*
X53894438Y-2433824D01*
X53590152Y-2476708D01*
X53300079Y-2578132D01*
X53144393Y-2661347D01*
X53057688Y-2918083D01*
X52632823Y-2918083D01*
X52631786Y-1507298D01*
X61186903Y-1507298D01*
X62000000Y-2320395D01*
X62813097Y-1507298D01*
X62741514Y-1263329D01*
X62486004Y-1142429D01*
X62211816Y-1073700D01*
X61929488Y-1059783D01*
X61649870Y-1101213D01*
X61383708Y-1196397D01*
X61258486Y-1263329D01*
X61186903Y-1507298D01*
X52631786Y-1507298D01*
X52629691Y1340000D01*
X96340001Y1340000D01*
X96340001Y-11801315D01*
M02*
