G04 #@! TF.GenerationSoftware,KiCad,Pcbnew,(5.1.4)-1*
G04 #@! TF.CreationDate,2020-01-12T19:46:33+08:00*
G04 #@! TF.ProjectId,i2c x2 relays socketed,69326320-7832-4207-9265-6c6179732073,rev?*
G04 #@! TF.SameCoordinates,Original*
G04 #@! TF.FileFunction,Soldermask,Top*
G04 #@! TF.FilePolarity,Negative*
%FSLAX46Y46*%
G04 Gerber Fmt 4.6, Leading zero omitted, Abs format (unit mm)*
G04 Created by KiCad (PCBNEW (5.1.4)-1) date 2020-01-12 19:46:33*
%MOMM*%
%LPD*%
G04 APERTURE LIST*
%ADD10C,0.100000*%
G04 APERTURE END LIST*
D10*
G36*
X7777077Y-56705826D02*
G01*
X8042410Y-56758604D01*
X8324674Y-56875521D01*
X8578705Y-57045259D01*
X8794741Y-57261295D01*
X8964479Y-57515326D01*
X9081396Y-57797590D01*
X9141000Y-58097240D01*
X9141000Y-58402760D01*
X9081396Y-58702410D01*
X8964479Y-58984674D01*
X8794741Y-59238705D01*
X8578705Y-59454741D01*
X8324674Y-59624479D01*
X8042410Y-59741396D01*
X7892585Y-59771198D01*
X7742761Y-59801000D01*
X7437239Y-59801000D01*
X7287415Y-59771198D01*
X7137590Y-59741396D01*
X6855326Y-59624479D01*
X6601295Y-59454741D01*
X6385259Y-59238705D01*
X6215521Y-58984674D01*
X6098604Y-58702410D01*
X6039000Y-58402760D01*
X6039000Y-58097240D01*
X6098604Y-57797590D01*
X6215521Y-57515326D01*
X6385259Y-57261295D01*
X6601295Y-57045259D01*
X6855326Y-56875521D01*
X7137590Y-56758604D01*
X7402923Y-56705826D01*
X7437239Y-56699000D01*
X7742761Y-56699000D01*
X7777077Y-56705826D01*
X7777077Y-56705826D01*
G37*
G36*
X12857077Y-56705826D02*
G01*
X13122410Y-56758604D01*
X13404674Y-56875521D01*
X13658705Y-57045259D01*
X13874741Y-57261295D01*
X14044479Y-57515326D01*
X14161396Y-57797590D01*
X14221000Y-58097240D01*
X14221000Y-58402760D01*
X14161396Y-58702410D01*
X14044479Y-58984674D01*
X13874741Y-59238705D01*
X13658705Y-59454741D01*
X13404674Y-59624479D01*
X13122410Y-59741396D01*
X12972585Y-59771198D01*
X12822761Y-59801000D01*
X12517239Y-59801000D01*
X12367415Y-59771198D01*
X12217590Y-59741396D01*
X11935326Y-59624479D01*
X11681295Y-59454741D01*
X11465259Y-59238705D01*
X11295521Y-58984674D01*
X11178604Y-58702410D01*
X11119000Y-58402760D01*
X11119000Y-58097240D01*
X11178604Y-57797590D01*
X11295521Y-57515326D01*
X11465259Y-57261295D01*
X11681295Y-57045259D01*
X11935326Y-56875521D01*
X12217590Y-56758604D01*
X12482923Y-56705826D01*
X12517239Y-56699000D01*
X12822761Y-56699000D01*
X12857077Y-56705826D01*
X12857077Y-56705826D01*
G37*
G36*
X19301000Y-59801000D02*
G01*
X16199000Y-59801000D01*
X16199000Y-56699000D01*
X19301000Y-56699000D01*
X19301000Y-59801000D01*
X19301000Y-59801000D01*
G37*
G36*
X81768604Y-57728347D02*
G01*
X81805144Y-57739432D01*
X81838821Y-57757433D01*
X81868341Y-57781659D01*
X81892567Y-57811179D01*
X81910568Y-57844856D01*
X81921653Y-57881396D01*
X81926000Y-57925538D01*
X81926000Y-58874462D01*
X81921653Y-58918604D01*
X81910568Y-58955144D01*
X81892567Y-58988821D01*
X81868341Y-59018341D01*
X81838821Y-59042567D01*
X81805144Y-59060568D01*
X81768604Y-59071653D01*
X81724462Y-59076000D01*
X80275538Y-59076000D01*
X80231396Y-59071653D01*
X80194856Y-59060568D01*
X80161179Y-59042567D01*
X80131659Y-59018341D01*
X80107433Y-58988821D01*
X80089432Y-58955144D01*
X80078347Y-58918604D01*
X80074000Y-58874462D01*
X80074000Y-57925538D01*
X80078347Y-57881396D01*
X80089432Y-57844856D01*
X80107433Y-57811179D01*
X80131659Y-57781659D01*
X80161179Y-57757433D01*
X80194856Y-57739432D01*
X80231396Y-57728347D01*
X80275538Y-57724000D01*
X81724462Y-57724000D01*
X81768604Y-57728347D01*
X81768604Y-57728347D01*
G37*
G36*
X71768604Y-57728347D02*
G01*
X71805144Y-57739432D01*
X71838821Y-57757433D01*
X71868341Y-57781659D01*
X71892567Y-57811179D01*
X71910568Y-57844856D01*
X71921653Y-57881396D01*
X71926000Y-57925538D01*
X71926000Y-58874462D01*
X71921653Y-58918604D01*
X71910568Y-58955144D01*
X71892567Y-58988821D01*
X71868341Y-59018341D01*
X71838821Y-59042567D01*
X71805144Y-59060568D01*
X71768604Y-59071653D01*
X71724462Y-59076000D01*
X70275538Y-59076000D01*
X70231396Y-59071653D01*
X70194856Y-59060568D01*
X70161179Y-59042567D01*
X70131659Y-59018341D01*
X70107433Y-58988821D01*
X70089432Y-58955144D01*
X70078347Y-58918604D01*
X70074000Y-58874462D01*
X70074000Y-57925538D01*
X70078347Y-57881396D01*
X70089432Y-57844856D01*
X70107433Y-57811179D01*
X70131659Y-57781659D01*
X70161179Y-57757433D01*
X70194856Y-57739432D01*
X70231396Y-57728347D01*
X70275538Y-57724000D01*
X71724462Y-57724000D01*
X71768604Y-57728347D01*
X71768604Y-57728347D01*
G37*
G36*
X76768604Y-57728347D02*
G01*
X76805144Y-57739432D01*
X76838821Y-57757433D01*
X76868341Y-57781659D01*
X76892567Y-57811179D01*
X76910568Y-57844856D01*
X76921653Y-57881396D01*
X76926000Y-57925538D01*
X76926000Y-58874462D01*
X76921653Y-58918604D01*
X76910568Y-58955144D01*
X76892567Y-58988821D01*
X76868341Y-59018341D01*
X76838821Y-59042567D01*
X76805144Y-59060568D01*
X76768604Y-59071653D01*
X76724462Y-59076000D01*
X75275538Y-59076000D01*
X75231396Y-59071653D01*
X75194856Y-59060568D01*
X75161179Y-59042567D01*
X75131659Y-59018341D01*
X75107433Y-58988821D01*
X75089432Y-58955144D01*
X75078347Y-58918604D01*
X75074000Y-58874462D01*
X75074000Y-57925538D01*
X75078347Y-57881396D01*
X75089432Y-57844856D01*
X75107433Y-57811179D01*
X75131659Y-57781659D01*
X75161179Y-57757433D01*
X75194856Y-57739432D01*
X75231396Y-57728347D01*
X75275538Y-57724000D01*
X76724462Y-57724000D01*
X76768604Y-57728347D01*
X76768604Y-57728347D01*
G37*
G36*
X23818604Y-54978347D02*
G01*
X23855144Y-54989432D01*
X23888821Y-55007433D01*
X23918341Y-55031659D01*
X23942567Y-55061179D01*
X23960568Y-55094856D01*
X23971653Y-55131396D01*
X23976000Y-55175538D01*
X23976000Y-56624462D01*
X23971653Y-56668604D01*
X23960568Y-56705144D01*
X23942567Y-56738821D01*
X23918341Y-56768341D01*
X23888821Y-56792567D01*
X23855144Y-56810568D01*
X23818604Y-56821653D01*
X23774462Y-56826000D01*
X22825538Y-56826000D01*
X22781396Y-56821653D01*
X22744856Y-56810568D01*
X22711179Y-56792567D01*
X22681659Y-56768341D01*
X22657433Y-56738821D01*
X22639432Y-56705144D01*
X22628347Y-56668604D01*
X22624000Y-56624462D01*
X22624000Y-55175538D01*
X22628347Y-55131396D01*
X22639432Y-55094856D01*
X22657433Y-55061179D01*
X22681659Y-55031659D01*
X22711179Y-55007433D01*
X22744856Y-54989432D01*
X22781396Y-54978347D01*
X22825538Y-54974000D01*
X23774462Y-54974000D01*
X23818604Y-54978347D01*
X23818604Y-54978347D01*
G37*
G36*
X26618604Y-54978347D02*
G01*
X26655144Y-54989432D01*
X26688821Y-55007433D01*
X26718341Y-55031659D01*
X26742567Y-55061179D01*
X26760568Y-55094856D01*
X26771653Y-55131396D01*
X26776000Y-55175538D01*
X26776000Y-56624462D01*
X26771653Y-56668604D01*
X26760568Y-56705144D01*
X26742567Y-56738821D01*
X26718341Y-56768341D01*
X26688821Y-56792567D01*
X26655144Y-56810568D01*
X26618604Y-56821653D01*
X26574462Y-56826000D01*
X25625538Y-56826000D01*
X25581396Y-56821653D01*
X25544856Y-56810568D01*
X25511179Y-56792567D01*
X25481659Y-56768341D01*
X25457433Y-56738821D01*
X25439432Y-56705144D01*
X25428347Y-56668604D01*
X25424000Y-56624462D01*
X25424000Y-55175538D01*
X25428347Y-55131396D01*
X25439432Y-55094856D01*
X25457433Y-55061179D01*
X25481659Y-55031659D01*
X25511179Y-55007433D01*
X25544856Y-54989432D01*
X25581396Y-54978347D01*
X25625538Y-54974000D01*
X26574462Y-54974000D01*
X26618604Y-54978347D01*
X26618604Y-54978347D01*
G37*
G36*
X31763674Y-55153465D02*
G01*
X31801367Y-55164899D01*
X31836103Y-55183466D01*
X31866548Y-55208452D01*
X31891534Y-55238897D01*
X31910101Y-55273633D01*
X31921535Y-55311326D01*
X31926000Y-55356661D01*
X31926000Y-56443339D01*
X31921535Y-56488674D01*
X31910101Y-56526367D01*
X31891534Y-56561103D01*
X31866548Y-56591548D01*
X31836103Y-56616534D01*
X31801367Y-56635101D01*
X31763674Y-56646535D01*
X31718339Y-56651000D01*
X30881661Y-56651000D01*
X30836326Y-56646535D01*
X30798633Y-56635101D01*
X30763897Y-56616534D01*
X30733452Y-56591548D01*
X30708466Y-56561103D01*
X30689899Y-56526367D01*
X30678465Y-56488674D01*
X30674000Y-56443339D01*
X30674000Y-55356661D01*
X30678465Y-55311326D01*
X30689899Y-55273633D01*
X30708466Y-55238897D01*
X30733452Y-55208452D01*
X30763897Y-55183466D01*
X30798633Y-55164899D01*
X30836326Y-55153465D01*
X30881661Y-55149000D01*
X31718339Y-55149000D01*
X31763674Y-55153465D01*
X31763674Y-55153465D01*
G37*
G36*
X29713674Y-55153465D02*
G01*
X29751367Y-55164899D01*
X29786103Y-55183466D01*
X29816548Y-55208452D01*
X29841534Y-55238897D01*
X29860101Y-55273633D01*
X29871535Y-55311326D01*
X29876000Y-55356661D01*
X29876000Y-56443339D01*
X29871535Y-56488674D01*
X29860101Y-56526367D01*
X29841534Y-56561103D01*
X29816548Y-56591548D01*
X29786103Y-56616534D01*
X29751367Y-56635101D01*
X29713674Y-56646535D01*
X29668339Y-56651000D01*
X28831661Y-56651000D01*
X28786326Y-56646535D01*
X28748633Y-56635101D01*
X28713897Y-56616534D01*
X28683452Y-56591548D01*
X28658466Y-56561103D01*
X28639899Y-56526367D01*
X28628465Y-56488674D01*
X28624000Y-56443339D01*
X28624000Y-55356661D01*
X28628465Y-55311326D01*
X28639899Y-55273633D01*
X28658466Y-55238897D01*
X28683452Y-55208452D01*
X28713897Y-55183466D01*
X28748633Y-55164899D01*
X28786326Y-55153465D01*
X28831661Y-55149000D01*
X29668339Y-55149000D01*
X29713674Y-55153465D01*
X29713674Y-55153465D01*
G37*
G36*
X81768604Y-54928347D02*
G01*
X81805144Y-54939432D01*
X81838821Y-54957433D01*
X81868341Y-54981659D01*
X81892567Y-55011179D01*
X81910568Y-55044856D01*
X81921653Y-55081396D01*
X81926000Y-55125538D01*
X81926000Y-56074462D01*
X81921653Y-56118604D01*
X81910568Y-56155144D01*
X81892567Y-56188821D01*
X81868341Y-56218341D01*
X81838821Y-56242567D01*
X81805144Y-56260568D01*
X81768604Y-56271653D01*
X81724462Y-56276000D01*
X80275538Y-56276000D01*
X80231396Y-56271653D01*
X80194856Y-56260568D01*
X80161179Y-56242567D01*
X80131659Y-56218341D01*
X80107433Y-56188821D01*
X80089432Y-56155144D01*
X80078347Y-56118604D01*
X80074000Y-56074462D01*
X80074000Y-55125538D01*
X80078347Y-55081396D01*
X80089432Y-55044856D01*
X80107433Y-55011179D01*
X80131659Y-54981659D01*
X80161179Y-54957433D01*
X80194856Y-54939432D01*
X80231396Y-54928347D01*
X80275538Y-54924000D01*
X81724462Y-54924000D01*
X81768604Y-54928347D01*
X81768604Y-54928347D01*
G37*
G36*
X76768604Y-54928347D02*
G01*
X76805144Y-54939432D01*
X76838821Y-54957433D01*
X76868341Y-54981659D01*
X76892567Y-55011179D01*
X76910568Y-55044856D01*
X76921653Y-55081396D01*
X76926000Y-55125538D01*
X76926000Y-56074462D01*
X76921653Y-56118604D01*
X76910568Y-56155144D01*
X76892567Y-56188821D01*
X76868341Y-56218341D01*
X76838821Y-56242567D01*
X76805144Y-56260568D01*
X76768604Y-56271653D01*
X76724462Y-56276000D01*
X75275538Y-56276000D01*
X75231396Y-56271653D01*
X75194856Y-56260568D01*
X75161179Y-56242567D01*
X75131659Y-56218341D01*
X75107433Y-56188821D01*
X75089432Y-56155144D01*
X75078347Y-56118604D01*
X75074000Y-56074462D01*
X75074000Y-55125538D01*
X75078347Y-55081396D01*
X75089432Y-55044856D01*
X75107433Y-55011179D01*
X75131659Y-54981659D01*
X75161179Y-54957433D01*
X75194856Y-54939432D01*
X75231396Y-54928347D01*
X75275538Y-54924000D01*
X76724462Y-54924000D01*
X76768604Y-54928347D01*
X76768604Y-54928347D01*
G37*
G36*
X71768604Y-54928347D02*
G01*
X71805144Y-54939432D01*
X71838821Y-54957433D01*
X71868341Y-54981659D01*
X71892567Y-55011179D01*
X71910568Y-55044856D01*
X71921653Y-55081396D01*
X71926000Y-55125538D01*
X71926000Y-56074462D01*
X71921653Y-56118604D01*
X71910568Y-56155144D01*
X71892567Y-56188821D01*
X71868341Y-56218341D01*
X71838821Y-56242567D01*
X71805144Y-56260568D01*
X71768604Y-56271653D01*
X71724462Y-56276000D01*
X70275538Y-56276000D01*
X70231396Y-56271653D01*
X70194856Y-56260568D01*
X70161179Y-56242567D01*
X70131659Y-56218341D01*
X70107433Y-56188821D01*
X70089432Y-56155144D01*
X70078347Y-56118604D01*
X70074000Y-56074462D01*
X70074000Y-55125538D01*
X70078347Y-55081396D01*
X70089432Y-55044856D01*
X70107433Y-55011179D01*
X70131659Y-54981659D01*
X70161179Y-54957433D01*
X70194856Y-54939432D01*
X70231396Y-54928347D01*
X70275538Y-54924000D01*
X71724462Y-54924000D01*
X71768604Y-54928347D01*
X71768604Y-54928347D01*
G37*
G36*
X92414600Y-55914600D02*
G01*
X90585400Y-55914600D01*
X90585400Y-54085400D01*
X92414600Y-54085400D01*
X92414600Y-55914600D01*
X92414600Y-55914600D01*
G37*
G36*
X89139294Y-54098633D02*
G01*
X89311695Y-54150931D01*
X89470583Y-54235858D01*
X89609849Y-54350151D01*
X89724142Y-54489417D01*
X89809069Y-54648305D01*
X89861367Y-54820706D01*
X89879025Y-55000000D01*
X89861367Y-55179294D01*
X89809069Y-55351695D01*
X89724142Y-55510583D01*
X89609849Y-55649849D01*
X89470583Y-55764142D01*
X89311695Y-55849069D01*
X89139294Y-55901367D01*
X89004931Y-55914600D01*
X88915069Y-55914600D01*
X88780706Y-55901367D01*
X88608305Y-55849069D01*
X88449417Y-55764142D01*
X88310151Y-55649849D01*
X88195858Y-55510583D01*
X88110931Y-55351695D01*
X88058633Y-55179294D01*
X88040975Y-55000000D01*
X88058633Y-54820706D01*
X88110931Y-54648305D01*
X88195858Y-54489417D01*
X88310151Y-54350151D01*
X88449417Y-54235858D01*
X88608305Y-54150931D01*
X88780706Y-54098633D01*
X88915069Y-54085400D01*
X89004931Y-54085400D01*
X89139294Y-54098633D01*
X89139294Y-54098633D01*
G37*
G36*
X84588674Y-52403465D02*
G01*
X84626367Y-52414899D01*
X84661103Y-52433466D01*
X84691548Y-52458452D01*
X84716534Y-52488897D01*
X84735101Y-52523633D01*
X84746535Y-52561326D01*
X84751000Y-52606661D01*
X84751000Y-53443339D01*
X84746535Y-53488674D01*
X84735101Y-53526367D01*
X84716534Y-53561103D01*
X84691548Y-53591548D01*
X84661103Y-53616534D01*
X84626367Y-53635101D01*
X84588674Y-53646535D01*
X84543339Y-53651000D01*
X83456661Y-53651000D01*
X83411326Y-53646535D01*
X83373633Y-53635101D01*
X83338897Y-53616534D01*
X83308452Y-53591548D01*
X83283466Y-53561103D01*
X83264899Y-53526367D01*
X83253465Y-53488674D01*
X83249000Y-53443339D01*
X83249000Y-52606661D01*
X83253465Y-52561326D01*
X83264899Y-52523633D01*
X83283466Y-52488897D01*
X83308452Y-52458452D01*
X83338897Y-52433466D01*
X83373633Y-52414899D01*
X83411326Y-52403465D01*
X83456661Y-52399000D01*
X84543339Y-52399000D01*
X84588674Y-52403465D01*
X84588674Y-52403465D01*
G37*
G36*
X71588674Y-52403465D02*
G01*
X71626367Y-52414899D01*
X71661103Y-52433466D01*
X71691548Y-52458452D01*
X71716534Y-52488897D01*
X71735101Y-52523633D01*
X71746535Y-52561326D01*
X71751000Y-52606661D01*
X71751000Y-53443339D01*
X71746535Y-53488674D01*
X71735101Y-53526367D01*
X71716534Y-53561103D01*
X71691548Y-53591548D01*
X71661103Y-53616534D01*
X71626367Y-53635101D01*
X71588674Y-53646535D01*
X71543339Y-53651000D01*
X70456661Y-53651000D01*
X70411326Y-53646535D01*
X70373633Y-53635101D01*
X70338897Y-53616534D01*
X70308452Y-53591548D01*
X70283466Y-53561103D01*
X70264899Y-53526367D01*
X70253465Y-53488674D01*
X70249000Y-53443339D01*
X70249000Y-52606661D01*
X70253465Y-52561326D01*
X70264899Y-52523633D01*
X70283466Y-52488897D01*
X70308452Y-52458452D01*
X70338897Y-52433466D01*
X70373633Y-52414899D01*
X70411326Y-52403465D01*
X70456661Y-52399000D01*
X71543339Y-52399000D01*
X71588674Y-52403465D01*
X71588674Y-52403465D01*
G37*
G36*
X76588674Y-52378465D02*
G01*
X76626367Y-52389899D01*
X76661103Y-52408466D01*
X76691548Y-52433452D01*
X76716534Y-52463897D01*
X76735101Y-52498633D01*
X76746535Y-52536326D01*
X76751000Y-52581661D01*
X76751000Y-53418339D01*
X76746535Y-53463674D01*
X76735101Y-53501367D01*
X76716534Y-53536103D01*
X76691548Y-53566548D01*
X76661103Y-53591534D01*
X76626367Y-53610101D01*
X76588674Y-53621535D01*
X76543339Y-53626000D01*
X75456661Y-53626000D01*
X75411326Y-53621535D01*
X75373633Y-53610101D01*
X75338897Y-53591534D01*
X75308452Y-53566548D01*
X75283466Y-53536103D01*
X75264899Y-53501367D01*
X75253465Y-53463674D01*
X75249000Y-53418339D01*
X75249000Y-52581661D01*
X75253465Y-52536326D01*
X75264899Y-52498633D01*
X75283466Y-52463897D01*
X75308452Y-52433452D01*
X75338897Y-52408466D01*
X75373633Y-52389899D01*
X75411326Y-52378465D01*
X75456661Y-52374000D01*
X76543339Y-52374000D01*
X76588674Y-52378465D01*
X76588674Y-52378465D01*
G37*
G36*
X81301000Y-53401000D02*
G01*
X80699000Y-53401000D01*
X80699000Y-52799000D01*
X81301000Y-52799000D01*
X81301000Y-53401000D01*
X81301000Y-53401000D01*
G37*
G36*
X89139294Y-51558633D02*
G01*
X89311695Y-51610931D01*
X89470583Y-51695858D01*
X89609849Y-51810151D01*
X89724142Y-51949417D01*
X89809069Y-52108305D01*
X89861367Y-52280706D01*
X89879025Y-52460000D01*
X89861367Y-52639294D01*
X89809069Y-52811695D01*
X89724142Y-52970583D01*
X89609849Y-53109849D01*
X89470583Y-53224142D01*
X89311695Y-53309069D01*
X89139294Y-53361367D01*
X89004931Y-53374600D01*
X88915069Y-53374600D01*
X88780706Y-53361367D01*
X88608305Y-53309069D01*
X88449417Y-53224142D01*
X88310151Y-53109849D01*
X88195858Y-52970583D01*
X88110931Y-52811695D01*
X88058633Y-52639294D01*
X88040975Y-52460000D01*
X88058633Y-52280706D01*
X88110931Y-52108305D01*
X88195858Y-51949417D01*
X88310151Y-51810151D01*
X88449417Y-51695858D01*
X88608305Y-51610931D01*
X88780706Y-51558633D01*
X88915069Y-51545400D01*
X89004931Y-51545400D01*
X89139294Y-51558633D01*
X89139294Y-51558633D01*
G37*
G36*
X91679294Y-51558633D02*
G01*
X91851695Y-51610931D01*
X92010583Y-51695858D01*
X92149849Y-51810151D01*
X92264142Y-51949417D01*
X92349069Y-52108305D01*
X92401367Y-52280706D01*
X92419025Y-52460000D01*
X92401367Y-52639294D01*
X92349069Y-52811695D01*
X92264142Y-52970583D01*
X92149849Y-53109849D01*
X92010583Y-53224142D01*
X91851695Y-53309069D01*
X91679294Y-53361367D01*
X91544931Y-53374600D01*
X91455069Y-53374600D01*
X91320706Y-53361367D01*
X91148305Y-53309069D01*
X90989417Y-53224142D01*
X90850151Y-53109849D01*
X90735858Y-52970583D01*
X90650931Y-52811695D01*
X90598633Y-52639294D01*
X90580975Y-52460000D01*
X90598633Y-52280706D01*
X90650931Y-52108305D01*
X90735858Y-51949417D01*
X90850151Y-51810151D01*
X90989417Y-51695858D01*
X91148305Y-51610931D01*
X91320706Y-51558633D01*
X91455069Y-51545400D01*
X91544931Y-51545400D01*
X91679294Y-51558633D01*
X91679294Y-51558633D01*
G37*
G36*
X25983377Y-45863075D02*
G01*
X25983380Y-45863076D01*
X25983381Y-45863076D01*
X26297028Y-45958220D01*
X26586086Y-46112724D01*
X26652086Y-46166889D01*
X26839448Y-46320652D01*
X26993211Y-46508014D01*
X27047376Y-46574014D01*
X27201880Y-46863072D01*
X27297024Y-47176719D01*
X27297025Y-47176723D01*
X27321100Y-47421163D01*
X27321100Y-50810437D01*
X27297025Y-51054877D01*
X27297024Y-51054880D01*
X27297024Y-51054881D01*
X27201880Y-51368528D01*
X27201878Y-51368531D01*
X27201878Y-51368532D01*
X27180791Y-51407983D01*
X27047376Y-51657586D01*
X27015967Y-51695858D01*
X26839448Y-51910948D01*
X26652084Y-52064712D01*
X26586085Y-52118876D01*
X26297027Y-52273380D01*
X25983380Y-52368524D01*
X25983379Y-52368524D01*
X25983376Y-52368525D01*
X25657200Y-52400650D01*
X25331023Y-52368525D01*
X25331020Y-52368524D01*
X25331019Y-52368524D01*
X25017372Y-52273380D01*
X24728314Y-52118876D01*
X24662314Y-52064711D01*
X24474952Y-51910948D01*
X24267025Y-51657586D01*
X24267024Y-51657585D01*
X24194169Y-51521282D01*
X24112522Y-51368531D01*
X24112521Y-51368528D01*
X24112520Y-51368527D01*
X24017376Y-51054880D01*
X24017376Y-51054879D01*
X24017375Y-51054876D01*
X23993300Y-50810436D01*
X23993301Y-47421163D01*
X24017376Y-47176723D01*
X24017377Y-47176719D01*
X24112521Y-46863072D01*
X24267025Y-46574014D01*
X24321190Y-46508014D01*
X24474953Y-46320652D01*
X24662315Y-46166889D01*
X24728315Y-46112724D01*
X25017373Y-45958220D01*
X25331020Y-45863076D01*
X25331021Y-45863076D01*
X25331024Y-45863075D01*
X25657200Y-45830950D01*
X25983377Y-45863075D01*
X25983377Y-45863075D01*
G37*
G36*
X84588674Y-50353465D02*
G01*
X84626367Y-50364899D01*
X84661103Y-50383466D01*
X84691548Y-50408452D01*
X84716534Y-50438897D01*
X84735101Y-50473633D01*
X84746535Y-50511326D01*
X84751000Y-50556661D01*
X84751000Y-51393339D01*
X84746535Y-51438674D01*
X84735101Y-51476367D01*
X84716534Y-51511103D01*
X84691548Y-51541548D01*
X84661103Y-51566534D01*
X84626367Y-51585101D01*
X84588674Y-51596535D01*
X84543339Y-51601000D01*
X83456661Y-51601000D01*
X83411326Y-51596535D01*
X83373633Y-51585101D01*
X83338897Y-51566534D01*
X83308452Y-51541548D01*
X83283466Y-51511103D01*
X83264899Y-51476367D01*
X83253465Y-51438674D01*
X83249000Y-51393339D01*
X83249000Y-50556661D01*
X83253465Y-50511326D01*
X83264899Y-50473633D01*
X83283466Y-50438897D01*
X83308452Y-50408452D01*
X83338897Y-50383466D01*
X83373633Y-50364899D01*
X83411326Y-50353465D01*
X83456661Y-50349000D01*
X84543339Y-50349000D01*
X84588674Y-50353465D01*
X84588674Y-50353465D01*
G37*
G36*
X71588674Y-50353465D02*
G01*
X71626367Y-50364899D01*
X71661103Y-50383466D01*
X71691548Y-50408452D01*
X71716534Y-50438897D01*
X71735101Y-50473633D01*
X71746535Y-50511326D01*
X71751000Y-50556661D01*
X71751000Y-51393339D01*
X71746535Y-51438674D01*
X71735101Y-51476367D01*
X71716534Y-51511103D01*
X71691548Y-51541548D01*
X71661103Y-51566534D01*
X71626367Y-51585101D01*
X71588674Y-51596535D01*
X71543339Y-51601000D01*
X70456661Y-51601000D01*
X70411326Y-51596535D01*
X70373633Y-51585101D01*
X70338897Y-51566534D01*
X70308452Y-51541548D01*
X70283466Y-51511103D01*
X70264899Y-51476367D01*
X70253465Y-51438674D01*
X70249000Y-51393339D01*
X70249000Y-50556661D01*
X70253465Y-50511326D01*
X70264899Y-50473633D01*
X70283466Y-50438897D01*
X70308452Y-50408452D01*
X70338897Y-50383466D01*
X70373633Y-50364899D01*
X70411326Y-50353465D01*
X70456661Y-50349000D01*
X71543339Y-50349000D01*
X71588674Y-50353465D01*
X71588674Y-50353465D01*
G37*
G36*
X76588674Y-50328465D02*
G01*
X76626367Y-50339899D01*
X76661103Y-50358466D01*
X76691548Y-50383452D01*
X76716534Y-50413897D01*
X76735101Y-50448633D01*
X76746535Y-50486326D01*
X76751000Y-50531661D01*
X76751000Y-51368339D01*
X76746535Y-51413674D01*
X76735101Y-51451367D01*
X76716534Y-51486103D01*
X76691548Y-51516548D01*
X76661103Y-51541534D01*
X76626367Y-51560101D01*
X76588674Y-51571535D01*
X76543339Y-51576000D01*
X75456661Y-51576000D01*
X75411326Y-51571535D01*
X75373633Y-51560101D01*
X75338897Y-51541534D01*
X75308452Y-51516548D01*
X75283466Y-51486103D01*
X75264899Y-51451367D01*
X75253465Y-51413674D01*
X75249000Y-51368339D01*
X75249000Y-50531661D01*
X75253465Y-50486326D01*
X75264899Y-50448633D01*
X75283466Y-50413897D01*
X75308452Y-50383452D01*
X75338897Y-50358466D01*
X75373633Y-50339899D01*
X75411326Y-50328465D01*
X75456661Y-50324000D01*
X76543339Y-50324000D01*
X76588674Y-50328465D01*
X76588674Y-50328465D01*
G37*
G36*
X39501000Y-51401000D02*
G01*
X38499000Y-51401000D01*
X38499000Y-50499000D01*
X39501000Y-50499000D01*
X39501000Y-51401000D01*
X39501000Y-51401000D01*
G37*
G36*
X81301000Y-51201000D02*
G01*
X80699000Y-51201000D01*
X80699000Y-50599000D01*
X81301000Y-50599000D01*
X81301000Y-51201000D01*
X81301000Y-51201000D01*
G37*
G36*
X89139294Y-49018633D02*
G01*
X89311695Y-49070931D01*
X89470583Y-49155858D01*
X89609849Y-49270151D01*
X89724142Y-49409417D01*
X89809069Y-49568305D01*
X89861367Y-49740706D01*
X89879025Y-49920000D01*
X89861367Y-50099294D01*
X89809069Y-50271695D01*
X89724142Y-50430583D01*
X89609849Y-50569849D01*
X89470583Y-50684142D01*
X89311695Y-50769069D01*
X89139294Y-50821367D01*
X89004931Y-50834600D01*
X88915069Y-50834600D01*
X88780706Y-50821367D01*
X88608305Y-50769069D01*
X88449417Y-50684142D01*
X88310151Y-50569849D01*
X88195858Y-50430583D01*
X88110931Y-50271695D01*
X88058633Y-50099294D01*
X88040975Y-49920000D01*
X88058633Y-49740706D01*
X88110931Y-49568305D01*
X88195858Y-49409417D01*
X88310151Y-49270151D01*
X88449417Y-49155858D01*
X88608305Y-49070931D01*
X88780706Y-49018633D01*
X88915069Y-49005400D01*
X89004931Y-49005400D01*
X89139294Y-49018633D01*
X89139294Y-49018633D01*
G37*
G36*
X91679294Y-49018633D02*
G01*
X91851695Y-49070931D01*
X92010583Y-49155858D01*
X92149849Y-49270151D01*
X92264142Y-49409417D01*
X92349069Y-49568305D01*
X92401367Y-49740706D01*
X92419025Y-49920000D01*
X92401367Y-50099294D01*
X92349069Y-50271695D01*
X92264142Y-50430583D01*
X92149849Y-50569849D01*
X92010583Y-50684142D01*
X91851695Y-50769069D01*
X91679294Y-50821367D01*
X91544931Y-50834600D01*
X91455069Y-50834600D01*
X91320706Y-50821367D01*
X91148305Y-50769069D01*
X90989417Y-50684142D01*
X90850151Y-50569849D01*
X90735858Y-50430583D01*
X90650931Y-50271695D01*
X90598633Y-50099294D01*
X90580975Y-49920000D01*
X90598633Y-49740706D01*
X90650931Y-49568305D01*
X90735858Y-49409417D01*
X90850151Y-49270151D01*
X90989417Y-49155858D01*
X91148305Y-49070931D01*
X91320706Y-49018633D01*
X91455069Y-49005400D01*
X91544931Y-49005400D01*
X91679294Y-49018633D01*
X91679294Y-49018633D01*
G37*
G36*
X45768604Y-49328347D02*
G01*
X45805144Y-49339432D01*
X45838821Y-49357433D01*
X45868341Y-49381659D01*
X45892567Y-49411179D01*
X45910568Y-49444856D01*
X45921653Y-49481396D01*
X45926000Y-49525538D01*
X45926000Y-50474462D01*
X45921653Y-50518604D01*
X45910568Y-50555144D01*
X45892567Y-50588821D01*
X45868341Y-50618341D01*
X45838821Y-50642567D01*
X45805144Y-50660568D01*
X45768604Y-50671653D01*
X45724462Y-50676000D01*
X44275538Y-50676000D01*
X44231396Y-50671653D01*
X44194856Y-50660568D01*
X44161179Y-50642567D01*
X44131659Y-50618341D01*
X44107433Y-50588821D01*
X44089432Y-50555144D01*
X44078347Y-50518604D01*
X44074000Y-50474462D01*
X44074000Y-49525538D01*
X44078347Y-49481396D01*
X44089432Y-49444856D01*
X44107433Y-49411179D01*
X44131659Y-49381659D01*
X44161179Y-49357433D01*
X44194856Y-49339432D01*
X44231396Y-49328347D01*
X44275538Y-49324000D01*
X45724462Y-49324000D01*
X45768604Y-49328347D01*
X45768604Y-49328347D01*
G37*
G36*
X67588674Y-49403465D02*
G01*
X67626367Y-49414899D01*
X67661103Y-49433466D01*
X67691548Y-49458452D01*
X67716534Y-49488897D01*
X67735101Y-49523633D01*
X67746535Y-49561326D01*
X67751000Y-49606661D01*
X67751000Y-50443339D01*
X67746535Y-50488674D01*
X67735101Y-50526367D01*
X67716534Y-50561103D01*
X67691548Y-50591548D01*
X67661103Y-50616534D01*
X67626367Y-50635101D01*
X67588674Y-50646535D01*
X67543339Y-50651000D01*
X66456661Y-50651000D01*
X66411326Y-50646535D01*
X66373633Y-50635101D01*
X66338897Y-50616534D01*
X66308452Y-50591548D01*
X66283466Y-50561103D01*
X66264899Y-50526367D01*
X66253465Y-50488674D01*
X66249000Y-50443339D01*
X66249000Y-49606661D01*
X66253465Y-49561326D01*
X66264899Y-49523633D01*
X66283466Y-49488897D01*
X66308452Y-49458452D01*
X66338897Y-49433466D01*
X66373633Y-49414899D01*
X66411326Y-49403465D01*
X66456661Y-49399000D01*
X67543339Y-49399000D01*
X67588674Y-49403465D01*
X67588674Y-49403465D01*
G37*
G36*
X37501000Y-50451000D02*
G01*
X36499000Y-50451000D01*
X36499000Y-49549000D01*
X37501000Y-49549000D01*
X37501000Y-50451000D01*
X37501000Y-50451000D01*
G37*
G36*
X18845977Y-43754875D02*
G01*
X18845980Y-43754876D01*
X18845981Y-43754876D01*
X19159628Y-43850020D01*
X19448686Y-44004524D01*
X19514686Y-44058689D01*
X19702048Y-44212452D01*
X19855811Y-44399814D01*
X19909976Y-44465814D01*
X20064480Y-44754872D01*
X20159624Y-45068519D01*
X20159625Y-45068523D01*
X20183700Y-45312963D01*
X20183700Y-48702237D01*
X20159625Y-48946677D01*
X20159624Y-48946680D01*
X20159624Y-48946681D01*
X20064480Y-49260328D01*
X20064478Y-49260331D01*
X20064478Y-49260332D01*
X20022198Y-49339432D01*
X19909976Y-49549386D01*
X19877733Y-49588674D01*
X19702048Y-49802748D01*
X19559174Y-49920000D01*
X19448685Y-50010676D01*
X19448683Y-50010677D01*
X19282894Y-50099293D01*
X19159627Y-50165180D01*
X18845980Y-50260324D01*
X18845979Y-50260324D01*
X18845976Y-50260325D01*
X18519800Y-50292450D01*
X18193623Y-50260325D01*
X18193620Y-50260324D01*
X18193619Y-50260324D01*
X17879972Y-50165180D01*
X17756706Y-50099293D01*
X17590916Y-50010677D01*
X17590914Y-50010676D01*
X17524914Y-49956511D01*
X17337552Y-49802748D01*
X17161868Y-49588674D01*
X17129624Y-49549385D01*
X17027024Y-49357433D01*
X16975122Y-49260331D01*
X16975121Y-49260328D01*
X16975120Y-49260327D01*
X16879976Y-48946680D01*
X16879976Y-48946679D01*
X16879975Y-48946676D01*
X16855900Y-48702236D01*
X16855901Y-45312963D01*
X16879976Y-45068523D01*
X16879977Y-45068519D01*
X16975121Y-44754872D01*
X17129625Y-44465814D01*
X17183790Y-44399814D01*
X17337553Y-44212452D01*
X17524915Y-44058689D01*
X17590915Y-44004524D01*
X17879973Y-43850020D01*
X18193620Y-43754876D01*
X18193621Y-43754876D01*
X18193624Y-43754875D01*
X18519800Y-43722750D01*
X18845977Y-43754875D01*
X18845977Y-43754875D01*
G37*
G36*
X12826177Y-43754875D02*
G01*
X12826180Y-43754876D01*
X12826181Y-43754876D01*
X13139828Y-43850020D01*
X13428886Y-44004524D01*
X13494886Y-44058689D01*
X13682248Y-44212452D01*
X13836011Y-44399814D01*
X13890176Y-44465814D01*
X14044680Y-44754872D01*
X14139824Y-45068519D01*
X14139825Y-45068523D01*
X14163900Y-45312963D01*
X14163900Y-48702237D01*
X14139825Y-48946677D01*
X14139824Y-48946680D01*
X14139824Y-48946681D01*
X14044680Y-49260328D01*
X14044678Y-49260331D01*
X14044678Y-49260332D01*
X14002398Y-49339432D01*
X13890176Y-49549386D01*
X13857933Y-49588674D01*
X13682248Y-49802748D01*
X13539374Y-49920000D01*
X13428885Y-50010676D01*
X13428883Y-50010677D01*
X13263094Y-50099293D01*
X13139827Y-50165180D01*
X12826180Y-50260324D01*
X12826179Y-50260324D01*
X12826176Y-50260325D01*
X12500000Y-50292450D01*
X12173823Y-50260325D01*
X12173820Y-50260324D01*
X12173819Y-50260324D01*
X11860172Y-50165180D01*
X11736906Y-50099293D01*
X11571116Y-50010677D01*
X11571114Y-50010676D01*
X11505114Y-49956511D01*
X11317752Y-49802748D01*
X11142068Y-49588674D01*
X11109824Y-49549385D01*
X11007224Y-49357433D01*
X10955322Y-49260331D01*
X10955321Y-49260328D01*
X10955320Y-49260327D01*
X10860176Y-48946680D01*
X10860176Y-48946679D01*
X10860175Y-48946676D01*
X10836100Y-48702236D01*
X10836101Y-45312963D01*
X10860176Y-45068523D01*
X10860177Y-45068519D01*
X10955321Y-44754872D01*
X11109825Y-44465814D01*
X11163990Y-44399814D01*
X11317753Y-44212452D01*
X11505115Y-44058689D01*
X11571115Y-44004524D01*
X11860173Y-43850020D01*
X12173820Y-43754876D01*
X12173821Y-43754876D01*
X12173824Y-43754875D01*
X12500000Y-43722750D01*
X12826177Y-43754875D01*
X12826177Y-43754875D01*
G37*
G36*
X8228777Y-43754875D02*
G01*
X8228780Y-43754876D01*
X8228781Y-43754876D01*
X8542428Y-43850020D01*
X8831486Y-44004524D01*
X8897486Y-44058689D01*
X9084848Y-44212452D01*
X9238611Y-44399814D01*
X9292776Y-44465814D01*
X9447280Y-44754872D01*
X9542424Y-45068519D01*
X9542425Y-45068523D01*
X9566500Y-45312963D01*
X9566500Y-48702237D01*
X9542425Y-48946677D01*
X9542424Y-48946680D01*
X9542424Y-48946681D01*
X9447280Y-49260328D01*
X9447278Y-49260331D01*
X9447278Y-49260332D01*
X9404998Y-49339432D01*
X9292776Y-49549386D01*
X9260533Y-49588674D01*
X9084848Y-49802748D01*
X8941974Y-49920000D01*
X8831485Y-50010676D01*
X8831483Y-50010677D01*
X8665694Y-50099293D01*
X8542427Y-50165180D01*
X8228780Y-50260324D01*
X8228779Y-50260324D01*
X8228776Y-50260325D01*
X7902600Y-50292450D01*
X7576423Y-50260325D01*
X7576420Y-50260324D01*
X7576419Y-50260324D01*
X7262772Y-50165180D01*
X7139506Y-50099293D01*
X6973716Y-50010677D01*
X6973714Y-50010676D01*
X6907714Y-49956511D01*
X6720352Y-49802748D01*
X6544668Y-49588674D01*
X6512424Y-49549385D01*
X6409824Y-49357433D01*
X6357922Y-49260331D01*
X6357921Y-49260328D01*
X6357920Y-49260327D01*
X6262776Y-48946680D01*
X6262776Y-48946679D01*
X6262775Y-48946676D01*
X6238700Y-48702236D01*
X6238701Y-45312963D01*
X6262776Y-45068523D01*
X6262777Y-45068519D01*
X6357921Y-44754872D01*
X6512425Y-44465814D01*
X6566590Y-44399814D01*
X6720353Y-44212452D01*
X6907715Y-44058689D01*
X6973715Y-44004524D01*
X7262773Y-43850020D01*
X7576420Y-43754876D01*
X7576421Y-43754876D01*
X7576424Y-43754875D01*
X7902600Y-43722750D01*
X8228777Y-43754875D01*
X8228777Y-43754875D01*
G37*
G36*
X61438674Y-48253465D02*
G01*
X61476367Y-48264899D01*
X61511103Y-48283466D01*
X61541548Y-48308452D01*
X61566534Y-48338897D01*
X61585101Y-48373633D01*
X61596535Y-48411326D01*
X61601000Y-48456661D01*
X61601000Y-49543339D01*
X61596535Y-49588674D01*
X61585101Y-49626367D01*
X61566534Y-49661103D01*
X61541548Y-49691548D01*
X61511103Y-49716534D01*
X61476367Y-49735101D01*
X61438674Y-49746535D01*
X61393339Y-49751000D01*
X60556661Y-49751000D01*
X60511326Y-49746535D01*
X60473633Y-49735101D01*
X60438897Y-49716534D01*
X60408452Y-49691548D01*
X60383466Y-49661103D01*
X60364899Y-49626367D01*
X60353465Y-49588674D01*
X60349000Y-49543339D01*
X60349000Y-48456661D01*
X60353465Y-48411326D01*
X60364899Y-48373633D01*
X60383466Y-48338897D01*
X60408452Y-48308452D01*
X60438897Y-48283466D01*
X60473633Y-48264899D01*
X60511326Y-48253465D01*
X60556661Y-48249000D01*
X61393339Y-48249000D01*
X61438674Y-48253465D01*
X61438674Y-48253465D01*
G37*
G36*
X63488674Y-48253465D02*
G01*
X63526367Y-48264899D01*
X63561103Y-48283466D01*
X63591548Y-48308452D01*
X63616534Y-48338897D01*
X63635101Y-48373633D01*
X63646535Y-48411326D01*
X63651000Y-48456661D01*
X63651000Y-49543339D01*
X63646535Y-49588674D01*
X63635101Y-49626367D01*
X63616534Y-49661103D01*
X63591548Y-49691548D01*
X63561103Y-49716534D01*
X63526367Y-49735101D01*
X63488674Y-49746535D01*
X63443339Y-49751000D01*
X62606661Y-49751000D01*
X62561326Y-49746535D01*
X62523633Y-49735101D01*
X62488897Y-49716534D01*
X62458452Y-49691548D01*
X62433466Y-49661103D01*
X62414899Y-49626367D01*
X62403465Y-49588674D01*
X62399000Y-49543339D01*
X62399000Y-48456661D01*
X62403465Y-48411326D01*
X62414899Y-48373633D01*
X62433466Y-48338897D01*
X62458452Y-48308452D01*
X62488897Y-48283466D01*
X62523633Y-48264899D01*
X62561326Y-48253465D01*
X62606661Y-48249000D01*
X63443339Y-48249000D01*
X63488674Y-48253465D01*
X63488674Y-48253465D01*
G37*
G36*
X39501000Y-49501000D02*
G01*
X38499000Y-49501000D01*
X38499000Y-48599000D01*
X39501000Y-48599000D01*
X39501000Y-49501000D01*
X39501000Y-49501000D01*
G37*
G36*
X67588674Y-47353465D02*
G01*
X67626367Y-47364899D01*
X67661103Y-47383466D01*
X67691548Y-47408452D01*
X67716534Y-47438897D01*
X67735101Y-47473633D01*
X67746535Y-47511326D01*
X67751000Y-47556661D01*
X67751000Y-48393339D01*
X67746535Y-48438674D01*
X67735101Y-48476367D01*
X67716534Y-48511103D01*
X67691548Y-48541548D01*
X67661103Y-48566534D01*
X67626367Y-48585101D01*
X67588674Y-48596535D01*
X67543339Y-48601000D01*
X66456661Y-48601000D01*
X66411326Y-48596535D01*
X66373633Y-48585101D01*
X66338897Y-48566534D01*
X66308452Y-48541548D01*
X66283466Y-48511103D01*
X66264899Y-48476367D01*
X66253465Y-48438674D01*
X66249000Y-48393339D01*
X66249000Y-47556661D01*
X66253465Y-47511326D01*
X66264899Y-47473633D01*
X66283466Y-47438897D01*
X66308452Y-47408452D01*
X66338897Y-47383466D01*
X66373633Y-47364899D01*
X66411326Y-47353465D01*
X66456661Y-47349000D01*
X67543339Y-47349000D01*
X67588674Y-47353465D01*
X67588674Y-47353465D01*
G37*
G36*
X45768604Y-46528347D02*
G01*
X45805144Y-46539432D01*
X45838821Y-46557433D01*
X45868341Y-46581659D01*
X45892567Y-46611179D01*
X45910568Y-46644856D01*
X45921653Y-46681396D01*
X45926000Y-46725538D01*
X45926000Y-47674462D01*
X45921653Y-47718604D01*
X45910568Y-47755144D01*
X45892567Y-47788821D01*
X45868341Y-47818341D01*
X45838821Y-47842567D01*
X45805144Y-47860568D01*
X45768604Y-47871653D01*
X45724462Y-47876000D01*
X44275538Y-47876000D01*
X44231396Y-47871653D01*
X44194856Y-47860568D01*
X44161179Y-47842567D01*
X44131659Y-47818341D01*
X44107433Y-47788821D01*
X44089432Y-47755144D01*
X44078347Y-47718604D01*
X44074000Y-47674462D01*
X44074000Y-46725538D01*
X44078347Y-46681396D01*
X44089432Y-46644856D01*
X44107433Y-46611179D01*
X44131659Y-46581659D01*
X44161179Y-46557433D01*
X44194856Y-46539432D01*
X44231396Y-46528347D01*
X44275538Y-46524000D01*
X45724462Y-46524000D01*
X45768604Y-46528347D01*
X45768604Y-46528347D01*
G37*
G36*
X38951000Y-45801000D02*
G01*
X37049000Y-45801000D01*
X37049000Y-42199000D01*
X38951000Y-42199000D01*
X38951000Y-45801000D01*
X38951000Y-45801000D01*
G37*
G36*
X58354928Y-43576764D02*
G01*
X58376009Y-43583160D01*
X58395445Y-43593548D01*
X58412476Y-43607524D01*
X58426452Y-43624555D01*
X58436840Y-43643991D01*
X58443236Y-43665072D01*
X58446000Y-43693140D01*
X58446000Y-45606860D01*
X58443236Y-45634928D01*
X58436840Y-45656009D01*
X58426452Y-45675445D01*
X58412476Y-45692476D01*
X58395445Y-45706452D01*
X58376009Y-45716840D01*
X58354928Y-45723236D01*
X58326860Y-45726000D01*
X57863140Y-45726000D01*
X57835072Y-45723236D01*
X57813991Y-45716840D01*
X57794555Y-45706452D01*
X57777524Y-45692476D01*
X57763548Y-45675445D01*
X57753160Y-45656009D01*
X57746764Y-45634928D01*
X57744000Y-45606860D01*
X57744000Y-43693140D01*
X57746764Y-43665072D01*
X57753160Y-43643991D01*
X57763548Y-43624555D01*
X57777524Y-43607524D01*
X57794555Y-43593548D01*
X57813991Y-43583160D01*
X57835072Y-43576764D01*
X57863140Y-43574000D01*
X58326860Y-43574000D01*
X58354928Y-43576764D01*
X58354928Y-43576764D01*
G37*
G36*
X57084928Y-43576764D02*
G01*
X57106009Y-43583160D01*
X57125445Y-43593548D01*
X57142476Y-43607524D01*
X57156452Y-43624555D01*
X57166840Y-43643991D01*
X57173236Y-43665072D01*
X57176000Y-43693140D01*
X57176000Y-45606860D01*
X57173236Y-45634928D01*
X57166840Y-45656009D01*
X57156452Y-45675445D01*
X57142476Y-45692476D01*
X57125445Y-45706452D01*
X57106009Y-45716840D01*
X57084928Y-45723236D01*
X57056860Y-45726000D01*
X56593140Y-45726000D01*
X56565072Y-45723236D01*
X56543991Y-45716840D01*
X56524555Y-45706452D01*
X56507524Y-45692476D01*
X56493548Y-45675445D01*
X56483160Y-45656009D01*
X56476764Y-45634928D01*
X56474000Y-45606860D01*
X56474000Y-43693140D01*
X56476764Y-43665072D01*
X56483160Y-43643991D01*
X56493548Y-43624555D01*
X56507524Y-43607524D01*
X56524555Y-43593548D01*
X56543991Y-43583160D01*
X56565072Y-43576764D01*
X56593140Y-43574000D01*
X57056860Y-43574000D01*
X57084928Y-43576764D01*
X57084928Y-43576764D01*
G37*
G36*
X55814928Y-43576764D02*
G01*
X55836009Y-43583160D01*
X55855445Y-43593548D01*
X55872476Y-43607524D01*
X55886452Y-43624555D01*
X55896840Y-43643991D01*
X55903236Y-43665072D01*
X55906000Y-43693140D01*
X55906000Y-45606860D01*
X55903236Y-45634928D01*
X55896840Y-45656009D01*
X55886452Y-45675445D01*
X55872476Y-45692476D01*
X55855445Y-45706452D01*
X55836009Y-45716840D01*
X55814928Y-45723236D01*
X55786860Y-45726000D01*
X55323140Y-45726000D01*
X55295072Y-45723236D01*
X55273991Y-45716840D01*
X55254555Y-45706452D01*
X55237524Y-45692476D01*
X55223548Y-45675445D01*
X55213160Y-45656009D01*
X55206764Y-45634928D01*
X55204000Y-45606860D01*
X55204000Y-43693140D01*
X55206764Y-43665072D01*
X55213160Y-43643991D01*
X55223548Y-43624555D01*
X55237524Y-43607524D01*
X55254555Y-43593548D01*
X55273991Y-43583160D01*
X55295072Y-43576764D01*
X55323140Y-43574000D01*
X55786860Y-43574000D01*
X55814928Y-43576764D01*
X55814928Y-43576764D01*
G37*
G36*
X60894928Y-43576764D02*
G01*
X60916009Y-43583160D01*
X60935445Y-43593548D01*
X60952476Y-43607524D01*
X60966452Y-43624555D01*
X60976840Y-43643991D01*
X60983236Y-43665072D01*
X60986000Y-43693140D01*
X60986000Y-45606860D01*
X60983236Y-45634928D01*
X60976840Y-45656009D01*
X60966452Y-45675445D01*
X60952476Y-45692476D01*
X60935445Y-45706452D01*
X60916009Y-45716840D01*
X60894928Y-45723236D01*
X60866860Y-45726000D01*
X60403140Y-45726000D01*
X60375072Y-45723236D01*
X60353991Y-45716840D01*
X60334555Y-45706452D01*
X60317524Y-45692476D01*
X60303548Y-45675445D01*
X60293160Y-45656009D01*
X60286764Y-45634928D01*
X60284000Y-45606860D01*
X60284000Y-43693140D01*
X60286764Y-43665072D01*
X60293160Y-43643991D01*
X60303548Y-43624555D01*
X60317524Y-43607524D01*
X60334555Y-43593548D01*
X60353991Y-43583160D01*
X60375072Y-43576764D01*
X60403140Y-43574000D01*
X60866860Y-43574000D01*
X60894928Y-43576764D01*
X60894928Y-43576764D01*
G37*
G36*
X62164928Y-43576764D02*
G01*
X62186009Y-43583160D01*
X62205445Y-43593548D01*
X62222476Y-43607524D01*
X62236452Y-43624555D01*
X62246840Y-43643991D01*
X62253236Y-43665072D01*
X62256000Y-43693140D01*
X62256000Y-45606860D01*
X62253236Y-45634928D01*
X62246840Y-45656009D01*
X62236452Y-45675445D01*
X62222476Y-45692476D01*
X62205445Y-45706452D01*
X62186009Y-45716840D01*
X62164928Y-45723236D01*
X62136860Y-45726000D01*
X61673140Y-45726000D01*
X61645072Y-45723236D01*
X61623991Y-45716840D01*
X61604555Y-45706452D01*
X61587524Y-45692476D01*
X61573548Y-45675445D01*
X61563160Y-45656009D01*
X61556764Y-45634928D01*
X61554000Y-45606860D01*
X61554000Y-43693140D01*
X61556764Y-43665072D01*
X61563160Y-43643991D01*
X61573548Y-43624555D01*
X61587524Y-43607524D01*
X61604555Y-43593548D01*
X61623991Y-43583160D01*
X61645072Y-43576764D01*
X61673140Y-43574000D01*
X62136860Y-43574000D01*
X62164928Y-43576764D01*
X62164928Y-43576764D01*
G37*
G36*
X63434928Y-43576764D02*
G01*
X63456009Y-43583160D01*
X63475445Y-43593548D01*
X63492476Y-43607524D01*
X63506452Y-43624555D01*
X63516840Y-43643991D01*
X63523236Y-43665072D01*
X63526000Y-43693140D01*
X63526000Y-45606860D01*
X63523236Y-45634928D01*
X63516840Y-45656009D01*
X63506452Y-45675445D01*
X63492476Y-45692476D01*
X63475445Y-45706452D01*
X63456009Y-45716840D01*
X63434928Y-45723236D01*
X63406860Y-45726000D01*
X62943140Y-45726000D01*
X62915072Y-45723236D01*
X62893991Y-45716840D01*
X62874555Y-45706452D01*
X62857524Y-45692476D01*
X62843548Y-45675445D01*
X62833160Y-45656009D01*
X62826764Y-45634928D01*
X62824000Y-45606860D01*
X62824000Y-43693140D01*
X62826764Y-43665072D01*
X62833160Y-43643991D01*
X62843548Y-43624555D01*
X62857524Y-43607524D01*
X62874555Y-43593548D01*
X62893991Y-43583160D01*
X62915072Y-43576764D01*
X62943140Y-43574000D01*
X63406860Y-43574000D01*
X63434928Y-43576764D01*
X63434928Y-43576764D01*
G37*
G36*
X64704928Y-43576764D02*
G01*
X64726009Y-43583160D01*
X64745445Y-43593548D01*
X64762476Y-43607524D01*
X64776452Y-43624555D01*
X64786840Y-43643991D01*
X64793236Y-43665072D01*
X64796000Y-43693140D01*
X64796000Y-45606860D01*
X64793236Y-45634928D01*
X64786840Y-45656009D01*
X64776452Y-45675445D01*
X64762476Y-45692476D01*
X64745445Y-45706452D01*
X64726009Y-45716840D01*
X64704928Y-45723236D01*
X64676860Y-45726000D01*
X64213140Y-45726000D01*
X64185072Y-45723236D01*
X64163991Y-45716840D01*
X64144555Y-45706452D01*
X64127524Y-45692476D01*
X64113548Y-45675445D01*
X64103160Y-45656009D01*
X64096764Y-45634928D01*
X64094000Y-45606860D01*
X64094000Y-43693140D01*
X64096764Y-43665072D01*
X64103160Y-43643991D01*
X64113548Y-43624555D01*
X64127524Y-43607524D01*
X64144555Y-43593548D01*
X64163991Y-43583160D01*
X64185072Y-43576764D01*
X64213140Y-43574000D01*
X64676860Y-43574000D01*
X64704928Y-43576764D01*
X64704928Y-43576764D01*
G37*
G36*
X59624928Y-43576764D02*
G01*
X59646009Y-43583160D01*
X59665445Y-43593548D01*
X59682476Y-43607524D01*
X59696452Y-43624555D01*
X59706840Y-43643991D01*
X59713236Y-43665072D01*
X59716000Y-43693140D01*
X59716000Y-45606860D01*
X59713236Y-45634928D01*
X59706840Y-45656009D01*
X59696452Y-45675445D01*
X59682476Y-45692476D01*
X59665445Y-45706452D01*
X59646009Y-45716840D01*
X59624928Y-45723236D01*
X59596860Y-45726000D01*
X59133140Y-45726000D01*
X59105072Y-45723236D01*
X59083991Y-45716840D01*
X59064555Y-45706452D01*
X59047524Y-45692476D01*
X59033548Y-45675445D01*
X59023160Y-45656009D01*
X59016764Y-45634928D01*
X59014000Y-45606860D01*
X59014000Y-43693140D01*
X59016764Y-43665072D01*
X59023160Y-43643991D01*
X59033548Y-43624555D01*
X59047524Y-43607524D01*
X59064555Y-43593548D01*
X59083991Y-43583160D01*
X59105072Y-43576764D01*
X59133140Y-43574000D01*
X59596860Y-43574000D01*
X59624928Y-43576764D01*
X59624928Y-43576764D01*
G37*
G36*
X72086823Y-43281313D02*
G01*
X72247242Y-43329976D01*
X72379906Y-43400886D01*
X72395078Y-43408996D01*
X72524659Y-43515341D01*
X72631004Y-43644922D01*
X72631005Y-43644924D01*
X72710024Y-43792758D01*
X72758687Y-43953177D01*
X72775117Y-44120000D01*
X72758687Y-44286823D01*
X72710024Y-44447242D01*
X72698747Y-44468339D01*
X72631004Y-44595078D01*
X72524659Y-44724659D01*
X72395078Y-44831004D01*
X72395076Y-44831005D01*
X72247242Y-44910024D01*
X72086823Y-44958687D01*
X71961804Y-44971000D01*
X71878196Y-44971000D01*
X71753177Y-44958687D01*
X71592758Y-44910024D01*
X71444924Y-44831005D01*
X71444922Y-44831004D01*
X71315341Y-44724659D01*
X71208996Y-44595078D01*
X71141253Y-44468339D01*
X71129976Y-44447242D01*
X71081313Y-44286823D01*
X71064883Y-44120000D01*
X71081313Y-43953177D01*
X71129976Y-43792758D01*
X71208995Y-43644924D01*
X71208996Y-43644922D01*
X71315341Y-43515341D01*
X71444922Y-43408996D01*
X71460094Y-43400886D01*
X71592758Y-43329976D01*
X71753177Y-43281313D01*
X71878196Y-43269000D01*
X71961804Y-43269000D01*
X72086823Y-43281313D01*
X72086823Y-43281313D01*
G37*
G36*
X74626823Y-43281313D02*
G01*
X74787242Y-43329976D01*
X74919906Y-43400886D01*
X74935078Y-43408996D01*
X75064659Y-43515341D01*
X75171004Y-43644922D01*
X75171005Y-43644924D01*
X75250024Y-43792758D01*
X75298687Y-43953177D01*
X75315117Y-44120000D01*
X75298687Y-44286823D01*
X75250024Y-44447242D01*
X75238747Y-44468339D01*
X75171004Y-44595078D01*
X75064659Y-44724659D01*
X74935078Y-44831004D01*
X74935076Y-44831005D01*
X74787242Y-44910024D01*
X74626823Y-44958687D01*
X74501804Y-44971000D01*
X74418196Y-44971000D01*
X74293177Y-44958687D01*
X74132758Y-44910024D01*
X73984924Y-44831005D01*
X73984922Y-44831004D01*
X73855341Y-44724659D01*
X73748996Y-44595078D01*
X73681253Y-44468339D01*
X73669976Y-44447242D01*
X73621313Y-44286823D01*
X73604883Y-44120000D01*
X73621313Y-43953177D01*
X73669976Y-43792758D01*
X73748995Y-43644924D01*
X73748996Y-43644922D01*
X73855341Y-43515341D01*
X73984922Y-43408996D01*
X74000094Y-43400886D01*
X74132758Y-43329976D01*
X74293177Y-43281313D01*
X74418196Y-43269000D01*
X74501804Y-43269000D01*
X74626823Y-43281313D01*
X74626823Y-43281313D01*
G37*
G36*
X77166823Y-43281313D02*
G01*
X77327242Y-43329976D01*
X77459906Y-43400886D01*
X77475078Y-43408996D01*
X77604659Y-43515341D01*
X77711004Y-43644922D01*
X77711005Y-43644924D01*
X77790024Y-43792758D01*
X77838687Y-43953177D01*
X77855117Y-44120000D01*
X77838687Y-44286823D01*
X77790024Y-44447242D01*
X77778747Y-44468339D01*
X77711004Y-44595078D01*
X77604659Y-44724659D01*
X77475078Y-44831004D01*
X77475076Y-44831005D01*
X77327242Y-44910024D01*
X77166823Y-44958687D01*
X77041804Y-44971000D01*
X76958196Y-44971000D01*
X76833177Y-44958687D01*
X76672758Y-44910024D01*
X76524924Y-44831005D01*
X76524922Y-44831004D01*
X76395341Y-44724659D01*
X76288996Y-44595078D01*
X76221253Y-44468339D01*
X76209976Y-44447242D01*
X76161313Y-44286823D01*
X76144883Y-44120000D01*
X76161313Y-43953177D01*
X76209976Y-43792758D01*
X76288995Y-43644924D01*
X76288996Y-43644922D01*
X76395341Y-43515341D01*
X76524922Y-43408996D01*
X76540094Y-43400886D01*
X76672758Y-43329976D01*
X76833177Y-43281313D01*
X76958196Y-43269000D01*
X77041804Y-43269000D01*
X77166823Y-43281313D01*
X77166823Y-43281313D01*
G37*
G36*
X45588674Y-43428465D02*
G01*
X45626367Y-43439899D01*
X45661103Y-43458466D01*
X45691548Y-43483452D01*
X45716534Y-43513897D01*
X45735101Y-43548633D01*
X45746535Y-43586326D01*
X45751000Y-43631661D01*
X45751000Y-44468339D01*
X45746535Y-44513674D01*
X45735101Y-44551367D01*
X45716534Y-44586103D01*
X45691548Y-44616548D01*
X45661103Y-44641534D01*
X45626367Y-44660101D01*
X45588674Y-44671535D01*
X45543339Y-44676000D01*
X44456661Y-44676000D01*
X44411326Y-44671535D01*
X44373633Y-44660101D01*
X44338897Y-44641534D01*
X44308452Y-44616548D01*
X44283466Y-44586103D01*
X44264899Y-44551367D01*
X44253465Y-44513674D01*
X44249000Y-44468339D01*
X44249000Y-43631661D01*
X44253465Y-43586326D01*
X44264899Y-43548633D01*
X44283466Y-43513897D01*
X44308452Y-43483452D01*
X44338897Y-43458466D01*
X44373633Y-43439899D01*
X44411326Y-43428465D01*
X44456661Y-43424000D01*
X45543339Y-43424000D01*
X45588674Y-43428465D01*
X45588674Y-43428465D01*
G37*
G36*
X92488674Y-41753465D02*
G01*
X92526367Y-41764899D01*
X92561103Y-41783466D01*
X92591548Y-41808452D01*
X92616534Y-41838897D01*
X92635101Y-41873633D01*
X92646535Y-41911326D01*
X92651000Y-41956661D01*
X92651000Y-43043339D01*
X92646535Y-43088674D01*
X92635101Y-43126367D01*
X92616534Y-43161103D01*
X92591548Y-43191548D01*
X92561103Y-43216534D01*
X92526367Y-43235101D01*
X92488674Y-43246535D01*
X92443339Y-43251000D01*
X91606661Y-43251000D01*
X91561326Y-43246535D01*
X91523633Y-43235101D01*
X91488897Y-43216534D01*
X91458452Y-43191548D01*
X91433466Y-43161103D01*
X91414899Y-43126367D01*
X91403465Y-43088674D01*
X91399000Y-43043339D01*
X91399000Y-41956661D01*
X91403465Y-41911326D01*
X91414899Y-41873633D01*
X91433466Y-41838897D01*
X91458452Y-41808452D01*
X91488897Y-41783466D01*
X91523633Y-41764899D01*
X91561326Y-41753465D01*
X91606661Y-41749000D01*
X92443339Y-41749000D01*
X92488674Y-41753465D01*
X92488674Y-41753465D01*
G37*
G36*
X90438674Y-41753465D02*
G01*
X90476367Y-41764899D01*
X90511103Y-41783466D01*
X90541548Y-41808452D01*
X90566534Y-41838897D01*
X90585101Y-41873633D01*
X90596535Y-41911326D01*
X90601000Y-41956661D01*
X90601000Y-43043339D01*
X90596535Y-43088674D01*
X90585101Y-43126367D01*
X90566534Y-43161103D01*
X90541548Y-43191548D01*
X90511103Y-43216534D01*
X90476367Y-43235101D01*
X90438674Y-43246535D01*
X90393339Y-43251000D01*
X89556661Y-43251000D01*
X89511326Y-43246535D01*
X89473633Y-43235101D01*
X89438897Y-43216534D01*
X89408452Y-43191548D01*
X89383466Y-43161103D01*
X89364899Y-43126367D01*
X89353465Y-43088674D01*
X89349000Y-43043339D01*
X89349000Y-41956661D01*
X89353465Y-41911326D01*
X89364899Y-41873633D01*
X89383466Y-41838897D01*
X89408452Y-41808452D01*
X89438897Y-41783466D01*
X89473633Y-41764899D01*
X89511326Y-41753465D01*
X89556661Y-41749000D01*
X90393339Y-41749000D01*
X90438674Y-41753465D01*
X90438674Y-41753465D01*
G37*
G36*
X45588674Y-41378465D02*
G01*
X45626367Y-41389899D01*
X45661103Y-41408466D01*
X45691548Y-41433452D01*
X45716534Y-41463897D01*
X45735101Y-41498633D01*
X45746535Y-41536326D01*
X45751000Y-41581661D01*
X45751000Y-42418339D01*
X45746535Y-42463674D01*
X45735101Y-42501367D01*
X45716534Y-42536103D01*
X45691548Y-42566548D01*
X45661103Y-42591534D01*
X45626367Y-42610101D01*
X45588674Y-42621535D01*
X45543339Y-42626000D01*
X44456661Y-42626000D01*
X44411326Y-42621535D01*
X44373633Y-42610101D01*
X44338897Y-42591534D01*
X44308452Y-42566548D01*
X44283466Y-42536103D01*
X44264899Y-42501367D01*
X44253465Y-42463674D01*
X44249000Y-42418339D01*
X44249000Y-41581661D01*
X44253465Y-41536326D01*
X44264899Y-41498633D01*
X44283466Y-41463897D01*
X44308452Y-41433452D01*
X44338897Y-41408466D01*
X44373633Y-41389899D01*
X44411326Y-41378465D01*
X44456661Y-41374000D01*
X45543339Y-41374000D01*
X45588674Y-41378465D01*
X45588674Y-41378465D01*
G37*
G36*
X38951000Y-40801000D02*
G01*
X37049000Y-40801000D01*
X37049000Y-37199000D01*
X38951000Y-37199000D01*
X38951000Y-40801000D01*
X38951000Y-40801000D01*
G37*
G36*
X52088674Y-39403465D02*
G01*
X52126367Y-39414899D01*
X52161103Y-39433466D01*
X52191548Y-39458452D01*
X52216534Y-39488897D01*
X52235101Y-39523633D01*
X52246535Y-39561326D01*
X52251000Y-39606661D01*
X52251000Y-40443339D01*
X52246535Y-40488674D01*
X52235101Y-40526367D01*
X52216534Y-40561103D01*
X52191548Y-40591548D01*
X52161103Y-40616534D01*
X52126367Y-40635101D01*
X52088674Y-40646535D01*
X52043339Y-40651000D01*
X50956661Y-40651000D01*
X50911326Y-40646535D01*
X50873633Y-40635101D01*
X50838897Y-40616534D01*
X50808452Y-40591548D01*
X50783466Y-40561103D01*
X50764899Y-40526367D01*
X50753465Y-40488674D01*
X50749000Y-40443339D01*
X50749000Y-39606661D01*
X50753465Y-39561326D01*
X50764899Y-39523633D01*
X50783466Y-39488897D01*
X50808452Y-39458452D01*
X50838897Y-39433466D01*
X50873633Y-39414899D01*
X50911326Y-39403465D01*
X50956661Y-39399000D01*
X52043339Y-39399000D01*
X52088674Y-39403465D01*
X52088674Y-39403465D01*
G37*
G36*
X18845977Y-33747275D02*
G01*
X18845980Y-33747276D01*
X18845981Y-33747276D01*
X19159628Y-33842420D01*
X19448686Y-33996924D01*
X19514686Y-34051089D01*
X19702048Y-34204852D01*
X19822806Y-34351997D01*
X19909976Y-34458214D01*
X20064480Y-34747272D01*
X20069156Y-34762688D01*
X20159625Y-35060923D01*
X20183700Y-35305363D01*
X20183700Y-38694637D01*
X20159625Y-38939077D01*
X20159624Y-38939080D01*
X20159624Y-38939081D01*
X20064480Y-39252728D01*
X19909976Y-39541786D01*
X19889269Y-39567017D01*
X19702048Y-39795148D01*
X19514684Y-39948912D01*
X19448685Y-40003076D01*
X19159627Y-40157580D01*
X18845980Y-40252724D01*
X18845979Y-40252724D01*
X18845976Y-40252725D01*
X18519800Y-40284850D01*
X18193623Y-40252725D01*
X18193620Y-40252724D01*
X18193619Y-40252724D01*
X17879972Y-40157580D01*
X17590914Y-40003076D01*
X17524914Y-39948911D01*
X17337552Y-39795148D01*
X17182866Y-39606661D01*
X17129624Y-39541785D01*
X16975120Y-39252727D01*
X16879976Y-38939080D01*
X16879976Y-38939079D01*
X16879975Y-38939076D01*
X16855900Y-38694636D01*
X16855901Y-35305363D01*
X16879976Y-35060923D01*
X16970445Y-34762688D01*
X16975121Y-34747272D01*
X17129625Y-34458214D01*
X17216795Y-34351997D01*
X17337553Y-34204852D01*
X17524915Y-34051089D01*
X17590915Y-33996924D01*
X17879973Y-33842420D01*
X18193620Y-33747276D01*
X18193621Y-33747276D01*
X18193624Y-33747275D01*
X18519800Y-33715150D01*
X18845977Y-33747275D01*
X18845977Y-33747275D01*
G37*
G36*
X12826177Y-33747275D02*
G01*
X12826180Y-33747276D01*
X12826181Y-33747276D01*
X13139828Y-33842420D01*
X13428886Y-33996924D01*
X13494886Y-34051089D01*
X13682248Y-34204852D01*
X13803006Y-34351997D01*
X13890176Y-34458214D01*
X14044680Y-34747272D01*
X14049356Y-34762688D01*
X14139825Y-35060923D01*
X14163900Y-35305363D01*
X14163900Y-38694637D01*
X14139825Y-38939077D01*
X14139824Y-38939080D01*
X14139824Y-38939081D01*
X14044680Y-39252728D01*
X13890176Y-39541786D01*
X13869469Y-39567017D01*
X13682248Y-39795148D01*
X13494884Y-39948912D01*
X13428885Y-40003076D01*
X13139827Y-40157580D01*
X12826180Y-40252724D01*
X12826179Y-40252724D01*
X12826176Y-40252725D01*
X12500000Y-40284850D01*
X12173823Y-40252725D01*
X12173820Y-40252724D01*
X12173819Y-40252724D01*
X11860172Y-40157580D01*
X11571114Y-40003076D01*
X11505114Y-39948911D01*
X11317752Y-39795148D01*
X11163066Y-39606661D01*
X11109824Y-39541785D01*
X10955320Y-39252727D01*
X10860176Y-38939080D01*
X10860176Y-38939079D01*
X10860175Y-38939076D01*
X10836100Y-38694636D01*
X10836101Y-35305363D01*
X10860176Y-35060923D01*
X10950645Y-34762688D01*
X10955321Y-34747272D01*
X11109825Y-34458214D01*
X11196995Y-34351997D01*
X11317753Y-34204852D01*
X11505115Y-34051089D01*
X11571115Y-33996924D01*
X11860173Y-33842420D01*
X12173820Y-33747276D01*
X12173821Y-33747276D01*
X12173824Y-33747275D01*
X12500000Y-33715150D01*
X12826177Y-33747275D01*
X12826177Y-33747275D01*
G37*
G36*
X8228777Y-33747275D02*
G01*
X8228780Y-33747276D01*
X8228781Y-33747276D01*
X8542428Y-33842420D01*
X8831486Y-33996924D01*
X8897486Y-34051089D01*
X9084848Y-34204852D01*
X9205606Y-34351997D01*
X9292776Y-34458214D01*
X9447280Y-34747272D01*
X9451956Y-34762688D01*
X9542425Y-35060923D01*
X9566500Y-35305363D01*
X9566500Y-38694637D01*
X9542425Y-38939077D01*
X9542424Y-38939080D01*
X9542424Y-38939081D01*
X9447280Y-39252728D01*
X9292776Y-39541786D01*
X9272069Y-39567017D01*
X9084848Y-39795148D01*
X8897484Y-39948912D01*
X8831485Y-40003076D01*
X8542427Y-40157580D01*
X8228780Y-40252724D01*
X8228779Y-40252724D01*
X8228776Y-40252725D01*
X7902600Y-40284850D01*
X7576423Y-40252725D01*
X7576420Y-40252724D01*
X7576419Y-40252724D01*
X7262772Y-40157580D01*
X6973714Y-40003076D01*
X6907714Y-39948911D01*
X6720352Y-39795148D01*
X6565666Y-39606661D01*
X6512424Y-39541785D01*
X6357920Y-39252727D01*
X6262776Y-38939080D01*
X6262776Y-38939079D01*
X6262775Y-38939076D01*
X6238700Y-38694636D01*
X6238701Y-35305363D01*
X6262776Y-35060923D01*
X6353245Y-34762688D01*
X6357921Y-34747272D01*
X6512425Y-34458214D01*
X6599595Y-34351997D01*
X6720353Y-34204852D01*
X6907715Y-34051089D01*
X6973715Y-33996924D01*
X7262773Y-33842420D01*
X7576420Y-33747276D01*
X7576421Y-33747276D01*
X7576424Y-33747275D01*
X7902600Y-33715150D01*
X8228777Y-33747275D01*
X8228777Y-33747275D01*
G37*
G36*
X90548156Y-30672794D02*
G01*
X91269140Y-30816206D01*
X92060972Y-31144193D01*
X92773601Y-31620357D01*
X93379643Y-32226399D01*
X93855807Y-32939028D01*
X94183794Y-33730860D01*
X94351000Y-34571464D01*
X94351000Y-35428536D01*
X94183794Y-36269140D01*
X93855807Y-37060972D01*
X93379643Y-37773601D01*
X92773601Y-38379643D01*
X92060972Y-38855807D01*
X91269140Y-39183794D01*
X90548156Y-39327206D01*
X90428537Y-39351000D01*
X89571463Y-39351000D01*
X89451844Y-39327206D01*
X88730860Y-39183794D01*
X87939028Y-38855807D01*
X87226399Y-38379643D01*
X86620357Y-37773601D01*
X86144193Y-37060972D01*
X85816206Y-36269140D01*
X85649000Y-35428536D01*
X85649000Y-34571464D01*
X85816206Y-33730860D01*
X86144193Y-32939028D01*
X86620357Y-32226399D01*
X87226399Y-31620357D01*
X87939028Y-31144193D01*
X88730860Y-30816206D01*
X89451844Y-30672794D01*
X89571463Y-30649000D01*
X90428537Y-30649000D01*
X90548156Y-30672794D01*
X90548156Y-30672794D01*
G37*
G36*
X52088674Y-37353465D02*
G01*
X52126367Y-37364899D01*
X52161103Y-37383466D01*
X52191548Y-37408452D01*
X52216534Y-37438897D01*
X52235101Y-37473633D01*
X52246535Y-37511326D01*
X52251000Y-37556661D01*
X52251000Y-38393339D01*
X52246535Y-38438674D01*
X52235101Y-38476367D01*
X52216534Y-38511103D01*
X52191548Y-38541548D01*
X52161103Y-38566534D01*
X52126367Y-38585101D01*
X52088674Y-38596535D01*
X52043339Y-38601000D01*
X50956661Y-38601000D01*
X50911326Y-38596535D01*
X50873633Y-38585101D01*
X50838897Y-38566534D01*
X50808452Y-38541548D01*
X50783466Y-38511103D01*
X50764899Y-38476367D01*
X50753465Y-38438674D01*
X50749000Y-38393339D01*
X50749000Y-37556661D01*
X50753465Y-37511326D01*
X50764899Y-37473633D01*
X50783466Y-37438897D01*
X50808452Y-37408452D01*
X50838897Y-37383466D01*
X50873633Y-37364899D01*
X50911326Y-37353465D01*
X50956661Y-37349000D01*
X52043339Y-37349000D01*
X52088674Y-37353465D01*
X52088674Y-37353465D01*
G37*
G36*
X25983377Y-31639075D02*
G01*
X25983380Y-31639076D01*
X25983381Y-31639076D01*
X26297028Y-31734220D01*
X26586086Y-31888724D01*
X26625580Y-31921136D01*
X26839448Y-32096652D01*
X26986307Y-32275601D01*
X27047376Y-32350014D01*
X27201880Y-32639072D01*
X27270632Y-32865717D01*
X27297025Y-32952723D01*
X27321100Y-33197163D01*
X27321100Y-36586437D01*
X27297025Y-36830877D01*
X27297024Y-36830880D01*
X27297024Y-36830881D01*
X27201880Y-37144528D01*
X27201878Y-37144531D01*
X27201878Y-37144532D01*
X27155620Y-37231075D01*
X27047376Y-37433586D01*
X27043017Y-37438897D01*
X26839448Y-37686948D01*
X26724333Y-37781419D01*
X26586085Y-37894876D01*
X26297027Y-38049380D01*
X25983380Y-38144524D01*
X25983379Y-38144524D01*
X25983376Y-38144525D01*
X25657200Y-38176650D01*
X25331023Y-38144525D01*
X25331020Y-38144524D01*
X25331019Y-38144524D01*
X25017372Y-38049380D01*
X24728314Y-37894876D01*
X24662314Y-37840711D01*
X24474952Y-37686948D01*
X24296878Y-37469962D01*
X24267024Y-37433585D01*
X24148053Y-37211005D01*
X24112522Y-37144531D01*
X24112521Y-37144528D01*
X24112520Y-37144527D01*
X24017376Y-36830880D01*
X24017376Y-36830879D01*
X24017375Y-36830876D01*
X23993300Y-36586436D01*
X23993301Y-33197163D01*
X24017376Y-32952723D01*
X24043769Y-32865717D01*
X24112521Y-32639072D01*
X24267025Y-32350014D01*
X24328094Y-32275601D01*
X24474953Y-32096652D01*
X24688821Y-31921136D01*
X24728315Y-31888724D01*
X25017373Y-31734220D01*
X25331020Y-31639076D01*
X25331021Y-31639076D01*
X25331024Y-31639075D01*
X25657200Y-31606950D01*
X25983377Y-31639075D01*
X25983377Y-31639075D01*
G37*
G36*
X74626823Y-35661313D02*
G01*
X74787242Y-35709976D01*
X74919906Y-35780886D01*
X74935078Y-35788996D01*
X75064659Y-35895341D01*
X75171004Y-36024922D01*
X75171005Y-36024924D01*
X75250024Y-36172758D01*
X75298687Y-36333177D01*
X75315117Y-36500000D01*
X75298687Y-36666823D01*
X75250024Y-36827242D01*
X75245108Y-36836439D01*
X75171004Y-36975078D01*
X75064659Y-37104659D01*
X74935078Y-37211004D01*
X74935076Y-37211005D01*
X74787242Y-37290024D01*
X74626823Y-37338687D01*
X74501804Y-37351000D01*
X74418196Y-37351000D01*
X74293177Y-37338687D01*
X74132758Y-37290024D01*
X73984924Y-37211005D01*
X73984922Y-37211004D01*
X73855341Y-37104659D01*
X73748996Y-36975078D01*
X73674892Y-36836439D01*
X73669976Y-36827242D01*
X73621313Y-36666823D01*
X73604883Y-36500000D01*
X73621313Y-36333177D01*
X73669976Y-36172758D01*
X73748995Y-36024924D01*
X73748996Y-36024922D01*
X73855341Y-35895341D01*
X73984922Y-35788996D01*
X74000094Y-35780886D01*
X74132758Y-35709976D01*
X74293177Y-35661313D01*
X74418196Y-35649000D01*
X74501804Y-35649000D01*
X74626823Y-35661313D01*
X74626823Y-35661313D01*
G37*
G36*
X77851000Y-37351000D02*
G01*
X76149000Y-37351000D01*
X76149000Y-35649000D01*
X77851000Y-35649000D01*
X77851000Y-37351000D01*
X77851000Y-37351000D01*
G37*
G36*
X72086823Y-35661313D02*
G01*
X72247242Y-35709976D01*
X72379906Y-35780886D01*
X72395078Y-35788996D01*
X72524659Y-35895341D01*
X72631004Y-36024922D01*
X72631005Y-36024924D01*
X72710024Y-36172758D01*
X72758687Y-36333177D01*
X72775117Y-36500000D01*
X72758687Y-36666823D01*
X72710024Y-36827242D01*
X72705108Y-36836439D01*
X72631004Y-36975078D01*
X72524659Y-37104659D01*
X72395078Y-37211004D01*
X72395076Y-37211005D01*
X72247242Y-37290024D01*
X72086823Y-37338687D01*
X71961804Y-37351000D01*
X71878196Y-37351000D01*
X71753177Y-37338687D01*
X71592758Y-37290024D01*
X71444924Y-37211005D01*
X71444922Y-37211004D01*
X71315341Y-37104659D01*
X71208996Y-36975078D01*
X71134892Y-36836439D01*
X71129976Y-36827242D01*
X71081313Y-36666823D01*
X71064883Y-36500000D01*
X71081313Y-36333177D01*
X71129976Y-36172758D01*
X71208995Y-36024924D01*
X71208996Y-36024922D01*
X71315341Y-35895341D01*
X71444922Y-35788996D01*
X71460094Y-35780886D01*
X71592758Y-35709976D01*
X71753177Y-35661313D01*
X71878196Y-35649000D01*
X71961804Y-35649000D01*
X72086823Y-35661313D01*
X72086823Y-35661313D01*
G37*
G36*
X55814928Y-34276764D02*
G01*
X55836009Y-34283160D01*
X55855445Y-34293548D01*
X55872476Y-34307524D01*
X55886452Y-34324555D01*
X55896840Y-34343991D01*
X55903236Y-34365072D01*
X55906000Y-34393140D01*
X55906000Y-36306860D01*
X55903236Y-36334928D01*
X55896840Y-36356009D01*
X55886452Y-36375445D01*
X55872476Y-36392476D01*
X55855445Y-36406452D01*
X55836009Y-36416840D01*
X55814928Y-36423236D01*
X55786860Y-36426000D01*
X55323140Y-36426000D01*
X55295072Y-36423236D01*
X55273991Y-36416840D01*
X55254555Y-36406452D01*
X55237524Y-36392476D01*
X55223548Y-36375445D01*
X55213160Y-36356009D01*
X55206764Y-36334928D01*
X55204000Y-36306860D01*
X55204000Y-34393140D01*
X55206764Y-34365072D01*
X55213160Y-34343991D01*
X55223548Y-34324555D01*
X55237524Y-34307524D01*
X55254555Y-34293548D01*
X55273991Y-34283160D01*
X55295072Y-34276764D01*
X55323140Y-34274000D01*
X55786860Y-34274000D01*
X55814928Y-34276764D01*
X55814928Y-34276764D01*
G37*
G36*
X58354928Y-34276764D02*
G01*
X58376009Y-34283160D01*
X58395445Y-34293548D01*
X58412476Y-34307524D01*
X58426452Y-34324555D01*
X58436840Y-34343991D01*
X58443236Y-34365072D01*
X58446000Y-34393140D01*
X58446000Y-36306860D01*
X58443236Y-36334928D01*
X58436840Y-36356009D01*
X58426452Y-36375445D01*
X58412476Y-36392476D01*
X58395445Y-36406452D01*
X58376009Y-36416840D01*
X58354928Y-36423236D01*
X58326860Y-36426000D01*
X57863140Y-36426000D01*
X57835072Y-36423236D01*
X57813991Y-36416840D01*
X57794555Y-36406452D01*
X57777524Y-36392476D01*
X57763548Y-36375445D01*
X57753160Y-36356009D01*
X57746764Y-36334928D01*
X57744000Y-36306860D01*
X57744000Y-34393140D01*
X57746764Y-34365072D01*
X57753160Y-34343991D01*
X57763548Y-34324555D01*
X57777524Y-34307524D01*
X57794555Y-34293548D01*
X57813991Y-34283160D01*
X57835072Y-34276764D01*
X57863140Y-34274000D01*
X58326860Y-34274000D01*
X58354928Y-34276764D01*
X58354928Y-34276764D01*
G37*
G36*
X64704928Y-34276764D02*
G01*
X64726009Y-34283160D01*
X64745445Y-34293548D01*
X64762476Y-34307524D01*
X64776452Y-34324555D01*
X64786840Y-34343991D01*
X64793236Y-34365072D01*
X64796000Y-34393140D01*
X64796000Y-36306860D01*
X64793236Y-36334928D01*
X64786840Y-36356009D01*
X64776452Y-36375445D01*
X64762476Y-36392476D01*
X64745445Y-36406452D01*
X64726009Y-36416840D01*
X64704928Y-36423236D01*
X64676860Y-36426000D01*
X64213140Y-36426000D01*
X64185072Y-36423236D01*
X64163991Y-36416840D01*
X64144555Y-36406452D01*
X64127524Y-36392476D01*
X64113548Y-36375445D01*
X64103160Y-36356009D01*
X64096764Y-36334928D01*
X64094000Y-36306860D01*
X64094000Y-34393140D01*
X64096764Y-34365072D01*
X64103160Y-34343991D01*
X64113548Y-34324555D01*
X64127524Y-34307524D01*
X64144555Y-34293548D01*
X64163991Y-34283160D01*
X64185072Y-34276764D01*
X64213140Y-34274000D01*
X64676860Y-34274000D01*
X64704928Y-34276764D01*
X64704928Y-34276764D01*
G37*
G36*
X59624928Y-34276764D02*
G01*
X59646009Y-34283160D01*
X59665445Y-34293548D01*
X59682476Y-34307524D01*
X59696452Y-34324555D01*
X59706840Y-34343991D01*
X59713236Y-34365072D01*
X59716000Y-34393140D01*
X59716000Y-36306860D01*
X59713236Y-36334928D01*
X59706840Y-36356009D01*
X59696452Y-36375445D01*
X59682476Y-36392476D01*
X59665445Y-36406452D01*
X59646009Y-36416840D01*
X59624928Y-36423236D01*
X59596860Y-36426000D01*
X59133140Y-36426000D01*
X59105072Y-36423236D01*
X59083991Y-36416840D01*
X59064555Y-36406452D01*
X59047524Y-36392476D01*
X59033548Y-36375445D01*
X59023160Y-36356009D01*
X59016764Y-36334928D01*
X59014000Y-36306860D01*
X59014000Y-34393140D01*
X59016764Y-34365072D01*
X59023160Y-34343991D01*
X59033548Y-34324555D01*
X59047524Y-34307524D01*
X59064555Y-34293548D01*
X59083991Y-34283160D01*
X59105072Y-34276764D01*
X59133140Y-34274000D01*
X59596860Y-34274000D01*
X59624928Y-34276764D01*
X59624928Y-34276764D01*
G37*
G36*
X62164928Y-34276764D02*
G01*
X62186009Y-34283160D01*
X62205445Y-34293548D01*
X62222476Y-34307524D01*
X62236452Y-34324555D01*
X62246840Y-34343991D01*
X62253236Y-34365072D01*
X62256000Y-34393140D01*
X62256000Y-36306860D01*
X62253236Y-36334928D01*
X62246840Y-36356009D01*
X62236452Y-36375445D01*
X62222476Y-36392476D01*
X62205445Y-36406452D01*
X62186009Y-36416840D01*
X62164928Y-36423236D01*
X62136860Y-36426000D01*
X61673140Y-36426000D01*
X61645072Y-36423236D01*
X61623991Y-36416840D01*
X61604555Y-36406452D01*
X61587524Y-36392476D01*
X61573548Y-36375445D01*
X61563160Y-36356009D01*
X61556764Y-36334928D01*
X61554000Y-36306860D01*
X61554000Y-34393140D01*
X61556764Y-34365072D01*
X61563160Y-34343991D01*
X61573548Y-34324555D01*
X61587524Y-34307524D01*
X61604555Y-34293548D01*
X61623991Y-34283160D01*
X61645072Y-34276764D01*
X61673140Y-34274000D01*
X62136860Y-34274000D01*
X62164928Y-34276764D01*
X62164928Y-34276764D01*
G37*
G36*
X60894928Y-34276764D02*
G01*
X60916009Y-34283160D01*
X60935445Y-34293548D01*
X60952476Y-34307524D01*
X60966452Y-34324555D01*
X60976840Y-34343991D01*
X60983236Y-34365072D01*
X60986000Y-34393140D01*
X60986000Y-36306860D01*
X60983236Y-36334928D01*
X60976840Y-36356009D01*
X60966452Y-36375445D01*
X60952476Y-36392476D01*
X60935445Y-36406452D01*
X60916009Y-36416840D01*
X60894928Y-36423236D01*
X60866860Y-36426000D01*
X60403140Y-36426000D01*
X60375072Y-36423236D01*
X60353991Y-36416840D01*
X60334555Y-36406452D01*
X60317524Y-36392476D01*
X60303548Y-36375445D01*
X60293160Y-36356009D01*
X60286764Y-36334928D01*
X60284000Y-36306860D01*
X60284000Y-34393140D01*
X60286764Y-34365072D01*
X60293160Y-34343991D01*
X60303548Y-34324555D01*
X60317524Y-34307524D01*
X60334555Y-34293548D01*
X60353991Y-34283160D01*
X60375072Y-34276764D01*
X60403140Y-34274000D01*
X60866860Y-34274000D01*
X60894928Y-34276764D01*
X60894928Y-34276764D01*
G37*
G36*
X63434928Y-34276764D02*
G01*
X63456009Y-34283160D01*
X63475445Y-34293548D01*
X63492476Y-34307524D01*
X63506452Y-34324555D01*
X63516840Y-34343991D01*
X63523236Y-34365072D01*
X63526000Y-34393140D01*
X63526000Y-36306860D01*
X63523236Y-36334928D01*
X63516840Y-36356009D01*
X63506452Y-36375445D01*
X63492476Y-36392476D01*
X63475445Y-36406452D01*
X63456009Y-36416840D01*
X63434928Y-36423236D01*
X63406860Y-36426000D01*
X62943140Y-36426000D01*
X62915072Y-36423236D01*
X62893991Y-36416840D01*
X62874555Y-36406452D01*
X62857524Y-36392476D01*
X62843548Y-36375445D01*
X62833160Y-36356009D01*
X62826764Y-36334928D01*
X62824000Y-36306860D01*
X62824000Y-34393140D01*
X62826764Y-34365072D01*
X62833160Y-34343991D01*
X62843548Y-34324555D01*
X62857524Y-34307524D01*
X62874555Y-34293548D01*
X62893991Y-34283160D01*
X62915072Y-34276764D01*
X62943140Y-34274000D01*
X63406860Y-34274000D01*
X63434928Y-34276764D01*
X63434928Y-34276764D01*
G37*
G36*
X57084928Y-34276764D02*
G01*
X57106009Y-34283160D01*
X57125445Y-34293548D01*
X57142476Y-34307524D01*
X57156452Y-34324555D01*
X57166840Y-34343991D01*
X57173236Y-34365072D01*
X57176000Y-34393140D01*
X57176000Y-36306860D01*
X57173236Y-36334928D01*
X57166840Y-36356009D01*
X57156452Y-36375445D01*
X57142476Y-36392476D01*
X57125445Y-36406452D01*
X57106009Y-36416840D01*
X57084928Y-36423236D01*
X57056860Y-36426000D01*
X56593140Y-36426000D01*
X56565072Y-36423236D01*
X56543991Y-36416840D01*
X56524555Y-36406452D01*
X56507524Y-36392476D01*
X56493548Y-36375445D01*
X56483160Y-36356009D01*
X56476764Y-36334928D01*
X56474000Y-36306860D01*
X56474000Y-34393140D01*
X56476764Y-34365072D01*
X56483160Y-34343991D01*
X56493548Y-34324555D01*
X56507524Y-34307524D01*
X56524555Y-34293548D01*
X56543991Y-34283160D01*
X56565072Y-34276764D01*
X56593140Y-34274000D01*
X57056860Y-34274000D01*
X57084928Y-34276764D01*
X57084928Y-34276764D01*
G37*
G36*
X43051000Y-35071000D02*
G01*
X41449000Y-35071000D01*
X41449000Y-33469000D01*
X43051000Y-33469000D01*
X43051000Y-35071000D01*
X43051000Y-35071000D01*
G37*
G36*
X52551000Y-35071000D02*
G01*
X50949000Y-35071000D01*
X50949000Y-33469000D01*
X52551000Y-33469000D01*
X52551000Y-35071000D01*
X52551000Y-35071000D01*
G37*
G36*
X39501000Y-33401000D02*
G01*
X38499000Y-33401000D01*
X38499000Y-32499000D01*
X39501000Y-32499000D01*
X39501000Y-33401000D01*
X39501000Y-33401000D01*
G37*
G36*
X52551000Y-32531000D02*
G01*
X50949000Y-32531000D01*
X50949000Y-30929000D01*
X52551000Y-30929000D01*
X52551000Y-32531000D01*
X52551000Y-32531000D01*
G37*
G36*
X43051000Y-32531000D02*
G01*
X41449000Y-32531000D01*
X41449000Y-30929000D01*
X43051000Y-30929000D01*
X43051000Y-32531000D01*
X43051000Y-32531000D01*
G37*
G36*
X37501000Y-32451000D02*
G01*
X36499000Y-32451000D01*
X36499000Y-31549000D01*
X37501000Y-31549000D01*
X37501000Y-32451000D01*
X37501000Y-32451000D01*
G37*
G36*
X39501000Y-31501000D02*
G01*
X38499000Y-31501000D01*
X38499000Y-30599000D01*
X39501000Y-30599000D01*
X39501000Y-31501000D01*
X39501000Y-31501000D01*
G37*
G36*
X38951000Y-29301000D02*
G01*
X37049000Y-29301000D01*
X37049000Y-25699000D01*
X38951000Y-25699000D01*
X38951000Y-29301000D01*
X38951000Y-29301000D01*
G37*
G36*
X94176000Y-28676000D02*
G01*
X84674000Y-28676000D01*
X84674000Y-17774000D01*
X94176000Y-17774000D01*
X94176000Y-28676000D01*
X94176000Y-28676000D01*
G37*
G36*
X67738674Y-27328465D02*
G01*
X67776367Y-27339899D01*
X67811103Y-27358466D01*
X67841548Y-27383452D01*
X67866534Y-27413897D01*
X67885101Y-27448633D01*
X67896535Y-27486326D01*
X67901000Y-27531661D01*
X67901000Y-28368339D01*
X67896535Y-28413674D01*
X67885101Y-28451367D01*
X67866534Y-28486103D01*
X67841548Y-28516548D01*
X67811103Y-28541534D01*
X67776367Y-28560101D01*
X67738674Y-28571535D01*
X67693339Y-28576000D01*
X66606661Y-28576000D01*
X66561326Y-28571535D01*
X66523633Y-28560101D01*
X66488897Y-28541534D01*
X66458452Y-28516548D01*
X66433466Y-28486103D01*
X66414899Y-28451367D01*
X66403465Y-28413674D01*
X66399000Y-28368339D01*
X66399000Y-27531661D01*
X66403465Y-27486326D01*
X66414899Y-27448633D01*
X66433466Y-27413897D01*
X66458452Y-27383452D01*
X66488897Y-27358466D01*
X66523633Y-27339899D01*
X66561326Y-27328465D01*
X66606661Y-27324000D01*
X67693339Y-27324000D01*
X67738674Y-27328465D01*
X67738674Y-27328465D01*
G37*
G36*
X63888674Y-27303465D02*
G01*
X63926367Y-27314899D01*
X63961103Y-27333466D01*
X63991548Y-27358452D01*
X64016534Y-27388897D01*
X64035101Y-27423633D01*
X64046535Y-27461326D01*
X64051000Y-27506661D01*
X64051000Y-28343339D01*
X64046535Y-28388674D01*
X64035101Y-28426367D01*
X64016534Y-28461103D01*
X63991548Y-28491548D01*
X63961103Y-28516534D01*
X63926367Y-28535101D01*
X63888674Y-28546535D01*
X63843339Y-28551000D01*
X62756661Y-28551000D01*
X62711326Y-28546535D01*
X62673633Y-28535101D01*
X62638897Y-28516534D01*
X62608452Y-28491548D01*
X62583466Y-28461103D01*
X62564899Y-28426367D01*
X62553465Y-28388674D01*
X62549000Y-28343339D01*
X62549000Y-27506661D01*
X62553465Y-27461326D01*
X62564899Y-27423633D01*
X62583466Y-27388897D01*
X62608452Y-27358452D01*
X62638897Y-27333466D01*
X62673633Y-27314899D01*
X62711326Y-27303465D01*
X62756661Y-27299000D01*
X63843339Y-27299000D01*
X63888674Y-27303465D01*
X63888674Y-27303465D01*
G37*
G36*
X55738674Y-27303465D02*
G01*
X55776367Y-27314899D01*
X55811103Y-27333466D01*
X55841548Y-27358452D01*
X55866534Y-27388897D01*
X55885101Y-27423633D01*
X55896535Y-27461326D01*
X55901000Y-27506661D01*
X55901000Y-28343339D01*
X55896535Y-28388674D01*
X55885101Y-28426367D01*
X55866534Y-28461103D01*
X55841548Y-28491548D01*
X55811103Y-28516534D01*
X55776367Y-28535101D01*
X55738674Y-28546535D01*
X55693339Y-28551000D01*
X54606661Y-28551000D01*
X54561326Y-28546535D01*
X54523633Y-28535101D01*
X54488897Y-28516534D01*
X54458452Y-28491548D01*
X54433466Y-28461103D01*
X54414899Y-28426367D01*
X54403465Y-28388674D01*
X54399000Y-28343339D01*
X54399000Y-27506661D01*
X54403465Y-27461326D01*
X54414899Y-27423633D01*
X54433466Y-27388897D01*
X54458452Y-27358452D01*
X54488897Y-27333466D01*
X54523633Y-27314899D01*
X54561326Y-27303465D01*
X54606661Y-27299000D01*
X55693339Y-27299000D01*
X55738674Y-27303465D01*
X55738674Y-27303465D01*
G37*
G36*
X59988674Y-27278465D02*
G01*
X60026367Y-27289899D01*
X60061103Y-27308466D01*
X60091548Y-27333452D01*
X60116534Y-27363897D01*
X60135101Y-27398633D01*
X60146535Y-27436326D01*
X60151000Y-27481661D01*
X60151000Y-28318339D01*
X60146535Y-28363674D01*
X60135101Y-28401367D01*
X60116534Y-28436103D01*
X60091548Y-28466548D01*
X60061103Y-28491534D01*
X60026367Y-28510101D01*
X59988674Y-28521535D01*
X59943339Y-28526000D01*
X58856661Y-28526000D01*
X58811326Y-28521535D01*
X58773633Y-28510101D01*
X58738897Y-28491534D01*
X58708452Y-28466548D01*
X58683466Y-28436103D01*
X58664899Y-28401367D01*
X58653465Y-28363674D01*
X58649000Y-28318339D01*
X58649000Y-27481661D01*
X58653465Y-27436326D01*
X58664899Y-27398633D01*
X58683466Y-27363897D01*
X58708452Y-27333452D01*
X58738897Y-27308466D01*
X58773633Y-27289899D01*
X58811326Y-27278465D01*
X58856661Y-27274000D01*
X59943339Y-27274000D01*
X59988674Y-27278465D01*
X59988674Y-27278465D01*
G37*
G36*
X25826177Y-20859275D02*
G01*
X25826180Y-20859276D01*
X25826181Y-20859276D01*
X26139828Y-20954420D01*
X26428886Y-21108924D01*
X26494886Y-21163089D01*
X26682248Y-21316852D01*
X26836011Y-21504214D01*
X26890176Y-21570214D01*
X27044680Y-21859272D01*
X27087066Y-21999000D01*
X27139825Y-22172923D01*
X27163900Y-22417363D01*
X27163900Y-25806637D01*
X27139825Y-26051077D01*
X27139824Y-26051080D01*
X27139824Y-26051081D01*
X27044680Y-26364728D01*
X27044678Y-26364731D01*
X27044678Y-26364732D01*
X27003627Y-26441534D01*
X26890176Y-26653786D01*
X26836011Y-26719786D01*
X26682248Y-26907148D01*
X26494884Y-27060912D01*
X26428885Y-27115076D01*
X26139827Y-27269580D01*
X25826180Y-27364724D01*
X25826179Y-27364724D01*
X25826176Y-27364725D01*
X25500000Y-27396850D01*
X25173823Y-27364725D01*
X25173820Y-27364724D01*
X25173819Y-27364724D01*
X24860172Y-27269580D01*
X24571114Y-27115076D01*
X24505114Y-27060911D01*
X24317752Y-26907148D01*
X24109825Y-26653786D01*
X24109824Y-26653785D01*
X24028159Y-26501000D01*
X23955322Y-26364731D01*
X23955321Y-26364728D01*
X23955320Y-26364727D01*
X23860176Y-26051080D01*
X23860176Y-26051079D01*
X23860175Y-26051076D01*
X23836100Y-25806636D01*
X23836101Y-22417363D01*
X23860176Y-22172923D01*
X23912935Y-21999000D01*
X23955321Y-21859272D01*
X24109825Y-21570214D01*
X24163990Y-21504214D01*
X24317753Y-21316852D01*
X24505115Y-21163089D01*
X24571115Y-21108924D01*
X24860173Y-20954420D01*
X25173820Y-20859276D01*
X25173821Y-20859276D01*
X25173824Y-20859275D01*
X25500000Y-20827150D01*
X25826177Y-20859275D01*
X25826177Y-20859275D01*
G37*
G36*
X82626000Y-27226000D02*
G01*
X77924000Y-27226000D01*
X77924000Y-26024000D01*
X82626000Y-26024000D01*
X82626000Y-27226000D01*
X82626000Y-27226000D01*
G37*
G36*
X52651000Y-26771000D02*
G01*
X51049000Y-26771000D01*
X51049000Y-25169000D01*
X52651000Y-25169000D01*
X52651000Y-26771000D01*
X52651000Y-26771000D01*
G37*
G36*
X43151000Y-26771000D02*
G01*
X41549000Y-26771000D01*
X41549000Y-25169000D01*
X43151000Y-25169000D01*
X43151000Y-26771000D01*
X43151000Y-26771000D01*
G37*
G36*
X67738674Y-25278465D02*
G01*
X67776367Y-25289899D01*
X67811103Y-25308466D01*
X67841548Y-25333452D01*
X67866534Y-25363897D01*
X67885101Y-25398633D01*
X67896535Y-25436326D01*
X67901000Y-25481661D01*
X67901000Y-26318339D01*
X67896535Y-26363674D01*
X67885101Y-26401367D01*
X67866534Y-26436103D01*
X67841548Y-26466548D01*
X67811103Y-26491534D01*
X67776367Y-26510101D01*
X67738674Y-26521535D01*
X67693339Y-26526000D01*
X66606661Y-26526000D01*
X66561326Y-26521535D01*
X66523633Y-26510101D01*
X66488897Y-26491534D01*
X66458452Y-26466548D01*
X66433466Y-26436103D01*
X66414899Y-26401367D01*
X66403465Y-26363674D01*
X66399000Y-26318339D01*
X66399000Y-25481661D01*
X66403465Y-25436326D01*
X66414899Y-25398633D01*
X66433466Y-25363897D01*
X66458452Y-25333452D01*
X66488897Y-25308466D01*
X66523633Y-25289899D01*
X66561326Y-25278465D01*
X66606661Y-25274000D01*
X67693339Y-25274000D01*
X67738674Y-25278465D01*
X67738674Y-25278465D01*
G37*
G36*
X55738674Y-25253465D02*
G01*
X55776367Y-25264899D01*
X55811103Y-25283466D01*
X55841548Y-25308452D01*
X55866534Y-25338897D01*
X55885101Y-25373633D01*
X55896535Y-25411326D01*
X55901000Y-25456661D01*
X55901000Y-26293339D01*
X55896535Y-26338674D01*
X55885101Y-26376367D01*
X55866534Y-26411103D01*
X55841548Y-26441548D01*
X55811103Y-26466534D01*
X55776367Y-26485101D01*
X55738674Y-26496535D01*
X55693339Y-26501000D01*
X54606661Y-26501000D01*
X54561326Y-26496535D01*
X54523633Y-26485101D01*
X54488897Y-26466534D01*
X54458452Y-26441548D01*
X54433466Y-26411103D01*
X54414899Y-26376367D01*
X54403465Y-26338674D01*
X54399000Y-26293339D01*
X54399000Y-25456661D01*
X54403465Y-25411326D01*
X54414899Y-25373633D01*
X54433466Y-25338897D01*
X54458452Y-25308452D01*
X54488897Y-25283466D01*
X54523633Y-25264899D01*
X54561326Y-25253465D01*
X54606661Y-25249000D01*
X55693339Y-25249000D01*
X55738674Y-25253465D01*
X55738674Y-25253465D01*
G37*
G36*
X63888674Y-25253465D02*
G01*
X63926367Y-25264899D01*
X63961103Y-25283466D01*
X63991548Y-25308452D01*
X64016534Y-25338897D01*
X64035101Y-25373633D01*
X64046535Y-25411326D01*
X64051000Y-25456661D01*
X64051000Y-26293339D01*
X64046535Y-26338674D01*
X64035101Y-26376367D01*
X64016534Y-26411103D01*
X63991548Y-26441548D01*
X63961103Y-26466534D01*
X63926367Y-26485101D01*
X63888674Y-26496535D01*
X63843339Y-26501000D01*
X62756661Y-26501000D01*
X62711326Y-26496535D01*
X62673633Y-26485101D01*
X62638897Y-26466534D01*
X62608452Y-26441548D01*
X62583466Y-26411103D01*
X62564899Y-26376367D01*
X62553465Y-26338674D01*
X62549000Y-26293339D01*
X62549000Y-25456661D01*
X62553465Y-25411326D01*
X62564899Y-25373633D01*
X62583466Y-25338897D01*
X62608452Y-25308452D01*
X62638897Y-25283466D01*
X62673633Y-25264899D01*
X62711326Y-25253465D01*
X62756661Y-25249000D01*
X63843339Y-25249000D01*
X63888674Y-25253465D01*
X63888674Y-25253465D01*
G37*
G36*
X59988674Y-25228465D02*
G01*
X60026367Y-25239899D01*
X60061103Y-25258466D01*
X60091548Y-25283452D01*
X60116534Y-25313897D01*
X60135101Y-25348633D01*
X60146535Y-25386326D01*
X60151000Y-25431661D01*
X60151000Y-26268339D01*
X60146535Y-26313674D01*
X60135101Y-26351367D01*
X60116534Y-26386103D01*
X60091548Y-26416548D01*
X60061103Y-26441534D01*
X60026367Y-26460101D01*
X59988674Y-26471535D01*
X59943339Y-26476000D01*
X58856661Y-26476000D01*
X58811326Y-26471535D01*
X58773633Y-26460101D01*
X58738897Y-26441534D01*
X58708452Y-26416548D01*
X58683466Y-26386103D01*
X58664899Y-26351367D01*
X58653465Y-26313674D01*
X58649000Y-26268339D01*
X58649000Y-25431661D01*
X58653465Y-25386326D01*
X58664899Y-25348633D01*
X58683466Y-25313897D01*
X58708452Y-25283452D01*
X58738897Y-25258466D01*
X58773633Y-25239899D01*
X58811326Y-25228465D01*
X58856661Y-25224000D01*
X59943339Y-25224000D01*
X59988674Y-25228465D01*
X59988674Y-25228465D01*
G37*
G36*
X82626000Y-25526000D02*
G01*
X77924000Y-25526000D01*
X77924000Y-24324000D01*
X82626000Y-24324000D01*
X82626000Y-25526000D01*
X82626000Y-25526000D01*
G37*
G36*
X18688777Y-18751075D02*
G01*
X18688780Y-18751076D01*
X18688781Y-18751076D01*
X19002428Y-18846220D01*
X19291486Y-19000724D01*
X19357486Y-19054889D01*
X19544848Y-19208652D01*
X19698611Y-19396014D01*
X19752776Y-19462014D01*
X19907280Y-19751072D01*
X19983095Y-20001000D01*
X20002425Y-20064723D01*
X20026500Y-20309163D01*
X20026500Y-23698437D01*
X20002425Y-23942877D01*
X20002424Y-23942880D01*
X20002424Y-23942881D01*
X19907280Y-24256528D01*
X19752776Y-24545586D01*
X19698611Y-24611586D01*
X19544848Y-24798948D01*
X19357484Y-24952712D01*
X19291485Y-25006876D01*
X19002427Y-25161380D01*
X18688780Y-25256524D01*
X18688779Y-25256524D01*
X18688776Y-25256525D01*
X18362600Y-25288650D01*
X18036423Y-25256525D01*
X18036420Y-25256524D01*
X18036419Y-25256524D01*
X17722772Y-25161380D01*
X17433714Y-25006876D01*
X17367714Y-24952711D01*
X17180352Y-24798948D01*
X16972425Y-24545586D01*
X16972424Y-24545585D01*
X16817920Y-24256527D01*
X16722776Y-23942880D01*
X16722776Y-23942879D01*
X16722775Y-23942876D01*
X16698700Y-23698436D01*
X16698701Y-20309163D01*
X16722776Y-20064723D01*
X16742106Y-20001000D01*
X16817921Y-19751072D01*
X16972425Y-19462014D01*
X17026590Y-19396014D01*
X17180353Y-19208652D01*
X17367715Y-19054889D01*
X17433715Y-19000724D01*
X17722773Y-18846220D01*
X18036420Y-18751076D01*
X18036421Y-18751076D01*
X18036424Y-18751075D01*
X18362600Y-18718950D01*
X18688777Y-18751075D01*
X18688777Y-18751075D01*
G37*
G36*
X12668977Y-18751075D02*
G01*
X12668980Y-18751076D01*
X12668981Y-18751076D01*
X12982628Y-18846220D01*
X13271686Y-19000724D01*
X13337686Y-19054889D01*
X13525048Y-19208652D01*
X13678811Y-19396014D01*
X13732976Y-19462014D01*
X13887480Y-19751072D01*
X13963295Y-20001000D01*
X13982625Y-20064723D01*
X14006700Y-20309163D01*
X14006700Y-23698437D01*
X13982625Y-23942877D01*
X13982624Y-23942880D01*
X13982624Y-23942881D01*
X13887480Y-24256528D01*
X13732976Y-24545586D01*
X13678811Y-24611586D01*
X13525048Y-24798948D01*
X13337684Y-24952712D01*
X13271685Y-25006876D01*
X12982627Y-25161380D01*
X12668980Y-25256524D01*
X12668979Y-25256524D01*
X12668976Y-25256525D01*
X12342800Y-25288650D01*
X12016623Y-25256525D01*
X12016620Y-25256524D01*
X12016619Y-25256524D01*
X11702972Y-25161380D01*
X11413914Y-25006876D01*
X11347914Y-24952711D01*
X11160552Y-24798948D01*
X10952625Y-24545586D01*
X10952624Y-24545585D01*
X10798120Y-24256527D01*
X10702976Y-23942880D01*
X10702976Y-23942879D01*
X10702975Y-23942876D01*
X10678900Y-23698436D01*
X10678901Y-20309163D01*
X10702976Y-20064723D01*
X10722306Y-20001000D01*
X10798121Y-19751072D01*
X10952625Y-19462014D01*
X11006790Y-19396014D01*
X11160553Y-19208652D01*
X11347915Y-19054889D01*
X11413915Y-19000724D01*
X11702973Y-18846220D01*
X12016620Y-18751076D01*
X12016621Y-18751076D01*
X12016624Y-18751075D01*
X12342800Y-18718950D01*
X12668977Y-18751075D01*
X12668977Y-18751075D01*
G37*
G36*
X8071577Y-18751075D02*
G01*
X8071580Y-18751076D01*
X8071581Y-18751076D01*
X8385228Y-18846220D01*
X8674286Y-19000724D01*
X8740286Y-19054889D01*
X8927648Y-19208652D01*
X9081411Y-19396014D01*
X9135576Y-19462014D01*
X9290080Y-19751072D01*
X9365895Y-20001000D01*
X9385225Y-20064723D01*
X9409300Y-20309163D01*
X9409300Y-23698437D01*
X9385225Y-23942877D01*
X9385224Y-23942880D01*
X9385224Y-23942881D01*
X9290080Y-24256528D01*
X9135576Y-24545586D01*
X9081411Y-24611586D01*
X8927648Y-24798948D01*
X8740284Y-24952712D01*
X8674285Y-25006876D01*
X8385227Y-25161380D01*
X8071580Y-25256524D01*
X8071579Y-25256524D01*
X8071576Y-25256525D01*
X7745400Y-25288650D01*
X7419223Y-25256525D01*
X7419220Y-25256524D01*
X7419219Y-25256524D01*
X7105572Y-25161380D01*
X6816514Y-25006876D01*
X6750514Y-24952711D01*
X6563152Y-24798948D01*
X6355225Y-24545586D01*
X6355224Y-24545585D01*
X6200720Y-24256527D01*
X6105576Y-23942880D01*
X6105576Y-23942879D01*
X6105575Y-23942876D01*
X6081500Y-23698436D01*
X6081501Y-20309163D01*
X6105576Y-20064723D01*
X6124906Y-20001000D01*
X6200721Y-19751072D01*
X6355225Y-19462014D01*
X6409390Y-19396014D01*
X6563153Y-19208652D01*
X6750515Y-19054889D01*
X6816515Y-19000724D01*
X7105573Y-18846220D01*
X7419220Y-18751076D01*
X7419221Y-18751076D01*
X7419224Y-18751075D01*
X7745400Y-18718950D01*
X8071577Y-18751075D01*
X8071577Y-18751075D01*
G37*
G36*
X75151000Y-24501000D02*
G01*
X70849000Y-24501000D01*
X70849000Y-21999000D01*
X75151000Y-21999000D01*
X75151000Y-24501000D01*
X75151000Y-24501000D01*
G37*
G36*
X38951000Y-24301000D02*
G01*
X37049000Y-24301000D01*
X37049000Y-20699000D01*
X38951000Y-20699000D01*
X38951000Y-24301000D01*
X38951000Y-24301000D01*
G37*
G36*
X52651000Y-24231000D02*
G01*
X51049000Y-24231000D01*
X51049000Y-22629000D01*
X52651000Y-22629000D01*
X52651000Y-24231000D01*
X52651000Y-24231000D01*
G37*
G36*
X43151000Y-24231000D02*
G01*
X41549000Y-24231000D01*
X41549000Y-22629000D01*
X43151000Y-22629000D01*
X43151000Y-24231000D01*
X43151000Y-24231000D01*
G37*
G36*
X82626000Y-23826000D02*
G01*
X77924000Y-23826000D01*
X77924000Y-22624000D01*
X82626000Y-22624000D01*
X82626000Y-23826000D01*
X82626000Y-23826000D01*
G37*
G36*
X82626000Y-22126000D02*
G01*
X77924000Y-22126000D01*
X77924000Y-20924000D01*
X82626000Y-20924000D01*
X82626000Y-22126000D01*
X82626000Y-22126000D01*
G37*
G36*
X82626000Y-20426000D02*
G01*
X77924000Y-20426000D01*
X77924000Y-19224000D01*
X82626000Y-19224000D01*
X82626000Y-20426000D01*
X82626000Y-20426000D01*
G37*
G36*
X75151000Y-20001000D02*
G01*
X70849000Y-20001000D01*
X70849000Y-17499000D01*
X75151000Y-17499000D01*
X75151000Y-20001000D01*
X75151000Y-20001000D01*
G37*
G36*
X68951000Y-18801000D02*
G01*
X67049000Y-18801000D01*
X67049000Y-15199000D01*
X68951000Y-15199000D01*
X68951000Y-18801000D01*
X68951000Y-18801000D01*
G37*
G36*
X39463674Y-16753465D02*
G01*
X39501367Y-16764899D01*
X39536103Y-16783466D01*
X39566548Y-16808452D01*
X39591534Y-16838897D01*
X39610101Y-16873633D01*
X39621535Y-16911326D01*
X39626000Y-16956661D01*
X39626000Y-18043339D01*
X39621535Y-18088674D01*
X39610101Y-18126367D01*
X39591534Y-18161103D01*
X39566548Y-18191548D01*
X39536103Y-18216534D01*
X39501367Y-18235101D01*
X39463674Y-18246535D01*
X39418339Y-18251000D01*
X38581661Y-18251000D01*
X38536326Y-18246535D01*
X38498633Y-18235101D01*
X38463897Y-18216534D01*
X38433452Y-18191548D01*
X38408466Y-18161103D01*
X38389899Y-18126367D01*
X38378465Y-18088674D01*
X38374000Y-18043339D01*
X38374000Y-16956661D01*
X38378465Y-16911326D01*
X38389899Y-16873633D01*
X38408466Y-16838897D01*
X38433452Y-16808452D01*
X38463897Y-16783466D01*
X38498633Y-16764899D01*
X38536326Y-16753465D01*
X38581661Y-16749000D01*
X39418339Y-16749000D01*
X39463674Y-16753465D01*
X39463674Y-16753465D01*
G37*
G36*
X37413674Y-16753465D02*
G01*
X37451367Y-16764899D01*
X37486103Y-16783466D01*
X37516548Y-16808452D01*
X37541534Y-16838897D01*
X37560101Y-16873633D01*
X37571535Y-16911326D01*
X37576000Y-16956661D01*
X37576000Y-18043339D01*
X37571535Y-18088674D01*
X37560101Y-18126367D01*
X37541534Y-18161103D01*
X37516548Y-18191548D01*
X37486103Y-18216534D01*
X37451367Y-18235101D01*
X37413674Y-18246535D01*
X37368339Y-18251000D01*
X36531661Y-18251000D01*
X36486326Y-18246535D01*
X36448633Y-18235101D01*
X36413897Y-18216534D01*
X36383452Y-18191548D01*
X36358466Y-18161103D01*
X36339899Y-18126367D01*
X36328465Y-18088674D01*
X36324000Y-18043339D01*
X36324000Y-16956661D01*
X36328465Y-16911326D01*
X36339899Y-16873633D01*
X36358466Y-16838897D01*
X36383452Y-16808452D01*
X36413897Y-16783466D01*
X36448633Y-16764899D01*
X36486326Y-16753465D01*
X36531661Y-16749000D01*
X37368339Y-16749000D01*
X37413674Y-16753465D01*
X37413674Y-16753465D01*
G37*
G36*
X8071577Y-8743475D02*
G01*
X8071580Y-8743476D01*
X8071581Y-8743476D01*
X8385228Y-8838620D01*
X8385231Y-8838622D01*
X8385232Y-8838622D01*
X8577933Y-8941623D01*
X8674286Y-8993124D01*
X8740286Y-9047289D01*
X8927648Y-9201052D01*
X9081411Y-9388414D01*
X9135576Y-9454414D01*
X9290080Y-9743472D01*
X9385224Y-10057119D01*
X9385225Y-10057123D01*
X9409300Y-10301563D01*
X9409300Y-13690837D01*
X9385225Y-13935277D01*
X9385224Y-13935280D01*
X9385224Y-13935281D01*
X9290080Y-14248928D01*
X9135576Y-14537986D01*
X9081411Y-14603986D01*
X8927648Y-14791348D01*
X8740284Y-14945112D01*
X8674285Y-14999276D01*
X8385227Y-15153780D01*
X8071580Y-15248924D01*
X8071579Y-15248924D01*
X8071576Y-15248925D01*
X7745400Y-15281050D01*
X7419223Y-15248925D01*
X7419220Y-15248924D01*
X7419219Y-15248924D01*
X7105572Y-15153780D01*
X6816514Y-14999276D01*
X6750514Y-14945111D01*
X6563152Y-14791348D01*
X6409388Y-14603984D01*
X6355224Y-14537985D01*
X6200720Y-14248927D01*
X6105576Y-13935280D01*
X6105576Y-13935279D01*
X6105575Y-13935276D01*
X6081500Y-13690836D01*
X6081501Y-10301563D01*
X6105576Y-10057123D01*
X6105577Y-10057119D01*
X6200721Y-9743472D01*
X6355225Y-9454414D01*
X6409390Y-9388414D01*
X6563153Y-9201052D01*
X6750515Y-9047289D01*
X6816515Y-8993124D01*
X6912868Y-8941623D01*
X7105569Y-8838622D01*
X7105570Y-8838622D01*
X7105573Y-8838620D01*
X7419220Y-8743476D01*
X7419221Y-8743476D01*
X7419224Y-8743475D01*
X7745400Y-8711350D01*
X8071577Y-8743475D01*
X8071577Y-8743475D01*
G37*
G36*
X12668977Y-8743475D02*
G01*
X12668980Y-8743476D01*
X12668981Y-8743476D01*
X12982628Y-8838620D01*
X12982631Y-8838622D01*
X12982632Y-8838622D01*
X13175333Y-8941623D01*
X13271686Y-8993124D01*
X13337686Y-9047289D01*
X13525048Y-9201052D01*
X13678811Y-9388414D01*
X13732976Y-9454414D01*
X13887480Y-9743472D01*
X13982624Y-10057119D01*
X13982625Y-10057123D01*
X14006700Y-10301563D01*
X14006700Y-13690837D01*
X13982625Y-13935277D01*
X13982624Y-13935280D01*
X13982624Y-13935281D01*
X13887480Y-14248928D01*
X13732976Y-14537986D01*
X13678811Y-14603986D01*
X13525048Y-14791348D01*
X13337684Y-14945112D01*
X13271685Y-14999276D01*
X12982627Y-15153780D01*
X12668980Y-15248924D01*
X12668979Y-15248924D01*
X12668976Y-15248925D01*
X12342800Y-15281050D01*
X12016623Y-15248925D01*
X12016620Y-15248924D01*
X12016619Y-15248924D01*
X11702972Y-15153780D01*
X11413914Y-14999276D01*
X11347914Y-14945111D01*
X11160552Y-14791348D01*
X11006788Y-14603984D01*
X10952624Y-14537985D01*
X10798120Y-14248927D01*
X10702976Y-13935280D01*
X10702976Y-13935279D01*
X10702975Y-13935276D01*
X10678900Y-13690836D01*
X10678901Y-10301563D01*
X10702976Y-10057123D01*
X10702977Y-10057119D01*
X10798121Y-9743472D01*
X10952625Y-9454414D01*
X11006790Y-9388414D01*
X11160553Y-9201052D01*
X11347915Y-9047289D01*
X11413915Y-8993124D01*
X11510268Y-8941623D01*
X11702969Y-8838622D01*
X11702970Y-8838622D01*
X11702973Y-8838620D01*
X12016620Y-8743476D01*
X12016621Y-8743476D01*
X12016624Y-8743475D01*
X12342800Y-8711350D01*
X12668977Y-8743475D01*
X12668977Y-8743475D01*
G37*
G36*
X18688777Y-8743475D02*
G01*
X18688780Y-8743476D01*
X18688781Y-8743476D01*
X19002428Y-8838620D01*
X19002431Y-8838622D01*
X19002432Y-8838622D01*
X19195133Y-8941623D01*
X19291486Y-8993124D01*
X19357486Y-9047289D01*
X19544848Y-9201052D01*
X19698611Y-9388414D01*
X19752776Y-9454414D01*
X19907280Y-9743472D01*
X20002424Y-10057119D01*
X20002425Y-10057123D01*
X20026500Y-10301563D01*
X20026500Y-13690837D01*
X20002425Y-13935277D01*
X20002424Y-13935280D01*
X20002424Y-13935281D01*
X19907280Y-14248928D01*
X19752776Y-14537986D01*
X19698611Y-14603986D01*
X19544848Y-14791348D01*
X19357484Y-14945112D01*
X19291485Y-14999276D01*
X19002427Y-15153780D01*
X18688780Y-15248924D01*
X18688779Y-15248924D01*
X18688776Y-15248925D01*
X18362600Y-15281050D01*
X18036423Y-15248925D01*
X18036420Y-15248924D01*
X18036419Y-15248924D01*
X17722772Y-15153780D01*
X17433714Y-14999276D01*
X17367714Y-14945111D01*
X17180352Y-14791348D01*
X17026588Y-14603984D01*
X16972424Y-14537985D01*
X16817920Y-14248927D01*
X16722776Y-13935280D01*
X16722776Y-13935279D01*
X16722775Y-13935276D01*
X16698700Y-13690836D01*
X16698701Y-10301563D01*
X16722776Y-10057123D01*
X16722777Y-10057119D01*
X16817921Y-9743472D01*
X16972425Y-9454414D01*
X17026590Y-9388414D01*
X17180353Y-9201052D01*
X17367715Y-9047289D01*
X17433715Y-8993124D01*
X17530068Y-8941623D01*
X17722769Y-8838622D01*
X17722770Y-8838622D01*
X17722773Y-8838620D01*
X18036420Y-8743476D01*
X18036421Y-8743476D01*
X18036424Y-8743475D01*
X18362600Y-8711350D01*
X18688777Y-8743475D01*
X18688777Y-8743475D01*
G37*
G36*
X92051000Y-14551000D02*
G01*
X88949000Y-14551000D01*
X88949000Y-11449000D01*
X92051000Y-11449000D01*
X92051000Y-14551000D01*
X92051000Y-14551000D01*
G37*
G36*
X68951000Y-13801000D02*
G01*
X67049000Y-13801000D01*
X67049000Y-10199000D01*
X68951000Y-10199000D01*
X68951000Y-13801000D01*
X68951000Y-13801000D01*
G37*
G36*
X25826177Y-6635275D02*
G01*
X25826180Y-6635276D01*
X25826181Y-6635276D01*
X26139828Y-6730420D01*
X26428886Y-6884924D01*
X26485389Y-6931295D01*
X26682248Y-7092852D01*
X26836011Y-7280214D01*
X26890176Y-7346214D01*
X27044680Y-7635272D01*
X27084712Y-7767240D01*
X27139825Y-7948923D01*
X27163900Y-8193363D01*
X27163900Y-11582637D01*
X27139825Y-11827077D01*
X27139824Y-11827080D01*
X27139824Y-11827081D01*
X27044680Y-12140728D01*
X26890176Y-12429786D01*
X26836011Y-12495786D01*
X26682248Y-12683148D01*
X26494884Y-12836912D01*
X26428885Y-12891076D01*
X26139827Y-13045580D01*
X25826180Y-13140724D01*
X25826179Y-13140724D01*
X25826176Y-13140725D01*
X25500000Y-13172850D01*
X25173823Y-13140725D01*
X25173820Y-13140724D01*
X25173819Y-13140724D01*
X24860172Y-13045580D01*
X24571114Y-12891076D01*
X24482433Y-12818297D01*
X24317752Y-12683148D01*
X24109825Y-12429786D01*
X24109824Y-12429785D01*
X23955320Y-12140727D01*
X23860176Y-11827080D01*
X23860176Y-11827079D01*
X23860175Y-11827076D01*
X23836100Y-11582636D01*
X23836101Y-8193363D01*
X23860176Y-7948923D01*
X23915289Y-7767240D01*
X23955321Y-7635272D01*
X24109825Y-7346214D01*
X24163990Y-7280214D01*
X24317753Y-7092852D01*
X24514612Y-6931295D01*
X24571115Y-6884924D01*
X24860173Y-6730420D01*
X25173820Y-6635276D01*
X25173821Y-6635276D01*
X25173824Y-6635275D01*
X25500000Y-6603150D01*
X25826177Y-6635275D01*
X25826177Y-6635275D01*
G37*
G36*
X79351000Y-12851000D02*
G01*
X77649000Y-12851000D01*
X77649000Y-11149000D01*
X79351000Y-11149000D01*
X79351000Y-12851000D01*
X79351000Y-12851000D01*
G37*
G36*
X43851000Y-12851000D02*
G01*
X42149000Y-12851000D01*
X42149000Y-11149000D01*
X43851000Y-11149000D01*
X43851000Y-12851000D01*
X43851000Y-12851000D01*
G37*
G36*
X73748228Y-11181703D02*
G01*
X73903100Y-11245853D01*
X74042481Y-11338985D01*
X74161015Y-11457519D01*
X74254147Y-11596900D01*
X74318297Y-11751772D01*
X74351000Y-11916184D01*
X74351000Y-12083816D01*
X74318297Y-12248228D01*
X74254147Y-12403100D01*
X74161015Y-12542481D01*
X74042481Y-12661015D01*
X73903100Y-12754147D01*
X73748228Y-12818297D01*
X73583816Y-12851000D01*
X73416184Y-12851000D01*
X73251772Y-12818297D01*
X73096900Y-12754147D01*
X72957519Y-12661015D01*
X72838985Y-12542481D01*
X72745853Y-12403100D01*
X72681703Y-12248228D01*
X72649000Y-12083816D01*
X72649000Y-11916184D01*
X72681703Y-11751772D01*
X72745853Y-11596900D01*
X72838985Y-11457519D01*
X72957519Y-11338985D01*
X73096900Y-11245853D01*
X73251772Y-11181703D01*
X73416184Y-11149000D01*
X73583816Y-11149000D01*
X73748228Y-11181703D01*
X73748228Y-11181703D01*
G37*
G36*
X48248228Y-11181703D02*
G01*
X48403100Y-11245853D01*
X48542481Y-11338985D01*
X48661015Y-11457519D01*
X48754147Y-11596900D01*
X48818297Y-11751772D01*
X48851000Y-11916184D01*
X48851000Y-12083816D01*
X48818297Y-12248228D01*
X48754147Y-12403100D01*
X48661015Y-12542481D01*
X48542481Y-12661015D01*
X48403100Y-12754147D01*
X48248228Y-12818297D01*
X48083816Y-12851000D01*
X47916184Y-12851000D01*
X47751772Y-12818297D01*
X47596900Y-12754147D01*
X47457519Y-12661015D01*
X47338985Y-12542481D01*
X47245853Y-12403100D01*
X47181703Y-12248228D01*
X47149000Y-12083816D01*
X47149000Y-11916184D01*
X47181703Y-11751772D01*
X47245853Y-11596900D01*
X47338985Y-11457519D01*
X47457519Y-11338985D01*
X47596900Y-11245853D01*
X47751772Y-11181703D01*
X47916184Y-11149000D01*
X48083816Y-11149000D01*
X48248228Y-11181703D01*
X48248228Y-11181703D01*
G37*
G36*
X90802585Y-6398802D02*
G01*
X90952410Y-6428604D01*
X91234674Y-6545521D01*
X91488705Y-6715259D01*
X91704741Y-6931295D01*
X91874479Y-7185326D01*
X91991396Y-7467590D01*
X92051000Y-7767240D01*
X92051000Y-8072760D01*
X91991396Y-8372410D01*
X91874479Y-8654674D01*
X91704741Y-8908705D01*
X91488705Y-9124741D01*
X91234674Y-9294479D01*
X90952410Y-9411396D01*
X90802585Y-9441198D01*
X90652761Y-9471000D01*
X90347239Y-9471000D01*
X90197415Y-9441198D01*
X90047590Y-9411396D01*
X89765326Y-9294479D01*
X89511295Y-9124741D01*
X89295259Y-8908705D01*
X89125521Y-8654674D01*
X89008604Y-8372410D01*
X88949000Y-8072760D01*
X88949000Y-7767240D01*
X89008604Y-7467590D01*
X89125521Y-7185326D01*
X89295259Y-6931295D01*
X89511295Y-6715259D01*
X89765326Y-6545521D01*
X90047590Y-6428604D01*
X90197415Y-6398802D01*
X90347239Y-6369000D01*
X90652761Y-6369000D01*
X90802585Y-6398802D01*
X90802585Y-6398802D01*
G37*
G36*
X44084687Y-3061507D02*
G01*
X44084690Y-3061508D01*
X44084689Y-3061508D01*
X44262309Y-3135080D01*
X44262310Y-3135081D01*
X44422161Y-3241889D01*
X44558111Y-3377839D01*
X44647158Y-3511109D01*
X44664920Y-3537691D01*
X44708680Y-3643339D01*
X44738493Y-3715313D01*
X44776000Y-3903871D01*
X44776000Y-4096129D01*
X44738493Y-4284687D01*
X44738492Y-4284689D01*
X44664920Y-4462309D01*
X44664919Y-4462310D01*
X44558111Y-4622161D01*
X44422161Y-4758111D01*
X44288891Y-4847158D01*
X44262309Y-4864920D01*
X44124927Y-4921825D01*
X44084687Y-4938493D01*
X43896129Y-4976000D01*
X43703871Y-4976000D01*
X43515313Y-4938493D01*
X43475073Y-4921825D01*
X43337691Y-4864920D01*
X43311109Y-4847158D01*
X43177839Y-4758111D01*
X43041889Y-4622161D01*
X42935081Y-4462310D01*
X42935080Y-4462309D01*
X42861508Y-4284689D01*
X42861507Y-4284687D01*
X42824000Y-4096129D01*
X42824000Y-3903871D01*
X42861507Y-3715313D01*
X42891320Y-3643339D01*
X42935080Y-3537691D01*
X42952842Y-3511109D01*
X43041889Y-3377839D01*
X43177839Y-3241889D01*
X43337690Y-3135081D01*
X43337691Y-3135080D01*
X43515311Y-3061508D01*
X43515310Y-3061508D01*
X43515313Y-3061507D01*
X43703871Y-3024000D01*
X43896129Y-3024000D01*
X44084687Y-3061507D01*
X44084687Y-3061507D01*
G37*
G36*
X57476000Y-4976000D02*
G01*
X55524000Y-4976000D01*
X55524000Y-3024000D01*
X57476000Y-3024000D01*
X57476000Y-4976000D01*
X57476000Y-4976000D01*
G37*
G36*
X54244687Y-3061507D02*
G01*
X54244690Y-3061508D01*
X54244689Y-3061508D01*
X54422309Y-3135080D01*
X54422310Y-3135081D01*
X54582161Y-3241889D01*
X54718111Y-3377839D01*
X54807158Y-3511109D01*
X54824920Y-3537691D01*
X54868680Y-3643339D01*
X54898493Y-3715313D01*
X54936000Y-3903871D01*
X54936000Y-4096129D01*
X54898493Y-4284687D01*
X54898492Y-4284689D01*
X54824920Y-4462309D01*
X54824919Y-4462310D01*
X54718111Y-4622161D01*
X54582161Y-4758111D01*
X54448891Y-4847158D01*
X54422309Y-4864920D01*
X54284927Y-4921825D01*
X54244687Y-4938493D01*
X54056129Y-4976000D01*
X53863871Y-4976000D01*
X53675313Y-4938493D01*
X53635073Y-4921825D01*
X53497691Y-4864920D01*
X53471109Y-4847158D01*
X53337839Y-4758111D01*
X53201889Y-4622161D01*
X53095081Y-4462310D01*
X53095080Y-4462309D01*
X53021508Y-4284689D01*
X53021507Y-4284687D01*
X52984000Y-4096129D01*
X52984000Y-3903871D01*
X53021507Y-3715313D01*
X53051320Y-3643339D01*
X53095080Y-3537691D01*
X53112842Y-3511109D01*
X53201889Y-3377839D01*
X53337839Y-3241889D01*
X53497690Y-3135081D01*
X53497691Y-3135080D01*
X53675311Y-3061508D01*
X53675310Y-3061508D01*
X53675313Y-3061507D01*
X53863871Y-3024000D01*
X54056129Y-3024000D01*
X54244687Y-3061507D01*
X54244687Y-3061507D01*
G37*
G36*
X49164687Y-3061507D02*
G01*
X49164690Y-3061508D01*
X49164689Y-3061508D01*
X49342309Y-3135080D01*
X49342310Y-3135081D01*
X49502161Y-3241889D01*
X49638111Y-3377839D01*
X49727158Y-3511109D01*
X49744920Y-3537691D01*
X49788680Y-3643339D01*
X49818493Y-3715313D01*
X49856000Y-3903871D01*
X49856000Y-4096129D01*
X49818493Y-4284687D01*
X49818492Y-4284689D01*
X49744920Y-4462309D01*
X49744919Y-4462310D01*
X49638111Y-4622161D01*
X49502161Y-4758111D01*
X49368891Y-4847158D01*
X49342309Y-4864920D01*
X49204927Y-4921825D01*
X49164687Y-4938493D01*
X48976129Y-4976000D01*
X48783871Y-4976000D01*
X48595313Y-4938493D01*
X48555073Y-4921825D01*
X48417691Y-4864920D01*
X48391109Y-4847158D01*
X48257839Y-4758111D01*
X48121889Y-4622161D01*
X48015081Y-4462310D01*
X48015080Y-4462309D01*
X47941508Y-4284689D01*
X47941507Y-4284687D01*
X47904000Y-4096129D01*
X47904000Y-3903871D01*
X47941507Y-3715313D01*
X47971320Y-3643339D01*
X48015080Y-3537691D01*
X48032842Y-3511109D01*
X48121889Y-3377839D01*
X48257839Y-3241889D01*
X48417690Y-3135081D01*
X48417691Y-3135080D01*
X48595311Y-3061508D01*
X48595310Y-3061508D01*
X48595313Y-3061507D01*
X48783871Y-3024000D01*
X48976129Y-3024000D01*
X49164687Y-3061507D01*
X49164687Y-3061507D01*
G37*
G36*
X46624687Y-3061507D02*
G01*
X46624690Y-3061508D01*
X46624689Y-3061508D01*
X46802309Y-3135080D01*
X46802310Y-3135081D01*
X46962161Y-3241889D01*
X47098111Y-3377839D01*
X47187158Y-3511109D01*
X47204920Y-3537691D01*
X47248680Y-3643339D01*
X47278493Y-3715313D01*
X47316000Y-3903871D01*
X47316000Y-4096129D01*
X47278493Y-4284687D01*
X47278492Y-4284689D01*
X47204920Y-4462309D01*
X47204919Y-4462310D01*
X47098111Y-4622161D01*
X46962161Y-4758111D01*
X46828891Y-4847158D01*
X46802309Y-4864920D01*
X46664927Y-4921825D01*
X46624687Y-4938493D01*
X46436129Y-4976000D01*
X46243871Y-4976000D01*
X46055313Y-4938493D01*
X46015073Y-4921825D01*
X45877691Y-4864920D01*
X45851109Y-4847158D01*
X45717839Y-4758111D01*
X45581889Y-4622161D01*
X45475081Y-4462310D01*
X45475080Y-4462309D01*
X45401508Y-4284689D01*
X45401507Y-4284687D01*
X45364000Y-4096129D01*
X45364000Y-3903871D01*
X45401507Y-3715313D01*
X45431320Y-3643339D01*
X45475080Y-3537691D01*
X45492842Y-3511109D01*
X45581889Y-3377839D01*
X45717839Y-3241889D01*
X45877690Y-3135081D01*
X45877691Y-3135080D01*
X46055311Y-3061508D01*
X46055310Y-3061508D01*
X46055313Y-3061507D01*
X46243871Y-3024000D01*
X46436129Y-3024000D01*
X46624687Y-3061507D01*
X46624687Y-3061507D01*
G37*
G36*
X90802585Y-1318802D02*
G01*
X90952410Y-1348604D01*
X91234674Y-1465521D01*
X91488705Y-1635259D01*
X91704741Y-1851295D01*
X91874479Y-2105326D01*
X91991396Y-2387590D01*
X92002696Y-2444400D01*
X92037859Y-2621173D01*
X92051000Y-2687240D01*
X92051000Y-2992760D01*
X91991396Y-3292410D01*
X91874479Y-3574674D01*
X91704741Y-3828705D01*
X91488705Y-4044741D01*
X91234674Y-4214479D01*
X90952410Y-4331396D01*
X90802585Y-4361198D01*
X90652761Y-4391000D01*
X90347239Y-4391000D01*
X90197415Y-4361198D01*
X90047590Y-4331396D01*
X89765326Y-4214479D01*
X89511295Y-4044741D01*
X89295259Y-3828705D01*
X89125521Y-3574674D01*
X89008604Y-3292410D01*
X88949000Y-2992760D01*
X88949000Y-2687240D01*
X88962142Y-2621173D01*
X88997304Y-2444400D01*
X89008604Y-2387590D01*
X89125521Y-2105326D01*
X89295259Y-1851295D01*
X89511295Y-1635259D01*
X89765326Y-1465521D01*
X90047590Y-1348604D01*
X90197415Y-1318802D01*
X90347239Y-1289000D01*
X90652761Y-1289000D01*
X90802585Y-1318802D01*
X90802585Y-1318802D01*
G37*
G36*
X24418604Y-2178347D02*
G01*
X24455144Y-2189432D01*
X24488821Y-2207433D01*
X24518341Y-2231659D01*
X24542567Y-2261179D01*
X24560568Y-2294856D01*
X24571653Y-2331396D01*
X24576000Y-2375538D01*
X24576000Y-3824462D01*
X24571653Y-3868604D01*
X24560568Y-3905144D01*
X24542567Y-3938821D01*
X24518341Y-3968341D01*
X24488821Y-3992567D01*
X24455144Y-4010568D01*
X24418604Y-4021653D01*
X24374462Y-4026000D01*
X23425538Y-4026000D01*
X23381396Y-4021653D01*
X23344856Y-4010568D01*
X23311179Y-3992567D01*
X23281659Y-3968341D01*
X23257433Y-3938821D01*
X23239432Y-3905144D01*
X23228347Y-3868604D01*
X23224000Y-3824462D01*
X23224000Y-2375538D01*
X23228347Y-2331396D01*
X23239432Y-2294856D01*
X23257433Y-2261179D01*
X23281659Y-2231659D01*
X23311179Y-2207433D01*
X23344856Y-2189432D01*
X23381396Y-2178347D01*
X23425538Y-2174000D01*
X24374462Y-2174000D01*
X24418604Y-2178347D01*
X24418604Y-2178347D01*
G37*
G36*
X27218604Y-2178347D02*
G01*
X27255144Y-2189432D01*
X27288821Y-2207433D01*
X27318341Y-2231659D01*
X27342567Y-2261179D01*
X27360568Y-2294856D01*
X27371653Y-2331396D01*
X27376000Y-2375538D01*
X27376000Y-3824462D01*
X27371653Y-3868604D01*
X27360568Y-3905144D01*
X27342567Y-3938821D01*
X27318341Y-3968341D01*
X27288821Y-3992567D01*
X27255144Y-4010568D01*
X27218604Y-4021653D01*
X27174462Y-4026000D01*
X26225538Y-4026000D01*
X26181396Y-4021653D01*
X26144856Y-4010568D01*
X26111179Y-3992567D01*
X26081659Y-3968341D01*
X26057433Y-3938821D01*
X26039432Y-3905144D01*
X26028347Y-3868604D01*
X26024000Y-3824462D01*
X26024000Y-2375538D01*
X26028347Y-2331396D01*
X26039432Y-2294856D01*
X26057433Y-2261179D01*
X26081659Y-2231659D01*
X26111179Y-2207433D01*
X26144856Y-2189432D01*
X26181396Y-2178347D01*
X26225538Y-2174000D01*
X27174462Y-2174000D01*
X27218604Y-2178347D01*
X27218604Y-2178347D01*
G37*
G36*
X31813674Y-2353465D02*
G01*
X31851367Y-2364899D01*
X31886103Y-2383466D01*
X31916548Y-2408452D01*
X31941534Y-2438897D01*
X31960101Y-2473633D01*
X31971535Y-2511326D01*
X31976000Y-2556661D01*
X31976000Y-3643339D01*
X31971535Y-3688674D01*
X31960101Y-3726367D01*
X31941534Y-3761103D01*
X31916548Y-3791548D01*
X31886103Y-3816534D01*
X31851367Y-3835101D01*
X31813674Y-3846535D01*
X31768339Y-3851000D01*
X30931661Y-3851000D01*
X30886326Y-3846535D01*
X30848633Y-3835101D01*
X30813897Y-3816534D01*
X30783452Y-3791548D01*
X30758466Y-3761103D01*
X30739899Y-3726367D01*
X30728465Y-3688674D01*
X30724000Y-3643339D01*
X30724000Y-2556661D01*
X30728465Y-2511326D01*
X30739899Y-2473633D01*
X30758466Y-2438897D01*
X30783452Y-2408452D01*
X30813897Y-2383466D01*
X30848633Y-2364899D01*
X30886326Y-2353465D01*
X30931661Y-2349000D01*
X31768339Y-2349000D01*
X31813674Y-2353465D01*
X31813674Y-2353465D01*
G37*
G36*
X29763674Y-2353465D02*
G01*
X29801367Y-2364899D01*
X29836103Y-2383466D01*
X29866548Y-2408452D01*
X29891534Y-2438897D01*
X29910101Y-2473633D01*
X29921535Y-2511326D01*
X29926000Y-2556661D01*
X29926000Y-3643339D01*
X29921535Y-3688674D01*
X29910101Y-3726367D01*
X29891534Y-3761103D01*
X29866548Y-3791548D01*
X29836103Y-3816534D01*
X29801367Y-3835101D01*
X29763674Y-3846535D01*
X29718339Y-3851000D01*
X28881661Y-3851000D01*
X28836326Y-3846535D01*
X28798633Y-3835101D01*
X28763897Y-3816534D01*
X28733452Y-3791548D01*
X28708466Y-3761103D01*
X28689899Y-3726367D01*
X28678465Y-3688674D01*
X28674000Y-3643339D01*
X28674000Y-2556661D01*
X28678465Y-2511326D01*
X28689899Y-2473633D01*
X28708466Y-2438897D01*
X28733452Y-2408452D01*
X28763897Y-2383466D01*
X28798633Y-2364899D01*
X28836326Y-2353465D01*
X28881661Y-2349000D01*
X29718339Y-2349000D01*
X29763674Y-2353465D01*
X29763674Y-2353465D01*
G37*
G36*
X78851000Y-3351000D02*
G01*
X77149000Y-3351000D01*
X77149000Y-1649000D01*
X78851000Y-1649000D01*
X78851000Y-3351000D01*
X78851000Y-3351000D01*
G37*
G36*
X73248228Y-1681703D02*
G01*
X73403100Y-1745853D01*
X73542481Y-1838985D01*
X73661015Y-1957519D01*
X73754147Y-2096900D01*
X73818297Y-2251772D01*
X73851000Y-2416184D01*
X73851000Y-2583816D01*
X73818297Y-2748228D01*
X73754147Y-2903100D01*
X73661015Y-3042481D01*
X73542481Y-3161015D01*
X73403100Y-3254147D01*
X73248228Y-3318297D01*
X73083816Y-3351000D01*
X72916184Y-3351000D01*
X72751772Y-3318297D01*
X72596900Y-3254147D01*
X72457519Y-3161015D01*
X72338985Y-3042481D01*
X72245853Y-2903100D01*
X72181703Y-2748228D01*
X72149000Y-2583816D01*
X72149000Y-2416184D01*
X72181703Y-2251772D01*
X72245853Y-2096900D01*
X72338985Y-1957519D01*
X72457519Y-1838985D01*
X72596900Y-1745853D01*
X72751772Y-1681703D01*
X72916184Y-1649000D01*
X73083816Y-1649000D01*
X73248228Y-1681703D01*
X73248228Y-1681703D01*
G37*
G36*
X67851000Y-3351000D02*
G01*
X66149000Y-3351000D01*
X66149000Y-1649000D01*
X67851000Y-1649000D01*
X67851000Y-3351000D01*
X67851000Y-3351000D01*
G37*
G36*
X62248228Y-1681703D02*
G01*
X62403100Y-1745853D01*
X62542481Y-1838985D01*
X62661015Y-1957519D01*
X62754147Y-2096900D01*
X62818297Y-2251772D01*
X62851000Y-2416184D01*
X62851000Y-2583816D01*
X62818297Y-2748228D01*
X62754147Y-2903100D01*
X62661015Y-3042481D01*
X62542481Y-3161015D01*
X62403100Y-3254147D01*
X62248228Y-3318297D01*
X62083816Y-3351000D01*
X61916184Y-3351000D01*
X61751772Y-3318297D01*
X61596900Y-3254147D01*
X61457519Y-3161015D01*
X61338985Y-3042481D01*
X61245853Y-2903100D01*
X61181703Y-2748228D01*
X61149000Y-2583816D01*
X61149000Y-2416184D01*
X61181703Y-2251772D01*
X61245853Y-2096900D01*
X61338985Y-1957519D01*
X61457519Y-1838985D01*
X61596900Y-1745853D01*
X61751772Y-1681703D01*
X61916184Y-1649000D01*
X62083816Y-1649000D01*
X62248228Y-1681703D01*
X62248228Y-1681703D01*
G37*
G36*
X19051000Y-2051000D02*
G01*
X15949000Y-2051000D01*
X15949000Y1051000D01*
X19051000Y1051000D01*
X19051000Y-2051000D01*
X19051000Y-2051000D01*
G37*
G36*
X12722585Y1021198D02*
G01*
X12872410Y991396D01*
X13154674Y874479D01*
X13408705Y704741D01*
X13624741Y488705D01*
X13794479Y234674D01*
X13911396Y-47590D01*
X13971000Y-347240D01*
X13971000Y-652760D01*
X13911396Y-952410D01*
X13794479Y-1234674D01*
X13624741Y-1488705D01*
X13408705Y-1704741D01*
X13154674Y-1874479D01*
X12872410Y-1991396D01*
X12722585Y-2021198D01*
X12572761Y-2051000D01*
X12267239Y-2051000D01*
X12117415Y-2021198D01*
X11967590Y-1991396D01*
X11685326Y-1874479D01*
X11431295Y-1704741D01*
X11215259Y-1488705D01*
X11045521Y-1234674D01*
X10928604Y-952410D01*
X10869000Y-652760D01*
X10869000Y-347240D01*
X10928604Y-47590D01*
X11045521Y234674D01*
X11215259Y488705D01*
X11431295Y704741D01*
X11685326Y874479D01*
X11967590Y991396D01*
X12117415Y1021198D01*
X12267239Y1051000D01*
X12572761Y1051000D01*
X12722585Y1021198D01*
X12722585Y1021198D01*
G37*
G36*
X7642585Y1021198D02*
G01*
X7792410Y991396D01*
X8074674Y874479D01*
X8328705Y704741D01*
X8544741Y488705D01*
X8714479Y234674D01*
X8831396Y-47590D01*
X8891000Y-347240D01*
X8891000Y-652760D01*
X8831396Y-952410D01*
X8714479Y-1234674D01*
X8544741Y-1488705D01*
X8328705Y-1704741D01*
X8074674Y-1874479D01*
X7792410Y-1991396D01*
X7642585Y-2021198D01*
X7492761Y-2051000D01*
X7187239Y-2051000D01*
X7037415Y-2021198D01*
X6887590Y-1991396D01*
X6605326Y-1874479D01*
X6351295Y-1704741D01*
X6135259Y-1488705D01*
X5965521Y-1234674D01*
X5848604Y-952410D01*
X5789000Y-652760D01*
X5789000Y-347240D01*
X5848604Y-47590D01*
X5965521Y234674D01*
X6135259Y488705D01*
X6351295Y704741D01*
X6605326Y874479D01*
X6887590Y991396D01*
X7037415Y1021198D01*
X7187239Y1051000D01*
X7492761Y1051000D01*
X7642585Y1021198D01*
X7642585Y1021198D01*
G37*
M02*
