G04 #@! TF.GenerationSoftware,KiCad,Pcbnew,(5.1.4)-1*
G04 #@! TF.CreationDate,2020-01-12T19:46:33+08:00*
G04 #@! TF.ProjectId,i2c x2 relays socketed,69326320-7832-4207-9265-6c6179732073,rev?*
G04 #@! TF.SameCoordinates,Original*
G04 #@! TF.FileFunction,Legend,Top*
G04 #@! TF.FilePolarity,Positive*
%FSLAX46Y46*%
G04 Gerber Fmt 4.6, Leading zero omitted, Abs format (unit mm)*
G04 Created by KiCad (PCBNEW (5.1.4)-1) date 2020-01-12 19:46:33*
%MOMM*%
%LPD*%
G04 APERTURE LIST*
%ADD10C,0.250000*%
%ADD11C,0.375000*%
%ADD12C,0.150000*%
%ADD13C,0.100000*%
%ADD14C,0.325000*%
%ADD15C,0.120000*%
%ADD16C,0.152400*%
%ADD17C,0.254000*%
%ADD18C,0.015000*%
G04 APERTURE END LIST*
D10*
X52352380Y-49402380D02*
X52352380Y-48735714D01*
X52352380Y-48402380D02*
X52304761Y-48450000D01*
X52352380Y-48497619D01*
X52400000Y-48450000D01*
X52352380Y-48402380D01*
X52352380Y-48497619D01*
X52780952Y-48497619D02*
X52828571Y-48450000D01*
X52923809Y-48402380D01*
X53161904Y-48402380D01*
X53257142Y-48450000D01*
X53304761Y-48497619D01*
X53352380Y-48592857D01*
X53352380Y-48688095D01*
X53304761Y-48830952D01*
X52733333Y-49402380D01*
X53352380Y-49402380D01*
X54209523Y-49354761D02*
X54114285Y-49402380D01*
X53923809Y-49402380D01*
X53828571Y-49354761D01*
X53780952Y-49307142D01*
X53733333Y-49211904D01*
X53733333Y-48926190D01*
X53780952Y-48830952D01*
X53828571Y-48783333D01*
X53923809Y-48735714D01*
X54114285Y-48735714D01*
X54209523Y-48783333D01*
X55304761Y-49402380D02*
X55828571Y-48735714D01*
X55304761Y-48735714D02*
X55828571Y-49402380D01*
X56161904Y-48497619D02*
X56209523Y-48450000D01*
X56304761Y-48402380D01*
X56542857Y-48402380D01*
X56638095Y-48450000D01*
X56685714Y-48497619D01*
X56733333Y-48592857D01*
X56733333Y-48688095D01*
X56685714Y-48830952D01*
X56114285Y-49402380D01*
X56733333Y-49402380D01*
X48923809Y-51104761D02*
X49066666Y-51152380D01*
X49304761Y-51152380D01*
X49400000Y-51104761D01*
X49447619Y-51057142D01*
X49495238Y-50961904D01*
X49495238Y-50866666D01*
X49447619Y-50771428D01*
X49400000Y-50723809D01*
X49304761Y-50676190D01*
X49114285Y-50628571D01*
X49019047Y-50580952D01*
X48971428Y-50533333D01*
X48923809Y-50438095D01*
X48923809Y-50342857D01*
X48971428Y-50247619D01*
X49019047Y-50200000D01*
X49114285Y-50152380D01*
X49352380Y-50152380D01*
X49495238Y-50200000D01*
X50066666Y-51152380D02*
X49971428Y-51104761D01*
X49923809Y-51057142D01*
X49876190Y-50961904D01*
X49876190Y-50676190D01*
X49923809Y-50580952D01*
X49971428Y-50533333D01*
X50066666Y-50485714D01*
X50209523Y-50485714D01*
X50304761Y-50533333D01*
X50352380Y-50580952D01*
X50400000Y-50676190D01*
X50400000Y-50961904D01*
X50352380Y-51057142D01*
X50304761Y-51104761D01*
X50209523Y-51152380D01*
X50066666Y-51152380D01*
X51257142Y-51104761D02*
X51161904Y-51152380D01*
X50971428Y-51152380D01*
X50876190Y-51104761D01*
X50828571Y-51057142D01*
X50780952Y-50961904D01*
X50780952Y-50676190D01*
X50828571Y-50580952D01*
X50876190Y-50533333D01*
X50971428Y-50485714D01*
X51161904Y-50485714D01*
X51257142Y-50533333D01*
X51685714Y-51152380D02*
X51685714Y-50152380D01*
X51780952Y-50771428D02*
X52066666Y-51152380D01*
X52066666Y-50485714D02*
X51685714Y-50866666D01*
X52876190Y-51104761D02*
X52780952Y-51152380D01*
X52590476Y-51152380D01*
X52495238Y-51104761D01*
X52447619Y-51009523D01*
X52447619Y-50628571D01*
X52495238Y-50533333D01*
X52590476Y-50485714D01*
X52780952Y-50485714D01*
X52876190Y-50533333D01*
X52923809Y-50628571D01*
X52923809Y-50723809D01*
X52447619Y-50819047D01*
X53209523Y-50485714D02*
X53590476Y-50485714D01*
X53352380Y-50152380D02*
X53352380Y-51009523D01*
X53400000Y-51104761D01*
X53495238Y-51152380D01*
X53590476Y-51152380D01*
X54304761Y-51104761D02*
X54209523Y-51152380D01*
X54019047Y-51152380D01*
X53923809Y-51104761D01*
X53876190Y-51009523D01*
X53876190Y-50628571D01*
X53923809Y-50533333D01*
X54019047Y-50485714D01*
X54209523Y-50485714D01*
X54304761Y-50533333D01*
X54352380Y-50628571D01*
X54352380Y-50723809D01*
X53876190Y-50819047D01*
X55209523Y-51152380D02*
X55209523Y-50152380D01*
X55209523Y-51104761D02*
X55114285Y-51152380D01*
X54923809Y-51152380D01*
X54828571Y-51104761D01*
X54780952Y-51057142D01*
X54733333Y-50961904D01*
X54733333Y-50676190D01*
X54780952Y-50580952D01*
X54828571Y-50533333D01*
X54923809Y-50485714D01*
X55114285Y-50485714D01*
X55209523Y-50533333D01*
X57019047Y-51152380D02*
X56685714Y-50676190D01*
X56447619Y-51152380D02*
X56447619Y-50152380D01*
X56828571Y-50152380D01*
X56923809Y-50200000D01*
X56971428Y-50247619D01*
X57019047Y-50342857D01*
X57019047Y-50485714D01*
X56971428Y-50580952D01*
X56923809Y-50628571D01*
X56828571Y-50676190D01*
X56447619Y-50676190D01*
X57828571Y-51104761D02*
X57733333Y-51152380D01*
X57542857Y-51152380D01*
X57447619Y-51104761D01*
X57400000Y-51009523D01*
X57400000Y-50628571D01*
X57447619Y-50533333D01*
X57542857Y-50485714D01*
X57733333Y-50485714D01*
X57828571Y-50533333D01*
X57876190Y-50628571D01*
X57876190Y-50723809D01*
X57400000Y-50819047D01*
X58447619Y-51152380D02*
X58352380Y-51104761D01*
X58304761Y-51009523D01*
X58304761Y-50152380D01*
X59257142Y-51152380D02*
X59257142Y-50628571D01*
X59209523Y-50533333D01*
X59114285Y-50485714D01*
X58923809Y-50485714D01*
X58828571Y-50533333D01*
X59257142Y-51104761D02*
X59161904Y-51152380D01*
X58923809Y-51152380D01*
X58828571Y-51104761D01*
X58780952Y-51009523D01*
X58780952Y-50914285D01*
X58828571Y-50819047D01*
X58923809Y-50771428D01*
X59161904Y-50771428D01*
X59257142Y-50723809D01*
X59638095Y-50485714D02*
X59876190Y-51152380D01*
X60114285Y-50485714D02*
X59876190Y-51152380D01*
X59780952Y-51390476D01*
X59733333Y-51438095D01*
X59638095Y-51485714D01*
X60447619Y-51104761D02*
X60542857Y-51152380D01*
X60733333Y-51152380D01*
X60828571Y-51104761D01*
X60876190Y-51009523D01*
X60876190Y-50961904D01*
X60828571Y-50866666D01*
X60733333Y-50819047D01*
X60590476Y-50819047D01*
X60495238Y-50771428D01*
X60447619Y-50676190D01*
X60447619Y-50628571D01*
X60495238Y-50533333D01*
X60590476Y-50485714D01*
X60733333Y-50485714D01*
X60828571Y-50533333D01*
X49042857Y-52235714D02*
X49280952Y-52902380D01*
X49519047Y-52235714D01*
X50423809Y-52902380D02*
X49852380Y-52902380D01*
X50138095Y-52902380D02*
X50138095Y-51902380D01*
X50042857Y-52045238D01*
X49947619Y-52140476D01*
X49852380Y-52188095D01*
X51900000Y-51902380D02*
X51900000Y-52616666D01*
X51852380Y-52759523D01*
X51757142Y-52854761D01*
X51614285Y-52902380D01*
X51519047Y-52902380D01*
X52804761Y-52902380D02*
X52804761Y-52378571D01*
X52757142Y-52283333D01*
X52661904Y-52235714D01*
X52471428Y-52235714D01*
X52376190Y-52283333D01*
X52804761Y-52854761D02*
X52709523Y-52902380D01*
X52471428Y-52902380D01*
X52376190Y-52854761D01*
X52328571Y-52759523D01*
X52328571Y-52664285D01*
X52376190Y-52569047D01*
X52471428Y-52521428D01*
X52709523Y-52521428D01*
X52804761Y-52473809D01*
X53709523Y-52854761D02*
X53614285Y-52902380D01*
X53423809Y-52902380D01*
X53328571Y-52854761D01*
X53280952Y-52807142D01*
X53233333Y-52711904D01*
X53233333Y-52426190D01*
X53280952Y-52330952D01*
X53328571Y-52283333D01*
X53423809Y-52235714D01*
X53614285Y-52235714D01*
X53709523Y-52283333D01*
X54280952Y-52902380D02*
X54185714Y-52854761D01*
X54138095Y-52807142D01*
X54090476Y-52711904D01*
X54090476Y-52426190D01*
X54138095Y-52330952D01*
X54185714Y-52283333D01*
X54280952Y-52235714D01*
X54423809Y-52235714D01*
X54519047Y-52283333D01*
X54566666Y-52330952D01*
X54614285Y-52426190D01*
X54614285Y-52711904D01*
X54566666Y-52807142D01*
X54519047Y-52854761D01*
X54423809Y-52902380D01*
X54280952Y-52902380D01*
X55042857Y-52902380D02*
X55042857Y-51902380D01*
X55042857Y-52283333D02*
X55138095Y-52235714D01*
X55328571Y-52235714D01*
X55423809Y-52283333D01*
X55471428Y-52330952D01*
X55519047Y-52426190D01*
X55519047Y-52711904D01*
X55471428Y-52807142D01*
X55423809Y-52854761D01*
X55328571Y-52902380D01*
X55138095Y-52902380D01*
X55042857Y-52854761D01*
X56995238Y-51902380D02*
X56995238Y-52616666D01*
X56947619Y-52759523D01*
X56852380Y-52854761D01*
X56709523Y-52902380D01*
X56614285Y-52902380D01*
X57900000Y-52902380D02*
X57900000Y-52378571D01*
X57852380Y-52283333D01*
X57757142Y-52235714D01*
X57566666Y-52235714D01*
X57471428Y-52283333D01*
X57900000Y-52854761D02*
X57804761Y-52902380D01*
X57566666Y-52902380D01*
X57471428Y-52854761D01*
X57423809Y-52759523D01*
X57423809Y-52664285D01*
X57471428Y-52569047D01*
X57566666Y-52521428D01*
X57804761Y-52521428D01*
X57900000Y-52473809D01*
X58376190Y-52902380D02*
X58376190Y-52235714D01*
X58376190Y-52426190D02*
X58423809Y-52330952D01*
X58471428Y-52283333D01*
X58566666Y-52235714D01*
X58661904Y-52235714D01*
X58995238Y-52902380D02*
X58995238Y-52235714D01*
X58995238Y-51902380D02*
X58947619Y-51950000D01*
X58995238Y-51997619D01*
X59042857Y-51950000D01*
X58995238Y-51902380D01*
X58995238Y-51997619D01*
X59900000Y-52854761D02*
X59804761Y-52902380D01*
X59614285Y-52902380D01*
X59519047Y-52854761D01*
X59471428Y-52807142D01*
X59423809Y-52711904D01*
X59423809Y-52426190D01*
X59471428Y-52330952D01*
X59519047Y-52283333D01*
X59614285Y-52235714D01*
X59804761Y-52235714D01*
X59900000Y-52283333D01*
X60328571Y-52902380D02*
X60328571Y-51902380D01*
X60423809Y-52521428D02*
X60709523Y-52902380D01*
X60709523Y-52235714D02*
X60328571Y-52616666D01*
D11*
X82357142Y-2178571D02*
X82857142Y-3678571D01*
X83357142Y-2178571D01*
X83857142Y-3678571D02*
X83857142Y-2178571D01*
X84571428Y-3678571D02*
X84571428Y-2178571D01*
X85428571Y-3678571D01*
X85428571Y-2178571D01*
X81357142Y-7178571D02*
X82285714Y-7178571D01*
X81785714Y-7750000D01*
X82000000Y-7750000D01*
X82142857Y-7821428D01*
X82214285Y-7892857D01*
X82285714Y-8035714D01*
X82285714Y-8392857D01*
X82214285Y-8535714D01*
X82142857Y-8607142D01*
X82000000Y-8678571D01*
X81571428Y-8678571D01*
X81428571Y-8607142D01*
X81357142Y-8535714D01*
X82928571Y-8535714D02*
X83000000Y-8607142D01*
X82928571Y-8678571D01*
X82857142Y-8607142D01*
X82928571Y-8535714D01*
X82928571Y-8678571D01*
X83500000Y-7178571D02*
X84428571Y-7178571D01*
X83928571Y-7750000D01*
X84142857Y-7750000D01*
X84285714Y-7821428D01*
X84357142Y-7892857D01*
X84428571Y-8035714D01*
X84428571Y-8392857D01*
X84357142Y-8535714D01*
X84285714Y-8607142D01*
X84142857Y-8678571D01*
X83714285Y-8678571D01*
X83571428Y-8607142D01*
X83500000Y-8535714D01*
X84928571Y-7678571D02*
X85285714Y-8678571D01*
X85642857Y-7678571D01*
X82357142Y-12750000D02*
X82214285Y-12678571D01*
X82000000Y-12678571D01*
X81785714Y-12750000D01*
X81642857Y-12892857D01*
X81571428Y-13035714D01*
X81500000Y-13321428D01*
X81500000Y-13535714D01*
X81571428Y-13821428D01*
X81642857Y-13964285D01*
X81785714Y-14107142D01*
X82000000Y-14178571D01*
X82142857Y-14178571D01*
X82357142Y-14107142D01*
X82428571Y-14035714D01*
X82428571Y-13535714D01*
X82142857Y-13535714D01*
X83071428Y-14178571D02*
X83071428Y-12678571D01*
X83928571Y-14178571D01*
X83928571Y-12678571D01*
X84642857Y-14178571D02*
X84642857Y-12678571D01*
X85000000Y-12678571D01*
X85214285Y-12750000D01*
X85357142Y-12892857D01*
X85428571Y-13035714D01*
X85500000Y-13321428D01*
X85500000Y-13535714D01*
X85428571Y-13821428D01*
X85357142Y-13964285D01*
X85214285Y-14107142D01*
X85000000Y-14178571D01*
X84642857Y-14178571D01*
D12*
X24738095Y547619D02*
X24404761Y1023809D01*
X24166666Y547619D02*
X24166666Y1547619D01*
X24547619Y1547619D01*
X24642857Y1500000D01*
X24690476Y1452380D01*
X24738095Y1357142D01*
X24738095Y1214285D01*
X24690476Y1119047D01*
X24642857Y1071428D01*
X24547619Y1023809D01*
X24166666Y1023809D01*
X25166666Y1071428D02*
X25500000Y1071428D01*
X25642857Y547619D02*
X25166666Y547619D01*
X25166666Y1547619D01*
X25642857Y1547619D01*
X26547619Y547619D02*
X26071428Y547619D01*
X26071428Y1547619D01*
X26833333Y833333D02*
X27309523Y833333D01*
X26738095Y547619D02*
X27071428Y1547619D01*
X27404761Y547619D01*
X27928571Y1023809D02*
X27928571Y547619D01*
X27595238Y1547619D02*
X27928571Y1023809D01*
X28261904Y1547619D01*
X29309523Y1452380D02*
X29357142Y1500000D01*
X29452380Y1547619D01*
X29690476Y1547619D01*
X29785714Y1500000D01*
X29833333Y1452380D01*
X29880952Y1357142D01*
X29880952Y1261904D01*
X29833333Y1119047D01*
X29261904Y547619D01*
X29880952Y547619D01*
X24238095Y-59952380D02*
X23904761Y-59476190D01*
X23666666Y-59952380D02*
X23666666Y-58952380D01*
X24047619Y-58952380D01*
X24142857Y-59000000D01*
X24190476Y-59047619D01*
X24238095Y-59142857D01*
X24238095Y-59285714D01*
X24190476Y-59380952D01*
X24142857Y-59428571D01*
X24047619Y-59476190D01*
X23666666Y-59476190D01*
X24666666Y-59428571D02*
X25000000Y-59428571D01*
X25142857Y-59952380D02*
X24666666Y-59952380D01*
X24666666Y-58952380D01*
X25142857Y-58952380D01*
X26047619Y-59952380D02*
X25571428Y-59952380D01*
X25571428Y-58952380D01*
X26333333Y-59666666D02*
X26809523Y-59666666D01*
X26238095Y-59952380D02*
X26571428Y-58952380D01*
X26904761Y-59952380D01*
X27428571Y-59476190D02*
X27428571Y-59952380D01*
X27095238Y-58952380D02*
X27428571Y-59476190D01*
X27761904Y-58952380D01*
X29380952Y-59952380D02*
X28809523Y-59952380D01*
X29095238Y-59952380D02*
X29095238Y-58952380D01*
X29000000Y-59095238D01*
X28904761Y-59190476D01*
X28809523Y-59238095D01*
D13*
X13726190Y-30285714D02*
X13726190Y-30190476D01*
X13750000Y-30142857D01*
X13797619Y-30095238D01*
X13892857Y-30071428D01*
X14059523Y-30071428D01*
X14154761Y-30095238D01*
X14202380Y-30142857D01*
X14226190Y-30190476D01*
X14226190Y-30285714D01*
X14202380Y-30333333D01*
X14154761Y-30380952D01*
X14059523Y-30404761D01*
X13892857Y-30404761D01*
X13797619Y-30380952D01*
X13750000Y-30333333D01*
X13726190Y-30285714D01*
X14226190Y-29857142D02*
X13726190Y-29857142D01*
X13726190Y-29666666D01*
X13750000Y-29619047D01*
X13773809Y-29595238D01*
X13821428Y-29571428D01*
X13892857Y-29571428D01*
X13940476Y-29595238D01*
X13964285Y-29619047D01*
X13988095Y-29666666D01*
X13988095Y-29857142D01*
X13964285Y-29357142D02*
X13964285Y-29190476D01*
X14226190Y-29119047D02*
X14226190Y-29357142D01*
X13726190Y-29357142D01*
X13726190Y-29119047D01*
X14226190Y-28904761D02*
X13726190Y-28904761D01*
X14226190Y-28619047D01*
X13726190Y-28619047D01*
X19678571Y-30702380D02*
X19702380Y-30726190D01*
X19726190Y-30797619D01*
X19726190Y-30845238D01*
X19702380Y-30916666D01*
X19654761Y-30964285D01*
X19607142Y-30988095D01*
X19511904Y-31011904D01*
X19440476Y-31011904D01*
X19345238Y-30988095D01*
X19297619Y-30964285D01*
X19250000Y-30916666D01*
X19226190Y-30845238D01*
X19226190Y-30797619D01*
X19250000Y-30726190D01*
X19273809Y-30702380D01*
X19226190Y-30392857D02*
X19226190Y-30297619D01*
X19250000Y-30250000D01*
X19297619Y-30202380D01*
X19392857Y-30178571D01*
X19559523Y-30178571D01*
X19654761Y-30202380D01*
X19702380Y-30250000D01*
X19726190Y-30297619D01*
X19726190Y-30392857D01*
X19702380Y-30440476D01*
X19654761Y-30488095D01*
X19559523Y-30511904D01*
X19392857Y-30511904D01*
X19297619Y-30488095D01*
X19250000Y-30440476D01*
X19226190Y-30392857D01*
X19726190Y-29964285D02*
X19226190Y-29964285D01*
X19583333Y-29797619D01*
X19226190Y-29630952D01*
X19726190Y-29630952D01*
X19726190Y-29392857D02*
X19226190Y-29392857D01*
X19583333Y-29226190D01*
X19226190Y-29059523D01*
X19726190Y-29059523D01*
X19226190Y-28726190D02*
X19226190Y-28630952D01*
X19250000Y-28583333D01*
X19297619Y-28535714D01*
X19392857Y-28511904D01*
X19559523Y-28511904D01*
X19654761Y-28535714D01*
X19702380Y-28583333D01*
X19726190Y-28630952D01*
X19726190Y-28726190D01*
X19702380Y-28773809D01*
X19654761Y-28821428D01*
X19559523Y-28845238D01*
X19392857Y-28845238D01*
X19297619Y-28821428D01*
X19250000Y-28773809D01*
X19226190Y-28726190D01*
X19726190Y-28297619D02*
X19226190Y-28297619D01*
X19726190Y-28011904D01*
X19226190Y-28011904D01*
X9178571Y-30273809D02*
X9202380Y-30297619D01*
X9226190Y-30369047D01*
X9226190Y-30416666D01*
X9202380Y-30488095D01*
X9154761Y-30535714D01*
X9107142Y-30559523D01*
X9011904Y-30583333D01*
X8940476Y-30583333D01*
X8845238Y-30559523D01*
X8797619Y-30535714D01*
X8750000Y-30488095D01*
X8726190Y-30416666D01*
X8726190Y-30369047D01*
X8750000Y-30297619D01*
X8773809Y-30273809D01*
X9226190Y-29821428D02*
X9226190Y-30059523D01*
X8726190Y-30059523D01*
X8726190Y-29559523D02*
X8726190Y-29464285D01*
X8750000Y-29416666D01*
X8797619Y-29369047D01*
X8892857Y-29345238D01*
X9059523Y-29345238D01*
X9154761Y-29369047D01*
X9202380Y-29416666D01*
X9226190Y-29464285D01*
X9226190Y-29559523D01*
X9202380Y-29607142D01*
X9154761Y-29654761D01*
X9059523Y-29678571D01*
X8892857Y-29678571D01*
X8797619Y-29654761D01*
X8750000Y-29607142D01*
X8726190Y-29559523D01*
X9202380Y-29154761D02*
X9226190Y-29083333D01*
X9226190Y-28964285D01*
X9202380Y-28916666D01*
X9178571Y-28892857D01*
X9130952Y-28869047D01*
X9083333Y-28869047D01*
X9035714Y-28892857D01*
X9011904Y-28916666D01*
X8988095Y-28964285D01*
X8964285Y-29059523D01*
X8940476Y-29107142D01*
X8916666Y-29130952D01*
X8869047Y-29154761D01*
X8821428Y-29154761D01*
X8773809Y-29130952D01*
X8750000Y-29107142D01*
X8726190Y-29059523D01*
X8726190Y-28940476D01*
X8750000Y-28869047D01*
X8964285Y-28654761D02*
X8964285Y-28488095D01*
X9226190Y-28416666D02*
X9226190Y-28654761D01*
X8726190Y-28654761D01*
X8726190Y-28416666D01*
D14*
X8028571Y-30521428D02*
X6528571Y-30521428D01*
X8028571Y-29778571D01*
X6528571Y-29778571D01*
X7885714Y-28416666D02*
X7957142Y-28478571D01*
X8028571Y-28664285D01*
X8028571Y-28788095D01*
X7957142Y-28973809D01*
X7814285Y-29097619D01*
X7671428Y-29159523D01*
X7385714Y-29221428D01*
X7171428Y-29221428D01*
X6885714Y-29159523D01*
X6742857Y-29097619D01*
X6600000Y-28973809D01*
X6528571Y-28788095D01*
X6528571Y-28664285D01*
X6600000Y-28478571D01*
X6671428Y-28416666D01*
X13178571Y-30552380D02*
X11678571Y-30552380D01*
X13178571Y-29809523D01*
X11678571Y-29809523D01*
X11678571Y-28942857D02*
X11678571Y-28695238D01*
X11750000Y-28571428D01*
X11892857Y-28447619D01*
X12178571Y-28385714D01*
X12678571Y-28385714D01*
X12964285Y-28447619D01*
X13107142Y-28571428D01*
X13178571Y-28695238D01*
X13178571Y-28942857D01*
X13107142Y-29066666D01*
X12964285Y-29190476D01*
X12678571Y-29252380D01*
X12178571Y-29252380D01*
X11892857Y-29190476D01*
X11750000Y-29066666D01*
X11678571Y-28942857D01*
X18185714Y-30521428D02*
X18257142Y-30583333D01*
X18328571Y-30769047D01*
X18328571Y-30892857D01*
X18257142Y-31078571D01*
X18114285Y-31202380D01*
X17971428Y-31264285D01*
X17685714Y-31326190D01*
X17471428Y-31326190D01*
X17185714Y-31264285D01*
X17042857Y-31202380D01*
X16900000Y-31078571D01*
X16828571Y-30892857D01*
X16828571Y-30769047D01*
X16900000Y-30583333D01*
X16971428Y-30521428D01*
X16828571Y-29716666D02*
X16828571Y-29469047D01*
X16900000Y-29345238D01*
X17042857Y-29221428D01*
X17328571Y-29159523D01*
X17828571Y-29159523D01*
X18114285Y-29221428D01*
X18257142Y-29345238D01*
X18328571Y-29469047D01*
X18328571Y-29716666D01*
X18257142Y-29840476D01*
X18114285Y-29964285D01*
X17828571Y-30026190D01*
X17328571Y-30026190D01*
X17042857Y-29964285D01*
X16900000Y-29840476D01*
X16828571Y-29716666D01*
X18328571Y-28602380D02*
X16828571Y-28602380D01*
X17900000Y-28169047D01*
X16828571Y-27735714D01*
X18328571Y-27735714D01*
D13*
X49450000Y-27250000D02*
X50450000Y-26250000D01*
X43750000Y-27250000D02*
X49450000Y-27250000D01*
D15*
X50650000Y-27300000D02*
X50650000Y-27370000D01*
X43630000Y-27370000D02*
X50650000Y-27370000D01*
X50570000Y-22030000D02*
X43630000Y-22030000D01*
D13*
X50450000Y-22150000D02*
X50450000Y-26250000D01*
X43750000Y-22150000D02*
X50450000Y-22150000D01*
X43750000Y-27250000D02*
X43750000Y-22150000D01*
D15*
X43630000Y-27370000D02*
X43630000Y-26700000D01*
X43630000Y-22700000D02*
X43630000Y-22030000D01*
X50570000Y-22700000D02*
X50570000Y-22030000D01*
X50650000Y-27300000D02*
X52740000Y-27300000D01*
D13*
X49350000Y-35550000D02*
X50350000Y-34550000D01*
X43650000Y-35550000D02*
X49350000Y-35550000D01*
D15*
X50550000Y-35600000D02*
X50550000Y-35670000D01*
X43530000Y-35670000D02*
X50550000Y-35670000D01*
X50470000Y-30330000D02*
X43530000Y-30330000D01*
D13*
X50350000Y-30450000D02*
X50350000Y-34550000D01*
X43650000Y-30450000D02*
X50350000Y-30450000D01*
X43650000Y-35550000D02*
X43650000Y-30450000D01*
D15*
X43530000Y-35670000D02*
X43530000Y-35000000D01*
X43530000Y-31000000D02*
X43530000Y-30330000D01*
X50470000Y-31000000D02*
X50470000Y-30330000D01*
X50550000Y-35600000D02*
X52640000Y-35600000D01*
X81000000Y-56400000D02*
X81000000Y-57600000D01*
X79865000Y-55400000D02*
X79865000Y-59285000D01*
X79865000Y-59285000D02*
X82135000Y-59285000D01*
X82135000Y-59285000D02*
X82135000Y-55400000D01*
X81000000Y-57600000D02*
X80500000Y-57100000D01*
X81000000Y-57600000D02*
X81500000Y-57100000D01*
X45000000Y-48000000D02*
X45000000Y-49200000D01*
X43865000Y-47000000D02*
X43865000Y-50885000D01*
X43865000Y-50885000D02*
X46135000Y-50885000D01*
X46135000Y-50885000D02*
X46135000Y-47000000D01*
X45000000Y-49200000D02*
X44500000Y-48700000D01*
X45000000Y-49200000D02*
X45500000Y-48700000D01*
X80400000Y-52800000D02*
X81600000Y-52800000D01*
X81600000Y-52800000D02*
X81600000Y-52700000D01*
X81600000Y-52700000D02*
X80400000Y-52700000D01*
X80400000Y-52700000D02*
X80300000Y-52700000D01*
X80300000Y-52700000D02*
X80300000Y-52800000D01*
X80300000Y-52800000D02*
X81700000Y-52800000D01*
X81700000Y-52800000D02*
X81700000Y-52700000D01*
X81700000Y-52700000D02*
X80300000Y-52700000D01*
X80300000Y-52700000D02*
X80300000Y-51200000D01*
X80300000Y-51200000D02*
X81700000Y-51200000D01*
X81700000Y-51200000D02*
X81700000Y-52700000D01*
X81700000Y-52700000D02*
X81700000Y-52600000D01*
X81700000Y-52600000D02*
X80300000Y-52600000D01*
X80300000Y-52600000D02*
X80300000Y-52500000D01*
X80300000Y-52500000D02*
X81600000Y-52500000D01*
X81600000Y-52500000D02*
X81700000Y-52500000D01*
X25900000Y-3100000D02*
X24700000Y-3100000D01*
X26900000Y-1965000D02*
X23015000Y-1965000D01*
X23015000Y-1965000D02*
X23015000Y-4235000D01*
X23015000Y-4235000D02*
X26900000Y-4235000D01*
X24700000Y-3100000D02*
X25200000Y-2600000D01*
X24700000Y-3100000D02*
X25200000Y-3600000D01*
X25300000Y-55900000D02*
X24100000Y-55900000D01*
X26300000Y-54765000D02*
X22415000Y-54765000D01*
X22415000Y-54765000D02*
X22415000Y-57035000D01*
X22415000Y-57035000D02*
X26300000Y-57035000D01*
X24100000Y-55900000D02*
X24600000Y-55400000D01*
X24100000Y-55900000D02*
X24600000Y-56400000D01*
X76000000Y-56400000D02*
X76000000Y-57600000D01*
X74865000Y-55400000D02*
X74865000Y-59285000D01*
X74865000Y-59285000D02*
X77135000Y-59285000D01*
X77135000Y-59285000D02*
X77135000Y-55400000D01*
X76000000Y-57600000D02*
X75500000Y-57100000D01*
X76000000Y-57600000D02*
X76500000Y-57100000D01*
X71000000Y-56400000D02*
X71000000Y-57600000D01*
X69865000Y-55400000D02*
X69865000Y-59285000D01*
X69865000Y-59285000D02*
X72135000Y-59285000D01*
X72135000Y-59285000D02*
X72135000Y-55400000D01*
X71000000Y-57600000D02*
X70500000Y-57100000D01*
X71000000Y-57600000D02*
X71500000Y-57100000D01*
X68000000Y-13800000D02*
X68000000Y-14000000D01*
X67200000Y-14000000D02*
X68000000Y-15100000D01*
X68800000Y-14000000D02*
X67200000Y-14000000D01*
X68000000Y-15100000D02*
X68800000Y-14000000D01*
X68800000Y-15100000D02*
X68000000Y-15100000D01*
X67200000Y-15100000D02*
X68800000Y-15100000D01*
X68000000Y-15100000D02*
X67200000Y-15100000D01*
X68000000Y-15200000D02*
X68000000Y-15100000D01*
X66350000Y-18900000D02*
X69650000Y-18900000D01*
X69650000Y-18900000D02*
X69650000Y-12000000D01*
X66350000Y-18900000D02*
X66350000Y-12000000D01*
D16*
X32261200Y-32351800D02*
X32261200Y-51655800D01*
X31626200Y-52290800D02*
X4829200Y-52290800D01*
X4194200Y-51655800D02*
X4194200Y-32351800D01*
X4829200Y-31716800D02*
X31626200Y-31716800D01*
X32261200Y-51655800D02*
G75*
G02X31626200Y-52290800I-635000J0D01*
G01*
X4194200Y-51655800D02*
G75*
G03X4829200Y-52290800I635000J0D01*
G01*
X4829200Y-31716800D02*
G75*
G03X4194200Y-32351800I0J-635000D01*
G01*
X31626200Y-31716800D02*
G75*
G02X32261200Y-32351800I0J-635000D01*
G01*
X25657200Y-37279400D02*
X25657200Y-40810000D01*
D17*
X27663800Y-40810000D02*
X27663800Y-43324600D01*
X23650600Y-43324600D02*
X23650600Y-40810000D01*
X23650600Y-40810000D02*
X25657200Y-40810000D01*
X25657200Y-40810000D02*
X27155800Y-40810000D01*
X24158600Y-43324600D02*
X23650600Y-43324600D01*
D16*
X27155800Y-40810000D02*
X24158600Y-43324600D01*
D17*
X27155800Y-40810000D02*
X27663800Y-40810000D01*
X27663800Y-43324600D02*
X25657200Y-43324600D01*
D16*
X25657200Y-43324600D02*
X25657200Y-46728200D01*
D17*
X25657200Y-43324600D02*
X24158600Y-43324600D01*
X8893200Y-34002800D02*
X9223400Y-33672600D01*
D16*
X9223400Y-33672600D02*
X7877200Y-33672600D01*
X9223400Y-33672600D02*
X10163200Y-32732800D01*
X7877200Y-33672600D02*
X7877200Y-34307600D01*
X11128400Y-33672600D02*
X12322200Y-33672600D01*
X12322200Y-33672600D02*
X12322200Y-34307600D01*
X10163200Y-32351800D02*
X10163200Y-32732800D01*
X10163200Y-32351800D02*
X18545200Y-32351800D01*
X18545200Y-32351800D02*
X18545200Y-34383800D01*
D17*
X8893200Y-50004800D02*
X9223400Y-50335000D01*
D16*
X9223400Y-50335000D02*
X7877200Y-50335000D01*
D17*
X9223400Y-50335000D02*
X10163200Y-51274800D01*
D16*
X7877200Y-50335000D02*
X7877200Y-49700000D01*
X11128400Y-50335000D02*
X12322200Y-50335000D01*
X12322200Y-50335000D02*
X12322200Y-49700000D01*
X10163200Y-51655800D02*
X10163200Y-51274800D01*
X10163200Y-51655800D02*
X18545200Y-51655800D01*
X18545200Y-51655800D02*
X18545200Y-49623800D01*
X32104000Y-7348000D02*
X32104000Y-26652000D01*
X31469000Y-27287000D02*
X4672000Y-27287000D01*
X4037000Y-26652000D02*
X4037000Y-7348000D01*
X4672000Y-6713000D02*
X31469000Y-6713000D01*
X32104000Y-26652000D02*
G75*
G02X31469000Y-27287000I-635000J0D01*
G01*
X4037000Y-26652000D02*
G75*
G03X4672000Y-27287000I635000J0D01*
G01*
X4672000Y-6713000D02*
G75*
G03X4037000Y-7348000I0J-635000D01*
G01*
X31469000Y-6713000D02*
G75*
G02X32104000Y-7348000I0J-635000D01*
G01*
X25500000Y-12275600D02*
X25500000Y-15806200D01*
D17*
X27506600Y-15806200D02*
X27506600Y-18320800D01*
X23493400Y-18320800D02*
X23493400Y-15806200D01*
X23493400Y-15806200D02*
X25500000Y-15806200D01*
X25500000Y-15806200D02*
X26998600Y-15806200D01*
X24001400Y-18320800D02*
X23493400Y-18320800D01*
D16*
X26998600Y-15806200D02*
X24001400Y-18320800D01*
D17*
X26998600Y-15806200D02*
X27506600Y-15806200D01*
X27506600Y-18320800D02*
X25500000Y-18320800D01*
D16*
X25500000Y-18320800D02*
X25500000Y-21724400D01*
D17*
X25500000Y-18320800D02*
X24001400Y-18320800D01*
X8736000Y-8999000D02*
X9066200Y-8668800D01*
D16*
X9066200Y-8668800D02*
X7720000Y-8668800D01*
X9066200Y-8668800D02*
X10006000Y-7729000D01*
X7720000Y-8668800D02*
X7720000Y-9303800D01*
X10971200Y-8668800D02*
X12165000Y-8668800D01*
X12165000Y-8668800D02*
X12165000Y-9303800D01*
X10006000Y-7348000D02*
X10006000Y-7729000D01*
X10006000Y-7348000D02*
X18388000Y-7348000D01*
X18388000Y-7348000D02*
X18388000Y-9380000D01*
D17*
X8736000Y-25001000D02*
X9066200Y-25331200D01*
D16*
X9066200Y-25331200D02*
X7720000Y-25331200D01*
D17*
X9066200Y-25331200D02*
X10006000Y-26271000D01*
D16*
X7720000Y-25331200D02*
X7720000Y-24696200D01*
X10971200Y-25331200D02*
X12165000Y-25331200D01*
X12165000Y-25331200D02*
X12165000Y-24696200D01*
X10006000Y-26652000D02*
X10006000Y-26271000D01*
X10006000Y-26652000D02*
X18388000Y-26652000D01*
X18388000Y-26652000D02*
X18388000Y-24620000D01*
D15*
X30586252Y-2390000D02*
X30063748Y-2390000D01*
X30586252Y-3810000D02*
X30063748Y-3810000D01*
X59200000Y1860000D02*
X57950000Y1860000D01*
X59200000Y610000D02*
X59200000Y1860000D01*
X58900000Y-5360000D02*
X58900000Y1560000D01*
X39680000Y-5360000D02*
X58900000Y-5360000D01*
X39680000Y1560000D02*
X39680000Y-5360000D01*
X58900000Y1560000D02*
X39680000Y1560000D01*
X66290000Y-48738748D02*
X66290000Y-49261252D01*
X67710000Y-48738748D02*
X67710000Y-49261252D01*
X80009698Y-14715000D02*
X80009698Y-13915000D01*
X80409698Y-14315000D02*
X79609698Y-14315000D01*
X71919000Y-12533000D02*
X71919000Y-11467000D01*
X71959000Y-12768000D02*
X71959000Y-11232000D01*
X71999000Y-12948000D02*
X71999000Y-11052000D01*
X72039000Y-13098000D02*
X72039000Y-10902000D01*
X72079000Y-13229000D02*
X72079000Y-10771000D01*
X72119000Y-13346000D02*
X72119000Y-10654000D01*
X72159000Y-13453000D02*
X72159000Y-10547000D01*
X72199000Y-13552000D02*
X72199000Y-10448000D01*
X72239000Y-13645000D02*
X72239000Y-10355000D01*
X72279000Y-13731000D02*
X72279000Y-10269000D01*
X72319000Y-13813000D02*
X72319000Y-10187000D01*
X72359000Y-13890000D02*
X72359000Y-10110000D01*
X72399000Y-13964000D02*
X72399000Y-10036000D01*
X72439000Y-14034000D02*
X72439000Y-9966000D01*
X72479000Y-10960000D02*
X72479000Y-9898000D01*
X72479000Y-14102000D02*
X72479000Y-13040000D01*
X72519000Y-10960000D02*
X72519000Y-9834000D01*
X72519000Y-14166000D02*
X72519000Y-13040000D01*
X72559000Y-10960000D02*
X72559000Y-9772000D01*
X72559000Y-14228000D02*
X72559000Y-13040000D01*
X72599000Y-10960000D02*
X72599000Y-9713000D01*
X72599000Y-14287000D02*
X72599000Y-13040000D01*
X72639000Y-10960000D02*
X72639000Y-9655000D01*
X72639000Y-14345000D02*
X72639000Y-13040000D01*
X72679000Y-10960000D02*
X72679000Y-9600000D01*
X72679000Y-14400000D02*
X72679000Y-13040000D01*
X72719000Y-10960000D02*
X72719000Y-9546000D01*
X72719000Y-14454000D02*
X72719000Y-13040000D01*
X72759000Y-10960000D02*
X72759000Y-9495000D01*
X72759000Y-14505000D02*
X72759000Y-13040000D01*
X72799000Y-10960000D02*
X72799000Y-9444000D01*
X72799000Y-14556000D02*
X72799000Y-13040000D01*
X72839000Y-10960000D02*
X72839000Y-9396000D01*
X72839000Y-14604000D02*
X72839000Y-13040000D01*
X72879000Y-10960000D02*
X72879000Y-9349000D01*
X72879000Y-14651000D02*
X72879000Y-13040000D01*
X72919000Y-10960000D02*
X72919000Y-9303000D01*
X72919000Y-14697000D02*
X72919000Y-13040000D01*
X72959000Y-10960000D02*
X72959000Y-9259000D01*
X72959000Y-14741000D02*
X72959000Y-13040000D01*
X72999000Y-10960000D02*
X72999000Y-9216000D01*
X72999000Y-14784000D02*
X72999000Y-13040000D01*
X73039000Y-10960000D02*
X73039000Y-9174000D01*
X73039000Y-14826000D02*
X73039000Y-13040000D01*
X73079000Y-10960000D02*
X73079000Y-9133000D01*
X73079000Y-14867000D02*
X73079000Y-13040000D01*
X73119000Y-10960000D02*
X73119000Y-9093000D01*
X73119000Y-14907000D02*
X73119000Y-13040000D01*
X73159000Y-10960000D02*
X73159000Y-9055000D01*
X73159000Y-14945000D02*
X73159000Y-13040000D01*
X73199000Y-10960000D02*
X73199000Y-9017000D01*
X73199000Y-14983000D02*
X73199000Y-13040000D01*
X73239000Y-10960000D02*
X73239000Y-8981000D01*
X73239000Y-15019000D02*
X73239000Y-13040000D01*
X73279000Y-10960000D02*
X73279000Y-8945000D01*
X73279000Y-15055000D02*
X73279000Y-13040000D01*
X73319000Y-10960000D02*
X73319000Y-8910000D01*
X73319000Y-15090000D02*
X73319000Y-13040000D01*
X73359000Y-10960000D02*
X73359000Y-8876000D01*
X73359000Y-15124000D02*
X73359000Y-13040000D01*
X73399000Y-10960000D02*
X73399000Y-8844000D01*
X73399000Y-15156000D02*
X73399000Y-13040000D01*
X73439000Y-10960000D02*
X73439000Y-8811000D01*
X73439000Y-15189000D02*
X73439000Y-13040000D01*
X73479000Y-10960000D02*
X73479000Y-8780000D01*
X73479000Y-15220000D02*
X73479000Y-13040000D01*
X73519000Y-10960000D02*
X73519000Y-8750000D01*
X73519000Y-15250000D02*
X73519000Y-13040000D01*
X73559000Y-10960000D02*
X73559000Y-8720000D01*
X73559000Y-15280000D02*
X73559000Y-13040000D01*
X73599000Y-10960000D02*
X73599000Y-8691000D01*
X73599000Y-15309000D02*
X73599000Y-13040000D01*
X73639000Y-10960000D02*
X73639000Y-8662000D01*
X73639000Y-15338000D02*
X73639000Y-13040000D01*
X73679000Y-10960000D02*
X73679000Y-8635000D01*
X73679000Y-15365000D02*
X73679000Y-13040000D01*
X73719000Y-10960000D02*
X73719000Y-8608000D01*
X73719000Y-15392000D02*
X73719000Y-13040000D01*
X73759000Y-10960000D02*
X73759000Y-8582000D01*
X73759000Y-15418000D02*
X73759000Y-13040000D01*
X73799000Y-10960000D02*
X73799000Y-8556000D01*
X73799000Y-15444000D02*
X73799000Y-13040000D01*
X73839000Y-10960000D02*
X73839000Y-8531000D01*
X73839000Y-15469000D02*
X73839000Y-13040000D01*
X73879000Y-10960000D02*
X73879000Y-8507000D01*
X73879000Y-15493000D02*
X73879000Y-13040000D01*
X73919000Y-10960000D02*
X73919000Y-8483000D01*
X73919000Y-15517000D02*
X73919000Y-13040000D01*
X73959000Y-10960000D02*
X73959000Y-8460000D01*
X73959000Y-15540000D02*
X73959000Y-13040000D01*
X73999000Y-10960000D02*
X73999000Y-8438000D01*
X73999000Y-15562000D02*
X73999000Y-13040000D01*
X74039000Y-10960000D02*
X74039000Y-8416000D01*
X74039000Y-15584000D02*
X74039000Y-13040000D01*
X74079000Y-10960000D02*
X74079000Y-8394000D01*
X74079000Y-15606000D02*
X74079000Y-13040000D01*
X74119000Y-10960000D02*
X74119000Y-8373000D01*
X74119000Y-15627000D02*
X74119000Y-13040000D01*
X74159000Y-10960000D02*
X74159000Y-8353000D01*
X74159000Y-15647000D02*
X74159000Y-13040000D01*
X74199000Y-10960000D02*
X74199000Y-8334000D01*
X74199000Y-15666000D02*
X74199000Y-13040000D01*
X74239000Y-10960000D02*
X74239000Y-8314000D01*
X74239000Y-15686000D02*
X74239000Y-13040000D01*
X74279000Y-10960000D02*
X74279000Y-8296000D01*
X74279000Y-15704000D02*
X74279000Y-13040000D01*
X74319000Y-10960000D02*
X74319000Y-8278000D01*
X74319000Y-15722000D02*
X74319000Y-13040000D01*
X74359000Y-10960000D02*
X74359000Y-8260000D01*
X74359000Y-15740000D02*
X74359000Y-13040000D01*
X74399000Y-10960000D02*
X74399000Y-8243000D01*
X74399000Y-15757000D02*
X74399000Y-13040000D01*
X74439000Y-10960000D02*
X74439000Y-8226000D01*
X74439000Y-15774000D02*
X74439000Y-13040000D01*
X74479000Y-10960000D02*
X74479000Y-8210000D01*
X74479000Y-15790000D02*
X74479000Y-13040000D01*
X74519000Y-10960000D02*
X74519000Y-8195000D01*
X74519000Y-15805000D02*
X74519000Y-13040000D01*
X74559000Y-15821000D02*
X74559000Y-8179000D01*
X74599000Y-15835000D02*
X74599000Y-8165000D01*
X74639000Y-15850000D02*
X74639000Y-8150000D01*
X74679000Y-15863000D02*
X74679000Y-8137000D01*
X74719000Y-15877000D02*
X74719000Y-8123000D01*
X74759000Y-15889000D02*
X74759000Y-8111000D01*
X74799000Y-15902000D02*
X74799000Y-8098000D01*
X74839000Y-15914000D02*
X74839000Y-8086000D01*
X74879000Y-15925000D02*
X74879000Y-8075000D01*
X74919000Y-15936000D02*
X74919000Y-8064000D01*
X74959000Y-15947000D02*
X74959000Y-8053000D01*
X74999000Y-15957000D02*
X74999000Y-8043000D01*
X75039000Y-15967000D02*
X75039000Y-8033000D01*
X75079000Y-15976000D02*
X75079000Y-8024000D01*
X75119000Y-15985000D02*
X75119000Y-8015000D01*
X75159000Y-15994000D02*
X75159000Y-8006000D01*
X75199000Y-16002000D02*
X75199000Y-7998000D01*
X75239000Y-16010000D02*
X75239000Y-7990000D01*
X75279000Y-16017000D02*
X75279000Y-7983000D01*
X75320000Y-16024000D02*
X75320000Y-7976000D01*
X75360000Y-16030000D02*
X75360000Y-7970000D01*
X75400000Y-16037000D02*
X75400000Y-7963000D01*
X75440000Y-16042000D02*
X75440000Y-7958000D01*
X75480000Y-16048000D02*
X75480000Y-7952000D01*
X75520000Y-16052000D02*
X75520000Y-7948000D01*
X75560000Y-16057000D02*
X75560000Y-7943000D01*
X75600000Y-16061000D02*
X75600000Y-7939000D01*
X75640000Y-16065000D02*
X75640000Y-7935000D01*
X75680000Y-16068000D02*
X75680000Y-7932000D01*
X75720000Y-16071000D02*
X75720000Y-7929000D01*
X75760000Y-16074000D02*
X75760000Y-7926000D01*
X75800000Y-16076000D02*
X75800000Y-7924000D01*
X75840000Y-16077000D02*
X75840000Y-7923000D01*
X75880000Y-16079000D02*
X75880000Y-7921000D01*
X75920000Y-16080000D02*
X75920000Y-7920000D01*
X75960000Y-16080000D02*
X75960000Y-7920000D01*
X76000000Y-16080000D02*
X76000000Y-7920000D01*
X80120000Y-12000000D02*
G75*
G03X80120000Y-12000000I-4120000J0D01*
G01*
X37240000Y-30420000D02*
X38700000Y-30420000D01*
X37240000Y-33580000D02*
X39400000Y-33580000D01*
X37240000Y-33580000D02*
X37240000Y-32650000D01*
X37240000Y-30420000D02*
X37240000Y-31350000D01*
X37240000Y-48420000D02*
X38700000Y-48420000D01*
X37240000Y-51580000D02*
X39400000Y-51580000D01*
X37240000Y-51580000D02*
X37240000Y-50650000D01*
X37240000Y-48420000D02*
X37240000Y-49350000D01*
X65005000Y-36140000D02*
X65005000Y-34325000D01*
X65260000Y-36140000D02*
X65005000Y-36140000D01*
X65260000Y-40000000D02*
X65260000Y-36140000D01*
X65260000Y-43860000D02*
X65005000Y-43860000D01*
X65260000Y-40000000D02*
X65260000Y-43860000D01*
X54740000Y-36140000D02*
X54995000Y-36140000D01*
X54740000Y-40000000D02*
X54740000Y-36140000D01*
X54740000Y-43860000D02*
X54995000Y-43860000D01*
X54740000Y-40000000D02*
X54740000Y-43860000D01*
X83100000Y-27475000D02*
X82000000Y-27475000D01*
X83100000Y-28425000D02*
X83100000Y-27475000D01*
X84600000Y-28425000D02*
X83100000Y-28425000D01*
X83100000Y-18975000D02*
X77975000Y-18975000D01*
X83100000Y-18025000D02*
X83100000Y-18975000D01*
X84600000Y-18025000D02*
X83100000Y-18025000D01*
X72555000Y-39633333D02*
X71285000Y-39633333D01*
X71355000Y-38280000D02*
X71355000Y-39633333D01*
X71475000Y-38280000D02*
X71475000Y-39633333D01*
X71595000Y-38280000D02*
X71595000Y-39633333D01*
X71715000Y-38280000D02*
X71715000Y-39633333D01*
X71835000Y-38280000D02*
X71835000Y-39633333D01*
X71955000Y-38280000D02*
X71955000Y-39633333D01*
X72075000Y-38280000D02*
X72075000Y-39633333D01*
X72195000Y-38280000D02*
X72195000Y-39633333D01*
X72315000Y-38280000D02*
X72315000Y-39633333D01*
X72435000Y-38280000D02*
X72435000Y-39633333D01*
X72555000Y-42340000D02*
X72555000Y-38280000D01*
X71285000Y-42340000D02*
X72555000Y-42340000D01*
X71285000Y-38280000D02*
X71285000Y-42340000D01*
X72555000Y-38280000D02*
X71285000Y-38280000D01*
X75095000Y-39633333D02*
X73825000Y-39633333D01*
X73895000Y-38280000D02*
X73895000Y-39633333D01*
X74015000Y-38280000D02*
X74015000Y-39633333D01*
X74135000Y-38280000D02*
X74135000Y-39633333D01*
X74255000Y-38280000D02*
X74255000Y-39633333D01*
X74375000Y-38280000D02*
X74375000Y-39633333D01*
X74495000Y-38280000D02*
X74495000Y-39633333D01*
X74615000Y-38280000D02*
X74615000Y-39633333D01*
X74735000Y-38280000D02*
X74735000Y-39633333D01*
X74855000Y-38280000D02*
X74855000Y-39633333D01*
X74975000Y-38280000D02*
X74975000Y-39633333D01*
X75095000Y-42340000D02*
X75095000Y-38280000D01*
X73825000Y-42340000D02*
X75095000Y-42340000D01*
X73825000Y-38280000D02*
X73825000Y-42340000D01*
X75095000Y-38280000D02*
X73825000Y-38280000D01*
X77635000Y-39633333D02*
X76365000Y-39633333D01*
X76435000Y-38280000D02*
X76435000Y-39633333D01*
X76555000Y-38280000D02*
X76555000Y-39633333D01*
X76675000Y-38280000D02*
X76675000Y-39633333D01*
X76795000Y-38280000D02*
X76795000Y-39633333D01*
X76915000Y-38280000D02*
X76915000Y-39633333D01*
X77035000Y-38280000D02*
X77035000Y-39633333D01*
X77155000Y-38280000D02*
X77155000Y-39633333D01*
X77275000Y-38280000D02*
X77275000Y-39633333D01*
X77395000Y-38280000D02*
X77395000Y-39633333D01*
X77515000Y-38280000D02*
X77515000Y-39633333D01*
X77635000Y-42340000D02*
X77635000Y-38280000D01*
X76365000Y-42340000D02*
X77635000Y-42340000D01*
X76365000Y-38280000D02*
X76365000Y-42340000D01*
X77635000Y-38280000D02*
X76365000Y-38280000D01*
X79660000Y-35120000D02*
X78277000Y-35120000D01*
X79660000Y-35120000D02*
X79660000Y-36504000D01*
X79420000Y-45260000D02*
X69500000Y-45260000D01*
X79420000Y-35360000D02*
X69500000Y-35360000D01*
X69500000Y-35360000D02*
X69500000Y-45260000D01*
X79420000Y-35360000D02*
X79420000Y-45260000D01*
X61738748Y-49710000D02*
X62261252Y-49710000D01*
X61738748Y-48290000D02*
X62261252Y-48290000D01*
X58690000Y-26613748D02*
X58690000Y-27136252D01*
X60110000Y-26613748D02*
X60110000Y-27136252D01*
X62590000Y-26638748D02*
X62590000Y-27161252D01*
X64010000Y-26638748D02*
X64010000Y-27161252D01*
X66440000Y-26663748D02*
X66440000Y-27186252D01*
X67860000Y-26663748D02*
X67860000Y-27186252D01*
X44290000Y-42763748D02*
X44290000Y-43286252D01*
X45710000Y-42763748D02*
X45710000Y-43286252D01*
X75290000Y-51713748D02*
X75290000Y-52236252D01*
X76710000Y-51713748D02*
X76710000Y-52236252D01*
X70290000Y-51738748D02*
X70290000Y-52261252D01*
X71710000Y-51738748D02*
X71710000Y-52261252D01*
X84710000Y-52261252D02*
X84710000Y-51738748D01*
X83290000Y-52261252D02*
X83290000Y-51738748D01*
X30536252Y-55190000D02*
X30013748Y-55190000D01*
X30536252Y-56610000D02*
X30013748Y-56610000D01*
X54440000Y-26638748D02*
X54440000Y-27161252D01*
X55860000Y-26638748D02*
X55860000Y-27161252D01*
X50790000Y-38738748D02*
X50790000Y-39261252D01*
X52210000Y-38738748D02*
X52210000Y-39261252D01*
X70450000Y-17550000D02*
X70450000Y-24450000D01*
X75550000Y-17550000D02*
X75550000Y-24450000D01*
X94310000Y-15540000D02*
X94310000Y-300000D01*
X86690000Y-15540000D02*
X86690000Y-300000D01*
X93040000Y-15540000D02*
X93040000Y-300000D01*
X94310000Y-300000D02*
X86690000Y-300000D01*
X94310000Y-15540000D02*
X86690000Y-15540000D01*
X20040000Y3310000D02*
X4800000Y3310000D01*
X20040000Y-4310000D02*
X4800000Y-4310000D01*
X20040000Y2040000D02*
X4800000Y2040000D01*
X4800000Y3310000D02*
X4800000Y-4310000D01*
X20040000Y3310000D02*
X20040000Y-4310000D01*
X20290000Y-54440000D02*
X5050000Y-54440000D01*
X20290000Y-62060000D02*
X5050000Y-62060000D01*
X20290000Y-55710000D02*
X5050000Y-55710000D01*
X5050000Y-54440000D02*
X5050000Y-62060000D01*
X20290000Y-54440000D02*
X20290000Y-62060000D01*
X95155000Y-60600000D02*
X92615000Y-60600000D01*
X95155000Y-60600000D02*
X95155000Y-58060000D01*
X94905000Y-60350000D02*
X85555000Y-60350000D01*
X94905000Y-44570000D02*
X94905000Y-60350000D01*
X85555000Y-44570000D02*
X94905000Y-44570000D01*
X85555000Y-60350000D02*
X85555000Y-44570000D01*
X38000000Y-25700000D02*
X38000000Y-25500000D01*
X38800000Y-25500000D02*
X38000000Y-24400000D01*
X37200000Y-25500000D02*
X38800000Y-25500000D01*
X38000000Y-24400000D02*
X37200000Y-25500000D01*
X37200000Y-24400000D02*
X38000000Y-24400000D01*
X38800000Y-24400000D02*
X37200000Y-24400000D01*
X38000000Y-24400000D02*
X38800000Y-24400000D01*
X38000000Y-24300000D02*
X38000000Y-24400000D01*
X39650000Y-20600000D02*
X36350000Y-20600000D01*
X36350000Y-20600000D02*
X36350000Y-27500000D01*
X39650000Y-20600000D02*
X39650000Y-27500000D01*
X38000000Y-42200000D02*
X38000000Y-42000000D01*
X38800000Y-42000000D02*
X38000000Y-40900000D01*
X37200000Y-42000000D02*
X38800000Y-42000000D01*
X38000000Y-40900000D02*
X37200000Y-42000000D01*
X37200000Y-40900000D02*
X38000000Y-40900000D01*
X38800000Y-40900000D02*
X37200000Y-40900000D01*
X38000000Y-40900000D02*
X38800000Y-40900000D01*
X38000000Y-40800000D02*
X38000000Y-40900000D01*
X39650000Y-37100000D02*
X36350000Y-37100000D01*
X36350000Y-37100000D02*
X36350000Y-44000000D01*
X39650000Y-37100000D02*
X39650000Y-44000000D01*
X37713748Y-18210000D02*
X38236252Y-18210000D01*
X37713748Y-16790000D02*
X38236252Y-16790000D01*
X41490302Y-9285000D02*
X41490302Y-10085000D01*
X41090302Y-9685000D02*
X41890302Y-9685000D01*
X49581000Y-11467000D02*
X49581000Y-12533000D01*
X49541000Y-11232000D02*
X49541000Y-12768000D01*
X49501000Y-11052000D02*
X49501000Y-12948000D01*
X49461000Y-10902000D02*
X49461000Y-13098000D01*
X49421000Y-10771000D02*
X49421000Y-13229000D01*
X49381000Y-10654000D02*
X49381000Y-13346000D01*
X49341000Y-10547000D02*
X49341000Y-13453000D01*
X49301000Y-10448000D02*
X49301000Y-13552000D01*
X49261000Y-10355000D02*
X49261000Y-13645000D01*
X49221000Y-10269000D02*
X49221000Y-13731000D01*
X49181000Y-10187000D02*
X49181000Y-13813000D01*
X49141000Y-10110000D02*
X49141000Y-13890000D01*
X49101000Y-10036000D02*
X49101000Y-13964000D01*
X49061000Y-9966000D02*
X49061000Y-14034000D01*
X49021000Y-13040000D02*
X49021000Y-14102000D01*
X49021000Y-9898000D02*
X49021000Y-10960000D01*
X48981000Y-13040000D02*
X48981000Y-14166000D01*
X48981000Y-9834000D02*
X48981000Y-10960000D01*
X48941000Y-13040000D02*
X48941000Y-14228000D01*
X48941000Y-9772000D02*
X48941000Y-10960000D01*
X48901000Y-13040000D02*
X48901000Y-14287000D01*
X48901000Y-9713000D02*
X48901000Y-10960000D01*
X48861000Y-13040000D02*
X48861000Y-14345000D01*
X48861000Y-9655000D02*
X48861000Y-10960000D01*
X48821000Y-13040000D02*
X48821000Y-14400000D01*
X48821000Y-9600000D02*
X48821000Y-10960000D01*
X48781000Y-13040000D02*
X48781000Y-14454000D01*
X48781000Y-9546000D02*
X48781000Y-10960000D01*
X48741000Y-13040000D02*
X48741000Y-14505000D01*
X48741000Y-9495000D02*
X48741000Y-10960000D01*
X48701000Y-13040000D02*
X48701000Y-14556000D01*
X48701000Y-9444000D02*
X48701000Y-10960000D01*
X48661000Y-13040000D02*
X48661000Y-14604000D01*
X48661000Y-9396000D02*
X48661000Y-10960000D01*
X48621000Y-13040000D02*
X48621000Y-14651000D01*
X48621000Y-9349000D02*
X48621000Y-10960000D01*
X48581000Y-13040000D02*
X48581000Y-14697000D01*
X48581000Y-9303000D02*
X48581000Y-10960000D01*
X48541000Y-13040000D02*
X48541000Y-14741000D01*
X48541000Y-9259000D02*
X48541000Y-10960000D01*
X48501000Y-13040000D02*
X48501000Y-14784000D01*
X48501000Y-9216000D02*
X48501000Y-10960000D01*
X48461000Y-13040000D02*
X48461000Y-14826000D01*
X48461000Y-9174000D02*
X48461000Y-10960000D01*
X48421000Y-13040000D02*
X48421000Y-14867000D01*
X48421000Y-9133000D02*
X48421000Y-10960000D01*
X48381000Y-13040000D02*
X48381000Y-14907000D01*
X48381000Y-9093000D02*
X48381000Y-10960000D01*
X48341000Y-13040000D02*
X48341000Y-14945000D01*
X48341000Y-9055000D02*
X48341000Y-10960000D01*
X48301000Y-13040000D02*
X48301000Y-14983000D01*
X48301000Y-9017000D02*
X48301000Y-10960000D01*
X48261000Y-13040000D02*
X48261000Y-15019000D01*
X48261000Y-8981000D02*
X48261000Y-10960000D01*
X48221000Y-13040000D02*
X48221000Y-15055000D01*
X48221000Y-8945000D02*
X48221000Y-10960000D01*
X48181000Y-13040000D02*
X48181000Y-15090000D01*
X48181000Y-8910000D02*
X48181000Y-10960000D01*
X48141000Y-13040000D02*
X48141000Y-15124000D01*
X48141000Y-8876000D02*
X48141000Y-10960000D01*
X48101000Y-13040000D02*
X48101000Y-15156000D01*
X48101000Y-8844000D02*
X48101000Y-10960000D01*
X48061000Y-13040000D02*
X48061000Y-15189000D01*
X48061000Y-8811000D02*
X48061000Y-10960000D01*
X48021000Y-13040000D02*
X48021000Y-15220000D01*
X48021000Y-8780000D02*
X48021000Y-10960000D01*
X47981000Y-13040000D02*
X47981000Y-15250000D01*
X47981000Y-8750000D02*
X47981000Y-10960000D01*
X47941000Y-13040000D02*
X47941000Y-15280000D01*
X47941000Y-8720000D02*
X47941000Y-10960000D01*
X47901000Y-13040000D02*
X47901000Y-15309000D01*
X47901000Y-8691000D02*
X47901000Y-10960000D01*
X47861000Y-13040000D02*
X47861000Y-15338000D01*
X47861000Y-8662000D02*
X47861000Y-10960000D01*
X47821000Y-13040000D02*
X47821000Y-15365000D01*
X47821000Y-8635000D02*
X47821000Y-10960000D01*
X47781000Y-13040000D02*
X47781000Y-15392000D01*
X47781000Y-8608000D02*
X47781000Y-10960000D01*
X47741000Y-13040000D02*
X47741000Y-15418000D01*
X47741000Y-8582000D02*
X47741000Y-10960000D01*
X47701000Y-13040000D02*
X47701000Y-15444000D01*
X47701000Y-8556000D02*
X47701000Y-10960000D01*
X47661000Y-13040000D02*
X47661000Y-15469000D01*
X47661000Y-8531000D02*
X47661000Y-10960000D01*
X47621000Y-13040000D02*
X47621000Y-15493000D01*
X47621000Y-8507000D02*
X47621000Y-10960000D01*
X47581000Y-13040000D02*
X47581000Y-15517000D01*
X47581000Y-8483000D02*
X47581000Y-10960000D01*
X47541000Y-13040000D02*
X47541000Y-15540000D01*
X47541000Y-8460000D02*
X47541000Y-10960000D01*
X47501000Y-13040000D02*
X47501000Y-15562000D01*
X47501000Y-8438000D02*
X47501000Y-10960000D01*
X47461000Y-13040000D02*
X47461000Y-15584000D01*
X47461000Y-8416000D02*
X47461000Y-10960000D01*
X47421000Y-13040000D02*
X47421000Y-15606000D01*
X47421000Y-8394000D02*
X47421000Y-10960000D01*
X47381000Y-13040000D02*
X47381000Y-15627000D01*
X47381000Y-8373000D02*
X47381000Y-10960000D01*
X47341000Y-13040000D02*
X47341000Y-15647000D01*
X47341000Y-8353000D02*
X47341000Y-10960000D01*
X47301000Y-13040000D02*
X47301000Y-15666000D01*
X47301000Y-8334000D02*
X47301000Y-10960000D01*
X47261000Y-13040000D02*
X47261000Y-15686000D01*
X47261000Y-8314000D02*
X47261000Y-10960000D01*
X47221000Y-13040000D02*
X47221000Y-15704000D01*
X47221000Y-8296000D02*
X47221000Y-10960000D01*
X47181000Y-13040000D02*
X47181000Y-15722000D01*
X47181000Y-8278000D02*
X47181000Y-10960000D01*
X47141000Y-13040000D02*
X47141000Y-15740000D01*
X47141000Y-8260000D02*
X47141000Y-10960000D01*
X47101000Y-13040000D02*
X47101000Y-15757000D01*
X47101000Y-8243000D02*
X47101000Y-10960000D01*
X47061000Y-13040000D02*
X47061000Y-15774000D01*
X47061000Y-8226000D02*
X47061000Y-10960000D01*
X47021000Y-13040000D02*
X47021000Y-15790000D01*
X47021000Y-8210000D02*
X47021000Y-10960000D01*
X46981000Y-13040000D02*
X46981000Y-15805000D01*
X46981000Y-8195000D02*
X46981000Y-10960000D01*
X46941000Y-8179000D02*
X46941000Y-15821000D01*
X46901000Y-8165000D02*
X46901000Y-15835000D01*
X46861000Y-8150000D02*
X46861000Y-15850000D01*
X46821000Y-8137000D02*
X46821000Y-15863000D01*
X46781000Y-8123000D02*
X46781000Y-15877000D01*
X46741000Y-8111000D02*
X46741000Y-15889000D01*
X46701000Y-8098000D02*
X46701000Y-15902000D01*
X46661000Y-8086000D02*
X46661000Y-15914000D01*
X46621000Y-8075000D02*
X46621000Y-15925000D01*
X46581000Y-8064000D02*
X46581000Y-15936000D01*
X46541000Y-8053000D02*
X46541000Y-15947000D01*
X46501000Y-8043000D02*
X46501000Y-15957000D01*
X46461000Y-8033000D02*
X46461000Y-15967000D01*
X46421000Y-8024000D02*
X46421000Y-15976000D01*
X46381000Y-8015000D02*
X46381000Y-15985000D01*
X46341000Y-8006000D02*
X46341000Y-15994000D01*
X46301000Y-7998000D02*
X46301000Y-16002000D01*
X46261000Y-7990000D02*
X46261000Y-16010000D01*
X46221000Y-7983000D02*
X46221000Y-16017000D01*
X46180000Y-7976000D02*
X46180000Y-16024000D01*
X46140000Y-7970000D02*
X46140000Y-16030000D01*
X46100000Y-7963000D02*
X46100000Y-16037000D01*
X46060000Y-7958000D02*
X46060000Y-16042000D01*
X46020000Y-7952000D02*
X46020000Y-16048000D01*
X45980000Y-7948000D02*
X45980000Y-16052000D01*
X45940000Y-7943000D02*
X45940000Y-16057000D01*
X45900000Y-7939000D02*
X45900000Y-16061000D01*
X45860000Y-7935000D02*
X45860000Y-16065000D01*
X45820000Y-7932000D02*
X45820000Y-16068000D01*
X45780000Y-7929000D02*
X45780000Y-16071000D01*
X45740000Y-7926000D02*
X45740000Y-16074000D01*
X45700000Y-7924000D02*
X45700000Y-16076000D01*
X45660000Y-7923000D02*
X45660000Y-16077000D01*
X45620000Y-7921000D02*
X45620000Y-16079000D01*
X45580000Y-7920000D02*
X45580000Y-16080000D01*
X45540000Y-7920000D02*
X45540000Y-16080000D01*
X45500000Y-7920000D02*
X45500000Y-16080000D01*
X49620000Y-12000000D02*
G75*
G03X49620000Y-12000000I-4120000J0D01*
G01*
X91261252Y-41790000D02*
X90738748Y-41790000D01*
X91261252Y-43210000D02*
X90738748Y-43210000D01*
X68509698Y-5215000D02*
X68509698Y-4415000D01*
X68909698Y-4815000D02*
X68109698Y-4815000D01*
X60419000Y-3033000D02*
X60419000Y-1967000D01*
X60459000Y-3268000D02*
X60459000Y-1732000D01*
X60499000Y-3448000D02*
X60499000Y-1552000D01*
X60539000Y-3598000D02*
X60539000Y-1402000D01*
X60579000Y-3729000D02*
X60579000Y-1271000D01*
X60619000Y-3846000D02*
X60619000Y-1154000D01*
X60659000Y-3953000D02*
X60659000Y-1047000D01*
X60699000Y-4052000D02*
X60699000Y-948000D01*
X60739000Y-4145000D02*
X60739000Y-855000D01*
X60779000Y-4231000D02*
X60779000Y-769000D01*
X60819000Y-4313000D02*
X60819000Y-687000D01*
X60859000Y-4390000D02*
X60859000Y-610000D01*
X60899000Y-4464000D02*
X60899000Y-536000D01*
X60939000Y-4534000D02*
X60939000Y-466000D01*
X60979000Y-1460000D02*
X60979000Y-398000D01*
X60979000Y-4602000D02*
X60979000Y-3540000D01*
X61019000Y-1460000D02*
X61019000Y-334000D01*
X61019000Y-4666000D02*
X61019000Y-3540000D01*
X61059000Y-1460000D02*
X61059000Y-272000D01*
X61059000Y-4728000D02*
X61059000Y-3540000D01*
X61099000Y-1460000D02*
X61099000Y-213000D01*
X61099000Y-4787000D02*
X61099000Y-3540000D01*
X61139000Y-1460000D02*
X61139000Y-155000D01*
X61139000Y-4845000D02*
X61139000Y-3540000D01*
X61179000Y-1460000D02*
X61179000Y-100000D01*
X61179000Y-4900000D02*
X61179000Y-3540000D01*
X61219000Y-1460000D02*
X61219000Y-46000D01*
X61219000Y-4954000D02*
X61219000Y-3540000D01*
X61259000Y-1460000D02*
X61259000Y5000D01*
X61259000Y-5005000D02*
X61259000Y-3540000D01*
X61299000Y-1460000D02*
X61299000Y56000D01*
X61299000Y-5056000D02*
X61299000Y-3540000D01*
X61339000Y-1460000D02*
X61339000Y104000D01*
X61339000Y-5104000D02*
X61339000Y-3540000D01*
X61379000Y-1460000D02*
X61379000Y151000D01*
X61379000Y-5151000D02*
X61379000Y-3540000D01*
X61419000Y-1460000D02*
X61419000Y197000D01*
X61419000Y-5197000D02*
X61419000Y-3540000D01*
X61459000Y-1460000D02*
X61459000Y241000D01*
X61459000Y-5241000D02*
X61459000Y-3540000D01*
X61499000Y-1460000D02*
X61499000Y284000D01*
X61499000Y-5284000D02*
X61499000Y-3540000D01*
X61539000Y-1460000D02*
X61539000Y326000D01*
X61539000Y-5326000D02*
X61539000Y-3540000D01*
X61579000Y-1460000D02*
X61579000Y367000D01*
X61579000Y-5367000D02*
X61579000Y-3540000D01*
X61619000Y-1460000D02*
X61619000Y407000D01*
X61619000Y-5407000D02*
X61619000Y-3540000D01*
X61659000Y-1460000D02*
X61659000Y445000D01*
X61659000Y-5445000D02*
X61659000Y-3540000D01*
X61699000Y-1460000D02*
X61699000Y483000D01*
X61699000Y-5483000D02*
X61699000Y-3540000D01*
X61739000Y-1460000D02*
X61739000Y519000D01*
X61739000Y-5519000D02*
X61739000Y-3540000D01*
X61779000Y-1460000D02*
X61779000Y555000D01*
X61779000Y-5555000D02*
X61779000Y-3540000D01*
X61819000Y-1460000D02*
X61819000Y590000D01*
X61819000Y-5590000D02*
X61819000Y-3540000D01*
X61859000Y-1460000D02*
X61859000Y624000D01*
X61859000Y-5624000D02*
X61859000Y-3540000D01*
X61899000Y-1460000D02*
X61899000Y656000D01*
X61899000Y-5656000D02*
X61899000Y-3540000D01*
X61939000Y-1460000D02*
X61939000Y689000D01*
X61939000Y-5689000D02*
X61939000Y-3540000D01*
X61979000Y-1460000D02*
X61979000Y720000D01*
X61979000Y-5720000D02*
X61979000Y-3540000D01*
X62019000Y-1460000D02*
X62019000Y750000D01*
X62019000Y-5750000D02*
X62019000Y-3540000D01*
X62059000Y-1460000D02*
X62059000Y780000D01*
X62059000Y-5780000D02*
X62059000Y-3540000D01*
X62099000Y-1460000D02*
X62099000Y809000D01*
X62099000Y-5809000D02*
X62099000Y-3540000D01*
X62139000Y-1460000D02*
X62139000Y838000D01*
X62139000Y-5838000D02*
X62139000Y-3540000D01*
X62179000Y-1460000D02*
X62179000Y865000D01*
X62179000Y-5865000D02*
X62179000Y-3540000D01*
X62219000Y-1460000D02*
X62219000Y892000D01*
X62219000Y-5892000D02*
X62219000Y-3540000D01*
X62259000Y-1460000D02*
X62259000Y918000D01*
X62259000Y-5918000D02*
X62259000Y-3540000D01*
X62299000Y-1460000D02*
X62299000Y944000D01*
X62299000Y-5944000D02*
X62299000Y-3540000D01*
X62339000Y-1460000D02*
X62339000Y969000D01*
X62339000Y-5969000D02*
X62339000Y-3540000D01*
X62379000Y-1460000D02*
X62379000Y993000D01*
X62379000Y-5993000D02*
X62379000Y-3540000D01*
X62419000Y-1460000D02*
X62419000Y1017000D01*
X62419000Y-6017000D02*
X62419000Y-3540000D01*
X62459000Y-1460000D02*
X62459000Y1040000D01*
X62459000Y-6040000D02*
X62459000Y-3540000D01*
X62499000Y-1460000D02*
X62499000Y1062000D01*
X62499000Y-6062000D02*
X62499000Y-3540000D01*
X62539000Y-1460000D02*
X62539000Y1084000D01*
X62539000Y-6084000D02*
X62539000Y-3540000D01*
X62579000Y-1460000D02*
X62579000Y1106000D01*
X62579000Y-6106000D02*
X62579000Y-3540000D01*
X62619000Y-1460000D02*
X62619000Y1127000D01*
X62619000Y-6127000D02*
X62619000Y-3540000D01*
X62659000Y-1460000D02*
X62659000Y1147000D01*
X62659000Y-6147000D02*
X62659000Y-3540000D01*
X62699000Y-1460000D02*
X62699000Y1166000D01*
X62699000Y-6166000D02*
X62699000Y-3540000D01*
X62739000Y-1460000D02*
X62739000Y1186000D01*
X62739000Y-6186000D02*
X62739000Y-3540000D01*
X62779000Y-1460000D02*
X62779000Y1204000D01*
X62779000Y-6204000D02*
X62779000Y-3540000D01*
X62819000Y-1460000D02*
X62819000Y1222000D01*
X62819000Y-6222000D02*
X62819000Y-3540000D01*
X62859000Y-1460000D02*
X62859000Y1240000D01*
X62859000Y-6240000D02*
X62859000Y-3540000D01*
X62899000Y-1460000D02*
X62899000Y1257000D01*
X62899000Y-6257000D02*
X62899000Y-3540000D01*
X62939000Y-1460000D02*
X62939000Y1274000D01*
X62939000Y-6274000D02*
X62939000Y-3540000D01*
X62979000Y-1460000D02*
X62979000Y1290000D01*
X62979000Y-6290000D02*
X62979000Y-3540000D01*
X63019000Y-1460000D02*
X63019000Y1305000D01*
X63019000Y-6305000D02*
X63019000Y-3540000D01*
X63059000Y-6321000D02*
X63059000Y1321000D01*
X63099000Y-6335000D02*
X63099000Y1335000D01*
X63139000Y-6350000D02*
X63139000Y1350000D01*
X63179000Y-6363000D02*
X63179000Y1363000D01*
X63219000Y-6377000D02*
X63219000Y1377000D01*
X63259000Y-6389000D02*
X63259000Y1389000D01*
X63299000Y-6402000D02*
X63299000Y1402000D01*
X63339000Y-6414000D02*
X63339000Y1414000D01*
X63379000Y-6425000D02*
X63379000Y1425000D01*
X63419000Y-6436000D02*
X63419000Y1436000D01*
X63459000Y-6447000D02*
X63459000Y1447000D01*
X63499000Y-6457000D02*
X63499000Y1457000D01*
X63539000Y-6467000D02*
X63539000Y1467000D01*
X63579000Y-6476000D02*
X63579000Y1476000D01*
X63619000Y-6485000D02*
X63619000Y1485000D01*
X63659000Y-6494000D02*
X63659000Y1494000D01*
X63699000Y-6502000D02*
X63699000Y1502000D01*
X63739000Y-6510000D02*
X63739000Y1510000D01*
X63779000Y-6517000D02*
X63779000Y1517000D01*
X63820000Y-6524000D02*
X63820000Y1524000D01*
X63860000Y-6530000D02*
X63860000Y1530000D01*
X63900000Y-6537000D02*
X63900000Y1537000D01*
X63940000Y-6542000D02*
X63940000Y1542000D01*
X63980000Y-6548000D02*
X63980000Y1548000D01*
X64020000Y-6552000D02*
X64020000Y1552000D01*
X64060000Y-6557000D02*
X64060000Y1557000D01*
X64100000Y-6561000D02*
X64100000Y1561000D01*
X64140000Y-6565000D02*
X64140000Y1565000D01*
X64180000Y-6568000D02*
X64180000Y1568000D01*
X64220000Y-6571000D02*
X64220000Y1571000D01*
X64260000Y-6574000D02*
X64260000Y1574000D01*
X64300000Y-6576000D02*
X64300000Y1576000D01*
X64340000Y-6577000D02*
X64340000Y1577000D01*
X64380000Y-6579000D02*
X64380000Y1579000D01*
X64420000Y-6580000D02*
X64420000Y1580000D01*
X64460000Y-6580000D02*
X64460000Y1580000D01*
X64500000Y-6580000D02*
X64500000Y1580000D01*
X68620000Y-2500000D02*
G75*
G03X68620000Y-2500000I-4120000J0D01*
G01*
X79509698Y-5215000D02*
X79509698Y-4415000D01*
X79909698Y-4815000D02*
X79109698Y-4815000D01*
X71419000Y-3033000D02*
X71419000Y-1967000D01*
X71459000Y-3268000D02*
X71459000Y-1732000D01*
X71499000Y-3448000D02*
X71499000Y-1552000D01*
X71539000Y-3598000D02*
X71539000Y-1402000D01*
X71579000Y-3729000D02*
X71579000Y-1271000D01*
X71619000Y-3846000D02*
X71619000Y-1154000D01*
X71659000Y-3953000D02*
X71659000Y-1047000D01*
X71699000Y-4052000D02*
X71699000Y-948000D01*
X71739000Y-4145000D02*
X71739000Y-855000D01*
X71779000Y-4231000D02*
X71779000Y-769000D01*
X71819000Y-4313000D02*
X71819000Y-687000D01*
X71859000Y-4390000D02*
X71859000Y-610000D01*
X71899000Y-4464000D02*
X71899000Y-536000D01*
X71939000Y-4534000D02*
X71939000Y-466000D01*
X71979000Y-1460000D02*
X71979000Y-398000D01*
X71979000Y-4602000D02*
X71979000Y-3540000D01*
X72019000Y-1460000D02*
X72019000Y-334000D01*
X72019000Y-4666000D02*
X72019000Y-3540000D01*
X72059000Y-1460000D02*
X72059000Y-272000D01*
X72059000Y-4728000D02*
X72059000Y-3540000D01*
X72099000Y-1460000D02*
X72099000Y-213000D01*
X72099000Y-4787000D02*
X72099000Y-3540000D01*
X72139000Y-1460000D02*
X72139000Y-155000D01*
X72139000Y-4845000D02*
X72139000Y-3540000D01*
X72179000Y-1460000D02*
X72179000Y-100000D01*
X72179000Y-4900000D02*
X72179000Y-3540000D01*
X72219000Y-1460000D02*
X72219000Y-46000D01*
X72219000Y-4954000D02*
X72219000Y-3540000D01*
X72259000Y-1460000D02*
X72259000Y5000D01*
X72259000Y-5005000D02*
X72259000Y-3540000D01*
X72299000Y-1460000D02*
X72299000Y56000D01*
X72299000Y-5056000D02*
X72299000Y-3540000D01*
X72339000Y-1460000D02*
X72339000Y104000D01*
X72339000Y-5104000D02*
X72339000Y-3540000D01*
X72379000Y-1460000D02*
X72379000Y151000D01*
X72379000Y-5151000D02*
X72379000Y-3540000D01*
X72419000Y-1460000D02*
X72419000Y197000D01*
X72419000Y-5197000D02*
X72419000Y-3540000D01*
X72459000Y-1460000D02*
X72459000Y241000D01*
X72459000Y-5241000D02*
X72459000Y-3540000D01*
X72499000Y-1460000D02*
X72499000Y284000D01*
X72499000Y-5284000D02*
X72499000Y-3540000D01*
X72539000Y-1460000D02*
X72539000Y326000D01*
X72539000Y-5326000D02*
X72539000Y-3540000D01*
X72579000Y-1460000D02*
X72579000Y367000D01*
X72579000Y-5367000D02*
X72579000Y-3540000D01*
X72619000Y-1460000D02*
X72619000Y407000D01*
X72619000Y-5407000D02*
X72619000Y-3540000D01*
X72659000Y-1460000D02*
X72659000Y445000D01*
X72659000Y-5445000D02*
X72659000Y-3540000D01*
X72699000Y-1460000D02*
X72699000Y483000D01*
X72699000Y-5483000D02*
X72699000Y-3540000D01*
X72739000Y-1460000D02*
X72739000Y519000D01*
X72739000Y-5519000D02*
X72739000Y-3540000D01*
X72779000Y-1460000D02*
X72779000Y555000D01*
X72779000Y-5555000D02*
X72779000Y-3540000D01*
X72819000Y-1460000D02*
X72819000Y590000D01*
X72819000Y-5590000D02*
X72819000Y-3540000D01*
X72859000Y-1460000D02*
X72859000Y624000D01*
X72859000Y-5624000D02*
X72859000Y-3540000D01*
X72899000Y-1460000D02*
X72899000Y656000D01*
X72899000Y-5656000D02*
X72899000Y-3540000D01*
X72939000Y-1460000D02*
X72939000Y689000D01*
X72939000Y-5689000D02*
X72939000Y-3540000D01*
X72979000Y-1460000D02*
X72979000Y720000D01*
X72979000Y-5720000D02*
X72979000Y-3540000D01*
X73019000Y-1460000D02*
X73019000Y750000D01*
X73019000Y-5750000D02*
X73019000Y-3540000D01*
X73059000Y-1460000D02*
X73059000Y780000D01*
X73059000Y-5780000D02*
X73059000Y-3540000D01*
X73099000Y-1460000D02*
X73099000Y809000D01*
X73099000Y-5809000D02*
X73099000Y-3540000D01*
X73139000Y-1460000D02*
X73139000Y838000D01*
X73139000Y-5838000D02*
X73139000Y-3540000D01*
X73179000Y-1460000D02*
X73179000Y865000D01*
X73179000Y-5865000D02*
X73179000Y-3540000D01*
X73219000Y-1460000D02*
X73219000Y892000D01*
X73219000Y-5892000D02*
X73219000Y-3540000D01*
X73259000Y-1460000D02*
X73259000Y918000D01*
X73259000Y-5918000D02*
X73259000Y-3540000D01*
X73299000Y-1460000D02*
X73299000Y944000D01*
X73299000Y-5944000D02*
X73299000Y-3540000D01*
X73339000Y-1460000D02*
X73339000Y969000D01*
X73339000Y-5969000D02*
X73339000Y-3540000D01*
X73379000Y-1460000D02*
X73379000Y993000D01*
X73379000Y-5993000D02*
X73379000Y-3540000D01*
X73419000Y-1460000D02*
X73419000Y1017000D01*
X73419000Y-6017000D02*
X73419000Y-3540000D01*
X73459000Y-1460000D02*
X73459000Y1040000D01*
X73459000Y-6040000D02*
X73459000Y-3540000D01*
X73499000Y-1460000D02*
X73499000Y1062000D01*
X73499000Y-6062000D02*
X73499000Y-3540000D01*
X73539000Y-1460000D02*
X73539000Y1084000D01*
X73539000Y-6084000D02*
X73539000Y-3540000D01*
X73579000Y-1460000D02*
X73579000Y1106000D01*
X73579000Y-6106000D02*
X73579000Y-3540000D01*
X73619000Y-1460000D02*
X73619000Y1127000D01*
X73619000Y-6127000D02*
X73619000Y-3540000D01*
X73659000Y-1460000D02*
X73659000Y1147000D01*
X73659000Y-6147000D02*
X73659000Y-3540000D01*
X73699000Y-1460000D02*
X73699000Y1166000D01*
X73699000Y-6166000D02*
X73699000Y-3540000D01*
X73739000Y-1460000D02*
X73739000Y1186000D01*
X73739000Y-6186000D02*
X73739000Y-3540000D01*
X73779000Y-1460000D02*
X73779000Y1204000D01*
X73779000Y-6204000D02*
X73779000Y-3540000D01*
X73819000Y-1460000D02*
X73819000Y1222000D01*
X73819000Y-6222000D02*
X73819000Y-3540000D01*
X73859000Y-1460000D02*
X73859000Y1240000D01*
X73859000Y-6240000D02*
X73859000Y-3540000D01*
X73899000Y-1460000D02*
X73899000Y1257000D01*
X73899000Y-6257000D02*
X73899000Y-3540000D01*
X73939000Y-1460000D02*
X73939000Y1274000D01*
X73939000Y-6274000D02*
X73939000Y-3540000D01*
X73979000Y-1460000D02*
X73979000Y1290000D01*
X73979000Y-6290000D02*
X73979000Y-3540000D01*
X74019000Y-1460000D02*
X74019000Y1305000D01*
X74019000Y-6305000D02*
X74019000Y-3540000D01*
X74059000Y-6321000D02*
X74059000Y1321000D01*
X74099000Y-6335000D02*
X74099000Y1335000D01*
X74139000Y-6350000D02*
X74139000Y1350000D01*
X74179000Y-6363000D02*
X74179000Y1363000D01*
X74219000Y-6377000D02*
X74219000Y1377000D01*
X74259000Y-6389000D02*
X74259000Y1389000D01*
X74299000Y-6402000D02*
X74299000Y1402000D01*
X74339000Y-6414000D02*
X74339000Y1414000D01*
X74379000Y-6425000D02*
X74379000Y1425000D01*
X74419000Y-6436000D02*
X74419000Y1436000D01*
X74459000Y-6447000D02*
X74459000Y1447000D01*
X74499000Y-6457000D02*
X74499000Y1457000D01*
X74539000Y-6467000D02*
X74539000Y1467000D01*
X74579000Y-6476000D02*
X74579000Y1476000D01*
X74619000Y-6485000D02*
X74619000Y1485000D01*
X74659000Y-6494000D02*
X74659000Y1494000D01*
X74699000Y-6502000D02*
X74699000Y1502000D01*
X74739000Y-6510000D02*
X74739000Y1510000D01*
X74779000Y-6517000D02*
X74779000Y1517000D01*
X74820000Y-6524000D02*
X74820000Y1524000D01*
X74860000Y-6530000D02*
X74860000Y1530000D01*
X74900000Y-6537000D02*
X74900000Y1537000D01*
X74940000Y-6542000D02*
X74940000Y1542000D01*
X74980000Y-6548000D02*
X74980000Y1548000D01*
X75020000Y-6552000D02*
X75020000Y1552000D01*
X75060000Y-6557000D02*
X75060000Y1557000D01*
X75100000Y-6561000D02*
X75100000Y1561000D01*
X75140000Y-6565000D02*
X75140000Y1565000D01*
X75180000Y-6568000D02*
X75180000Y1568000D01*
X75220000Y-6571000D02*
X75220000Y1571000D01*
X75260000Y-6574000D02*
X75260000Y1574000D01*
X75300000Y-6576000D02*
X75300000Y1576000D01*
X75340000Y-6577000D02*
X75340000Y1577000D01*
X75380000Y-6579000D02*
X75380000Y1579000D01*
X75420000Y-6580000D02*
X75420000Y1580000D01*
X75460000Y-6580000D02*
X75460000Y1580000D01*
X75500000Y-6580000D02*
X75500000Y1580000D01*
X79620000Y-2500000D02*
G75*
G03X79620000Y-2500000I-4120000J0D01*
G01*
D12*
X44909523Y-29052380D02*
X44909523Y-28052380D01*
X45290476Y-28052380D01*
X45385714Y-28100000D01*
X45433333Y-28147619D01*
X45480952Y-28242857D01*
X45480952Y-28385714D01*
X45433333Y-28480952D01*
X45385714Y-28528571D01*
X45290476Y-28576190D01*
X44909523Y-28576190D01*
X46480952Y-28957142D02*
X46433333Y-29004761D01*
X46290476Y-29052380D01*
X46195238Y-29052380D01*
X46052380Y-29004761D01*
X45957142Y-28909523D01*
X45909523Y-28814285D01*
X45861904Y-28623809D01*
X45861904Y-28480952D01*
X45909523Y-28290476D01*
X45957142Y-28195238D01*
X46052380Y-28100000D01*
X46195238Y-28052380D01*
X46290476Y-28052380D01*
X46433333Y-28100000D01*
X46480952Y-28147619D01*
X47052380Y-28480952D02*
X46957142Y-28433333D01*
X46909523Y-28385714D01*
X46861904Y-28290476D01*
X46861904Y-28242857D01*
X46909523Y-28147619D01*
X46957142Y-28100000D01*
X47052380Y-28052380D01*
X47242857Y-28052380D01*
X47338095Y-28100000D01*
X47385714Y-28147619D01*
X47433333Y-28242857D01*
X47433333Y-28290476D01*
X47385714Y-28385714D01*
X47338095Y-28433333D01*
X47242857Y-28480952D01*
X47052380Y-28480952D01*
X46957142Y-28528571D01*
X46909523Y-28576190D01*
X46861904Y-28671428D01*
X46861904Y-28861904D01*
X46909523Y-28957142D01*
X46957142Y-29004761D01*
X47052380Y-29052380D01*
X47242857Y-29052380D01*
X47338095Y-29004761D01*
X47385714Y-28957142D01*
X47433333Y-28861904D01*
X47433333Y-28671428D01*
X47385714Y-28576190D01*
X47338095Y-28528571D01*
X47242857Y-28480952D01*
X48385714Y-29052380D02*
X47814285Y-29052380D01*
X48100000Y-29052380D02*
X48100000Y-28052380D01*
X48004761Y-28195238D01*
X47909523Y-28290476D01*
X47814285Y-28338095D01*
X48719047Y-28052380D02*
X49385714Y-28052380D01*
X48957142Y-29052380D01*
X44809523Y-37352380D02*
X44809523Y-36352380D01*
X45190476Y-36352380D01*
X45285714Y-36400000D01*
X45333333Y-36447619D01*
X45380952Y-36542857D01*
X45380952Y-36685714D01*
X45333333Y-36780952D01*
X45285714Y-36828571D01*
X45190476Y-36876190D01*
X44809523Y-36876190D01*
X46380952Y-37257142D02*
X46333333Y-37304761D01*
X46190476Y-37352380D01*
X46095238Y-37352380D01*
X45952380Y-37304761D01*
X45857142Y-37209523D01*
X45809523Y-37114285D01*
X45761904Y-36923809D01*
X45761904Y-36780952D01*
X45809523Y-36590476D01*
X45857142Y-36495238D01*
X45952380Y-36400000D01*
X46095238Y-36352380D01*
X46190476Y-36352380D01*
X46333333Y-36400000D01*
X46380952Y-36447619D01*
X46952380Y-36780952D02*
X46857142Y-36733333D01*
X46809523Y-36685714D01*
X46761904Y-36590476D01*
X46761904Y-36542857D01*
X46809523Y-36447619D01*
X46857142Y-36400000D01*
X46952380Y-36352380D01*
X47142857Y-36352380D01*
X47238095Y-36400000D01*
X47285714Y-36447619D01*
X47333333Y-36542857D01*
X47333333Y-36590476D01*
X47285714Y-36685714D01*
X47238095Y-36733333D01*
X47142857Y-36780952D01*
X46952380Y-36780952D01*
X46857142Y-36828571D01*
X46809523Y-36876190D01*
X46761904Y-36971428D01*
X46761904Y-37161904D01*
X46809523Y-37257142D01*
X46857142Y-37304761D01*
X46952380Y-37352380D01*
X47142857Y-37352380D01*
X47238095Y-37304761D01*
X47285714Y-37257142D01*
X47333333Y-37161904D01*
X47333333Y-36971428D01*
X47285714Y-36876190D01*
X47238095Y-36828571D01*
X47142857Y-36780952D01*
X48285714Y-37352380D02*
X47714285Y-37352380D01*
X48000000Y-37352380D02*
X48000000Y-36352380D01*
X47904761Y-36495238D01*
X47809523Y-36590476D01*
X47714285Y-36638095D01*
X48619047Y-36352380D02*
X49285714Y-36352380D01*
X48857142Y-37352380D01*
X78452380Y-59823809D02*
X78452380Y-60300000D01*
X77452380Y-60300000D01*
X77928571Y-59490476D02*
X77928571Y-59157142D01*
X78452380Y-59014285D02*
X78452380Y-59490476D01*
X77452380Y-59490476D01*
X77452380Y-59014285D01*
X78452380Y-58585714D02*
X77452380Y-58585714D01*
X77452380Y-58347619D01*
X77500000Y-58204761D01*
X77595238Y-58109523D01*
X77690476Y-58061904D01*
X77880952Y-58014285D01*
X78023809Y-58014285D01*
X78214285Y-58061904D01*
X78309523Y-58109523D01*
X78404761Y-58204761D01*
X78452380Y-58347619D01*
X78452380Y-58585714D01*
X78547619Y-57823809D02*
X78547619Y-57061904D01*
X77928571Y-56490476D02*
X77976190Y-56347619D01*
X78023809Y-56300000D01*
X78119047Y-56252380D01*
X78261904Y-56252380D01*
X78357142Y-56300000D01*
X78404761Y-56347619D01*
X78452380Y-56442857D01*
X78452380Y-56823809D01*
X77452380Y-56823809D01*
X77452380Y-56490476D01*
X77500000Y-56395238D01*
X77547619Y-56347619D01*
X77642857Y-56300000D01*
X77738095Y-56300000D01*
X77833333Y-56347619D01*
X77880952Y-56395238D01*
X77928571Y-56490476D01*
X77928571Y-56823809D01*
X77785714Y-55395238D02*
X78452380Y-55395238D01*
X77785714Y-55823809D02*
X78309523Y-55823809D01*
X78404761Y-55776190D01*
X78452380Y-55680952D01*
X78452380Y-55538095D01*
X78404761Y-55442857D01*
X78357142Y-55395238D01*
X78404761Y-54490476D02*
X78452380Y-54585714D01*
X78452380Y-54776190D01*
X78404761Y-54871428D01*
X78357142Y-54919047D01*
X78261904Y-54966666D01*
X77976190Y-54966666D01*
X77880952Y-54919047D01*
X77833333Y-54871428D01*
X77785714Y-54776190D01*
X77785714Y-54585714D01*
X77833333Y-54490476D01*
X78452380Y-54061904D02*
X77452380Y-54061904D01*
X78071428Y-53966666D02*
X78452380Y-53680952D01*
X77785714Y-53680952D02*
X78166666Y-54061904D01*
X78547619Y-53490476D02*
X78547619Y-52728571D01*
X77452380Y-52014285D02*
X77452380Y-52490476D01*
X77928571Y-52538095D01*
X77880952Y-52490476D01*
X77833333Y-52395238D01*
X77833333Y-52157142D01*
X77880952Y-52061904D01*
X77928571Y-52014285D01*
X78023809Y-51966666D01*
X78261904Y-51966666D01*
X78357142Y-52014285D01*
X78404761Y-52061904D01*
X78452380Y-52157142D01*
X78452380Y-52395238D01*
X78404761Y-52490476D01*
X78357142Y-52538095D01*
X77785714Y-51633333D02*
X78452380Y-51395238D01*
X77785714Y-51157142D01*
X78452380Y-50252380D02*
X78452380Y-50823809D01*
X78452380Y-50538095D02*
X77452380Y-50538095D01*
X77595238Y-50633333D01*
X77690476Y-50728571D01*
X77738095Y-50823809D01*
X69152380Y-59371428D02*
X69152380Y-59847619D01*
X68152380Y-59847619D01*
X68628571Y-59038095D02*
X68628571Y-58704761D01*
X69152380Y-58561904D02*
X69152380Y-59038095D01*
X68152380Y-59038095D01*
X68152380Y-58561904D01*
X69152380Y-58133333D02*
X68152380Y-58133333D01*
X68152380Y-57895238D01*
X68200000Y-57752380D01*
X68295238Y-57657142D01*
X68390476Y-57609523D01*
X68580952Y-57561904D01*
X68723809Y-57561904D01*
X68914285Y-57609523D01*
X69009523Y-57657142D01*
X69104761Y-57752380D01*
X69152380Y-57895238D01*
X69152380Y-58133333D01*
X69247619Y-57371428D02*
X69247619Y-56609523D01*
X68152380Y-56466666D02*
X68152380Y-55847619D01*
X68533333Y-56180952D01*
X68533333Y-56038095D01*
X68580952Y-55942857D01*
X68628571Y-55895238D01*
X68723809Y-55847619D01*
X68961904Y-55847619D01*
X69057142Y-55895238D01*
X69104761Y-55942857D01*
X69152380Y-56038095D01*
X69152380Y-56323809D01*
X69104761Y-56419047D01*
X69057142Y-56466666D01*
X69057142Y-55419047D02*
X69104761Y-55371428D01*
X69152380Y-55419047D01*
X69104761Y-55466666D01*
X69057142Y-55419047D01*
X69152380Y-55419047D01*
X68152380Y-55038095D02*
X68152380Y-54419047D01*
X68533333Y-54752380D01*
X68533333Y-54609523D01*
X68580952Y-54514285D01*
X68628571Y-54466666D01*
X68723809Y-54419047D01*
X68961904Y-54419047D01*
X69057142Y-54466666D01*
X69104761Y-54514285D01*
X69152380Y-54609523D01*
X69152380Y-54895238D01*
X69104761Y-54990476D01*
X69057142Y-55038095D01*
X68485714Y-54085714D02*
X69152380Y-53847619D01*
X68485714Y-53609523D01*
X69152380Y-52704761D02*
X69152380Y-53276190D01*
X69152380Y-52990476D02*
X68152380Y-52990476D01*
X68295238Y-53085714D01*
X68390476Y-53180952D01*
X68438095Y-53276190D01*
X64452380Y-18000000D02*
X64452380Y-17333333D01*
X65452380Y-18000000D01*
X65452380Y-17333333D01*
X65452380Y-16428571D02*
X65452380Y-17000000D01*
X65452380Y-16714285D02*
X64452380Y-16714285D01*
X64595238Y-16809523D01*
X64690476Y-16904761D01*
X64738095Y-17000000D01*
X65404761Y-16047619D02*
X65452380Y-15904761D01*
X65452380Y-15666666D01*
X65404761Y-15571428D01*
X65357142Y-15523809D01*
X65261904Y-15476190D01*
X65166666Y-15476190D01*
X65071428Y-15523809D01*
X65023809Y-15571428D01*
X64976190Y-15666666D01*
X64928571Y-15857142D01*
X64880952Y-15952380D01*
X64833333Y-16000000D01*
X64738095Y-16047619D01*
X64642857Y-16047619D01*
X64547619Y-16000000D01*
X64500000Y-15952380D01*
X64452380Y-15857142D01*
X64452380Y-15619047D01*
X64500000Y-15476190D01*
X65452380Y-15047619D02*
X64452380Y-15047619D01*
X65166666Y-14714285D01*
X64452380Y-14380952D01*
X65452380Y-14380952D01*
X65166666Y-13952380D02*
X65166666Y-13476190D01*
X65452380Y-14047619D02*
X64452380Y-13714285D01*
X65452380Y-13380952D01*
X65452380Y-13142857D02*
X64785714Y-12619047D01*
X64785714Y-13142857D02*
X65452380Y-12619047D01*
X65452380Y-12333333D02*
X64785714Y-11809523D01*
X64785714Y-12333333D02*
X65452380Y-11809523D01*
X65452380Y-11523809D02*
X64785714Y-11000000D01*
X64785714Y-11523809D02*
X65452380Y-11000000D01*
D18*
X34291533Y-37322133D02*
X32891533Y-37322133D01*
X34291533Y-36522133D02*
X33491533Y-37122133D01*
X32891533Y-36522133D02*
X33691533Y-37322133D01*
X34291533Y-35188800D02*
X34291533Y-35988800D01*
X34291533Y-35588800D02*
X32891533Y-35588800D01*
X33091533Y-35722133D01*
X33224866Y-35855466D01*
X33291533Y-35988800D01*
X34134333Y-12318333D02*
X32734333Y-12318333D01*
X34134333Y-11518333D02*
X33334333Y-12118333D01*
X32734333Y-11518333D02*
X33534333Y-12318333D01*
X32867666Y-10985000D02*
X32801000Y-10918333D01*
X32734333Y-10785000D01*
X32734333Y-10451666D01*
X32801000Y-10318333D01*
X32867666Y-10251666D01*
X33001000Y-10185000D01*
X33134333Y-10185000D01*
X33334333Y-10251666D01*
X34134333Y-11051666D01*
X34134333Y-10185000D01*
D12*
X29585714Y-4652380D02*
X29109523Y-4652380D01*
X29061904Y-5128571D01*
X29109523Y-5080952D01*
X29204761Y-5033333D01*
X29442857Y-5033333D01*
X29538095Y-5080952D01*
X29585714Y-5128571D01*
X29633333Y-5223809D01*
X29633333Y-5461904D01*
X29585714Y-5557142D01*
X29538095Y-5604761D01*
X29442857Y-5652380D01*
X29204761Y-5652380D01*
X29109523Y-5604761D01*
X29061904Y-5557142D01*
X30585714Y-5652380D02*
X30014285Y-5652380D01*
X30300000Y-5652380D02*
X30300000Y-4652380D01*
X30204761Y-4795238D01*
X30109523Y-4890476D01*
X30014285Y-4938095D01*
X31204761Y-4652380D02*
X31300000Y-4652380D01*
X31395238Y-4700000D01*
X31442857Y-4747619D01*
X31490476Y-4842857D01*
X31538095Y-5033333D01*
X31538095Y-5271428D01*
X31490476Y-5461904D01*
X31442857Y-5557142D01*
X31395238Y-5604761D01*
X31300000Y-5652380D01*
X31204761Y-5652380D01*
X31109523Y-5604761D01*
X31061904Y-5557142D01*
X31014285Y-5461904D01*
X30966666Y-5271428D01*
X30966666Y-5033333D01*
X31014285Y-4842857D01*
X31061904Y-4747619D01*
X31109523Y-4700000D01*
X31204761Y-4652380D01*
X40695238Y-1652380D02*
X40695238Y-652380D01*
X41171428Y-1652380D02*
X41171428Y-652380D01*
X41171428Y-1128571D02*
X41742857Y-1128571D01*
X41742857Y-1652380D02*
X41742857Y-652380D01*
X42742857Y-1652380D02*
X42171428Y-1652380D01*
X42457142Y-1652380D02*
X42457142Y-652380D01*
X42361904Y-795238D01*
X42266666Y-890476D01*
X42171428Y-938095D01*
X43123809Y-747619D02*
X43171428Y-700000D01*
X43266666Y-652380D01*
X43504761Y-652380D01*
X43600000Y-700000D01*
X43647619Y-747619D01*
X43695238Y-842857D01*
X43695238Y-938095D01*
X43647619Y-1080952D01*
X43076190Y-1652380D01*
X43695238Y-1652380D01*
X44647619Y-1652380D02*
X44076190Y-1652380D01*
X44361904Y-1652380D02*
X44361904Y-652380D01*
X44266666Y-795238D01*
X44171428Y-890476D01*
X44076190Y-938095D01*
X45028571Y-747619D02*
X45076190Y-700000D01*
X45171428Y-652380D01*
X45409523Y-652380D01*
X45504761Y-700000D01*
X45552380Y-747619D01*
X45600000Y-842857D01*
X45600000Y-938095D01*
X45552380Y-1080952D01*
X44980952Y-1652380D01*
X45600000Y-1652380D01*
X45980952Y-1604761D02*
X46123809Y-1652380D01*
X46361904Y-1652380D01*
X46457142Y-1604761D01*
X46504761Y-1557142D01*
X46552380Y-1461904D01*
X46552380Y-1366666D01*
X46504761Y-1271428D01*
X46457142Y-1223809D01*
X46361904Y-1176190D01*
X46171428Y-1128571D01*
X46076190Y-1080952D01*
X46028571Y-1033333D01*
X45980952Y-938095D01*
X45980952Y-842857D01*
X46028571Y-747619D01*
X46076190Y-700000D01*
X46171428Y-652380D01*
X46409523Y-652380D01*
X46552380Y-700000D01*
X67552380Y-46366666D02*
X67552380Y-46938095D01*
X67552380Y-46652380D02*
X66552380Y-46652380D01*
X66695238Y-46747619D01*
X66790476Y-46842857D01*
X66838095Y-46938095D01*
X66552380Y-45747619D02*
X66552380Y-45652380D01*
X66600000Y-45557142D01*
X66647619Y-45509523D01*
X66742857Y-45461904D01*
X66933333Y-45414285D01*
X67171428Y-45414285D01*
X67361904Y-45461904D01*
X67457142Y-45509523D01*
X67504761Y-45557142D01*
X67552380Y-45652380D01*
X67552380Y-45747619D01*
X67504761Y-45842857D01*
X67457142Y-45890476D01*
X67361904Y-45938095D01*
X67171428Y-45985714D01*
X66933333Y-45985714D01*
X66742857Y-45938095D01*
X66647619Y-45890476D01*
X66600000Y-45842857D01*
X66552380Y-45747619D01*
X66885714Y-45080952D02*
X67552380Y-44842857D01*
X66885714Y-44604761D01*
X67552380Y-42938095D02*
X67552380Y-43509523D01*
X67552380Y-43223809D02*
X66552380Y-43223809D01*
X66695238Y-43319047D01*
X66790476Y-43414285D01*
X66838095Y-43509523D01*
X66885714Y-42080952D02*
X67552380Y-42080952D01*
X66885714Y-42509523D02*
X67409523Y-42509523D01*
X67504761Y-42461904D01*
X67552380Y-42366666D01*
X67552380Y-42223809D01*
X67504761Y-42128571D01*
X67457142Y-42080952D01*
X66885714Y-41747619D02*
X66885714Y-41366666D01*
X67552380Y-41604761D02*
X66695238Y-41604761D01*
X66600000Y-41557142D01*
X66552380Y-41461904D01*
X66552380Y-41366666D01*
X70952380Y-15261904D02*
X70952380Y-15833333D01*
X70952380Y-15547619D02*
X69952380Y-15547619D01*
X70095238Y-15642857D01*
X70190476Y-15738095D01*
X70238095Y-15833333D01*
X69952380Y-14404761D02*
X69952380Y-14595238D01*
X70000000Y-14690476D01*
X70047619Y-14738095D01*
X70190476Y-14833333D01*
X70380952Y-14880952D01*
X70761904Y-14880952D01*
X70857142Y-14833333D01*
X70904761Y-14785714D01*
X70952380Y-14690476D01*
X70952380Y-14500000D01*
X70904761Y-14404761D01*
X70857142Y-14357142D01*
X70761904Y-14309523D01*
X70523809Y-14309523D01*
X70428571Y-14357142D01*
X70380952Y-14404761D01*
X70333333Y-14500000D01*
X70333333Y-14690476D01*
X70380952Y-14785714D01*
X70428571Y-14833333D01*
X70523809Y-14880952D01*
X70285714Y-13976190D02*
X70952380Y-13738095D01*
X70285714Y-13500000D01*
X70047619Y-12404761D02*
X70000000Y-12357142D01*
X69952380Y-12261904D01*
X69952380Y-12023809D01*
X70000000Y-11928571D01*
X70047619Y-11880952D01*
X70142857Y-11833333D01*
X70238095Y-11833333D01*
X70380952Y-11880952D01*
X70952380Y-12452380D01*
X70952380Y-11833333D01*
X70047619Y-11452380D02*
X70000000Y-11404761D01*
X69952380Y-11309523D01*
X69952380Y-11071428D01*
X70000000Y-10976190D01*
X70047619Y-10928571D01*
X70142857Y-10880952D01*
X70238095Y-10880952D01*
X70380952Y-10928571D01*
X70952380Y-11500000D01*
X70952380Y-10880952D01*
X69952380Y-10261904D02*
X69952380Y-10166666D01*
X70000000Y-10071428D01*
X70047619Y-10023809D01*
X70142857Y-9976190D01*
X70333333Y-9928571D01*
X70571428Y-9928571D01*
X70761904Y-9976190D01*
X70857142Y-10023809D01*
X70904761Y-10071428D01*
X70952380Y-10166666D01*
X70952380Y-10261904D01*
X70904761Y-10357142D01*
X70857142Y-10404761D01*
X70761904Y-10452380D01*
X70571428Y-10500000D01*
X70333333Y-10500000D01*
X70142857Y-10452380D01*
X70047619Y-10404761D01*
X70000000Y-10357142D01*
X69952380Y-10261904D01*
X70285714Y-9071428D02*
X70952380Y-9071428D01*
X70285714Y-9500000D02*
X70809523Y-9500000D01*
X70904761Y-9452380D01*
X70952380Y-9357142D01*
X70952380Y-9214285D01*
X70904761Y-9119047D01*
X70857142Y-9071428D01*
X70428571Y-8261904D02*
X70428571Y-8595238D01*
X70952380Y-8595238D02*
X69952380Y-8595238D01*
X69952380Y-8119047D01*
X36142857Y-34928571D02*
X36285714Y-34976190D01*
X36333333Y-35023809D01*
X36380952Y-35119047D01*
X36380952Y-35261904D01*
X36333333Y-35357142D01*
X36285714Y-35404761D01*
X36190476Y-35452380D01*
X35809523Y-35452380D01*
X35809523Y-34452380D01*
X36142857Y-34452380D01*
X36238095Y-34500000D01*
X36285714Y-34547619D01*
X36333333Y-34642857D01*
X36333333Y-34738095D01*
X36285714Y-34833333D01*
X36238095Y-34880952D01*
X36142857Y-34928571D01*
X35809523Y-34928571D01*
X37380952Y-35357142D02*
X37333333Y-35404761D01*
X37190476Y-35452380D01*
X37095238Y-35452380D01*
X36952380Y-35404761D01*
X36857142Y-35309523D01*
X36809523Y-35214285D01*
X36761904Y-35023809D01*
X36761904Y-34880952D01*
X36809523Y-34690476D01*
X36857142Y-34595238D01*
X36952380Y-34500000D01*
X37095238Y-34452380D01*
X37190476Y-34452380D01*
X37333333Y-34500000D01*
X37380952Y-34547619D01*
X37952380Y-34880952D02*
X37857142Y-34833333D01*
X37809523Y-34785714D01*
X37761904Y-34690476D01*
X37761904Y-34642857D01*
X37809523Y-34547619D01*
X37857142Y-34500000D01*
X37952380Y-34452380D01*
X38142857Y-34452380D01*
X38238095Y-34500000D01*
X38285714Y-34547619D01*
X38333333Y-34642857D01*
X38333333Y-34690476D01*
X38285714Y-34785714D01*
X38238095Y-34833333D01*
X38142857Y-34880952D01*
X37952380Y-34880952D01*
X37857142Y-34928571D01*
X37809523Y-34976190D01*
X37761904Y-35071428D01*
X37761904Y-35261904D01*
X37809523Y-35357142D01*
X37857142Y-35404761D01*
X37952380Y-35452380D01*
X38142857Y-35452380D01*
X38238095Y-35404761D01*
X38285714Y-35357142D01*
X38333333Y-35261904D01*
X38333333Y-35071428D01*
X38285714Y-34976190D01*
X38238095Y-34928571D01*
X38142857Y-34880952D01*
X39190476Y-34785714D02*
X39190476Y-35452380D01*
X38952380Y-34404761D02*
X38714285Y-35119047D01*
X39333333Y-35119047D01*
X39619047Y-34452380D02*
X40285714Y-34452380D01*
X39857142Y-35452380D01*
X36142857Y-52928571D02*
X36285714Y-52976190D01*
X36333333Y-53023809D01*
X36380952Y-53119047D01*
X36380952Y-53261904D01*
X36333333Y-53357142D01*
X36285714Y-53404761D01*
X36190476Y-53452380D01*
X35809523Y-53452380D01*
X35809523Y-52452380D01*
X36142857Y-52452380D01*
X36238095Y-52500000D01*
X36285714Y-52547619D01*
X36333333Y-52642857D01*
X36333333Y-52738095D01*
X36285714Y-52833333D01*
X36238095Y-52880952D01*
X36142857Y-52928571D01*
X35809523Y-52928571D01*
X37380952Y-53357142D02*
X37333333Y-53404761D01*
X37190476Y-53452380D01*
X37095238Y-53452380D01*
X36952380Y-53404761D01*
X36857142Y-53309523D01*
X36809523Y-53214285D01*
X36761904Y-53023809D01*
X36761904Y-52880952D01*
X36809523Y-52690476D01*
X36857142Y-52595238D01*
X36952380Y-52500000D01*
X37095238Y-52452380D01*
X37190476Y-52452380D01*
X37333333Y-52500000D01*
X37380952Y-52547619D01*
X37952380Y-52880952D02*
X37857142Y-52833333D01*
X37809523Y-52785714D01*
X37761904Y-52690476D01*
X37761904Y-52642857D01*
X37809523Y-52547619D01*
X37857142Y-52500000D01*
X37952380Y-52452380D01*
X38142857Y-52452380D01*
X38238095Y-52500000D01*
X38285714Y-52547619D01*
X38333333Y-52642857D01*
X38333333Y-52690476D01*
X38285714Y-52785714D01*
X38238095Y-52833333D01*
X38142857Y-52880952D01*
X37952380Y-52880952D01*
X37857142Y-52928571D01*
X37809523Y-52976190D01*
X37761904Y-53071428D01*
X37761904Y-53261904D01*
X37809523Y-53357142D01*
X37857142Y-53404761D01*
X37952380Y-53452380D01*
X38142857Y-53452380D01*
X38238095Y-53404761D01*
X38285714Y-53357142D01*
X38333333Y-53261904D01*
X38333333Y-53071428D01*
X38285714Y-52976190D01*
X38238095Y-52928571D01*
X38142857Y-52880952D01*
X39190476Y-52785714D02*
X39190476Y-53452380D01*
X38952380Y-52404761D02*
X38714285Y-53119047D01*
X39333333Y-53119047D01*
X39619047Y-52452380D02*
X40285714Y-52452380D01*
X39857142Y-53452380D01*
X58404761Y-33252380D02*
X58404761Y-32252380D01*
X58785714Y-32252380D01*
X58880952Y-32300000D01*
X58928571Y-32347619D01*
X58976190Y-32442857D01*
X58976190Y-32585714D01*
X58928571Y-32680952D01*
X58880952Y-32728571D01*
X58785714Y-32776190D01*
X58404761Y-32776190D01*
X59976190Y-33157142D02*
X59928571Y-33204761D01*
X59785714Y-33252380D01*
X59690476Y-33252380D01*
X59547619Y-33204761D01*
X59452380Y-33109523D01*
X59404761Y-33014285D01*
X59357142Y-32823809D01*
X59357142Y-32680952D01*
X59404761Y-32490476D01*
X59452380Y-32395238D01*
X59547619Y-32300000D01*
X59690476Y-32252380D01*
X59785714Y-32252380D01*
X59928571Y-32300000D01*
X59976190Y-32347619D01*
X60738095Y-32728571D02*
X60404761Y-32728571D01*
X60404761Y-33252380D02*
X60404761Y-32252380D01*
X60880952Y-32252380D01*
X61404761Y-32680952D02*
X61309523Y-32633333D01*
X61261904Y-32585714D01*
X61214285Y-32490476D01*
X61214285Y-32442857D01*
X61261904Y-32347619D01*
X61309523Y-32300000D01*
X61404761Y-32252380D01*
X61595238Y-32252380D01*
X61690476Y-32300000D01*
X61738095Y-32347619D01*
X61785714Y-32442857D01*
X61785714Y-32490476D01*
X61738095Y-32585714D01*
X61690476Y-32633333D01*
X61595238Y-32680952D01*
X61404761Y-32680952D01*
X61309523Y-32728571D01*
X61261904Y-32776190D01*
X61214285Y-32871428D01*
X61214285Y-33061904D01*
X61261904Y-33157142D01*
X61309523Y-33204761D01*
X61404761Y-33252380D01*
X61595238Y-33252380D01*
X61690476Y-33204761D01*
X61738095Y-33157142D01*
X61785714Y-33061904D01*
X61785714Y-32871428D01*
X61738095Y-32776190D01*
X61690476Y-32728571D01*
X61595238Y-32680952D01*
X62690476Y-32252380D02*
X62214285Y-32252380D01*
X62166666Y-32728571D01*
X62214285Y-32680952D01*
X62309523Y-32633333D01*
X62547619Y-32633333D01*
X62642857Y-32680952D01*
X62690476Y-32728571D01*
X62738095Y-32823809D01*
X62738095Y-33061904D01*
X62690476Y-33157142D01*
X62642857Y-33204761D01*
X62547619Y-33252380D01*
X62309523Y-33252380D01*
X62214285Y-33204761D01*
X62166666Y-33157142D01*
X63071428Y-32252380D02*
X63738095Y-32252380D01*
X63309523Y-33252380D01*
X64547619Y-32585714D02*
X64547619Y-33252380D01*
X64309523Y-32204761D02*
X64071428Y-32919047D01*
X64690476Y-32919047D01*
X96452380Y-26738095D02*
X96452380Y-27214285D01*
X95452380Y-27214285D01*
X96452380Y-26404761D02*
X95452380Y-26404761D01*
X96166666Y-26071428D01*
X95452380Y-25738095D01*
X96452380Y-25738095D01*
X95547619Y-25309523D02*
X95500000Y-25261904D01*
X95452380Y-25166666D01*
X95452380Y-24928571D01*
X95500000Y-24833333D01*
X95547619Y-24785714D01*
X95642857Y-24738095D01*
X95738095Y-24738095D01*
X95880952Y-24785714D01*
X96452380Y-25357142D01*
X96452380Y-24738095D01*
X95452380Y-23833333D02*
X95452380Y-24309523D01*
X95928571Y-24357142D01*
X95880952Y-24309523D01*
X95833333Y-24214285D01*
X95833333Y-23976190D01*
X95880952Y-23880952D01*
X95928571Y-23833333D01*
X96023809Y-23785714D01*
X96261904Y-23785714D01*
X96357142Y-23833333D01*
X96404761Y-23880952D01*
X96452380Y-23976190D01*
X96452380Y-24214285D01*
X96404761Y-24309523D01*
X96357142Y-24357142D01*
X96452380Y-23309523D02*
X96452380Y-23119047D01*
X96404761Y-23023809D01*
X96357142Y-22976190D01*
X96214285Y-22880952D01*
X96023809Y-22833333D01*
X95642857Y-22833333D01*
X95547619Y-22880952D01*
X95500000Y-22928571D01*
X95452380Y-23023809D01*
X95452380Y-23214285D01*
X95500000Y-23309523D01*
X95547619Y-23357142D01*
X95642857Y-23404761D01*
X95880952Y-23404761D01*
X95976190Y-23357142D01*
X96023809Y-23309523D01*
X96071428Y-23214285D01*
X96071428Y-23023809D01*
X96023809Y-22928571D01*
X95976190Y-22880952D01*
X95880952Y-22833333D01*
X95452380Y-21976190D02*
X95452380Y-22166666D01*
X95500000Y-22261904D01*
X95547619Y-22309523D01*
X95690476Y-22404761D01*
X95880952Y-22452380D01*
X96261904Y-22452380D01*
X96357142Y-22404761D01*
X96404761Y-22357142D01*
X96452380Y-22261904D01*
X96452380Y-22071428D01*
X96404761Y-21976190D01*
X96357142Y-21928571D01*
X96261904Y-21880952D01*
X96023809Y-21880952D01*
X95928571Y-21928571D01*
X95880952Y-21976190D01*
X95833333Y-22071428D01*
X95833333Y-22261904D01*
X95880952Y-22357142D01*
X95928571Y-22404761D01*
X96023809Y-22452380D01*
X96404761Y-21500000D02*
X96452380Y-21357142D01*
X96452380Y-21119047D01*
X96404761Y-21023809D01*
X96357142Y-20976190D01*
X96261904Y-20928571D01*
X96166666Y-20928571D01*
X96071428Y-20976190D01*
X96023809Y-21023809D01*
X95976190Y-21119047D01*
X95928571Y-21309523D01*
X95880952Y-21404761D01*
X95833333Y-21452380D01*
X95738095Y-21500000D01*
X95642857Y-21500000D01*
X95547619Y-21452380D01*
X95500000Y-21404761D01*
X95452380Y-21309523D01*
X95452380Y-21071428D01*
X95500000Y-20928571D01*
X96071428Y-20500000D02*
X96071428Y-19738095D01*
X95452380Y-18785714D02*
X95452380Y-19261904D01*
X95928571Y-19309523D01*
X95880952Y-19261904D01*
X95833333Y-19166666D01*
X95833333Y-18928571D01*
X95880952Y-18833333D01*
X95928571Y-18785714D01*
X96023809Y-18738095D01*
X96261904Y-18738095D01*
X96357142Y-18785714D01*
X96404761Y-18833333D01*
X96452380Y-18928571D01*
X96452380Y-19166666D01*
X96404761Y-19261904D01*
X96357142Y-19309523D01*
X62109523Y-47652380D02*
X61538095Y-47652380D01*
X61823809Y-47652380D02*
X61823809Y-46652380D01*
X61728571Y-46795238D01*
X61633333Y-46890476D01*
X61538095Y-46938095D01*
X62728571Y-46652380D02*
X62823809Y-46652380D01*
X62919047Y-46700000D01*
X62966666Y-46747619D01*
X63014285Y-46842857D01*
X63061904Y-47033333D01*
X63061904Y-47271428D01*
X63014285Y-47461904D01*
X62966666Y-47557142D01*
X62919047Y-47604761D01*
X62823809Y-47652380D01*
X62728571Y-47652380D01*
X62633333Y-47604761D01*
X62585714Y-47557142D01*
X62538095Y-47461904D01*
X62490476Y-47271428D01*
X62490476Y-47033333D01*
X62538095Y-46842857D01*
X62585714Y-46747619D01*
X62633333Y-46700000D01*
X62728571Y-46652380D01*
X63490476Y-47652380D02*
X63490476Y-46652380D01*
X64061904Y-47652380D02*
X63633333Y-47080952D01*
X64061904Y-46652380D02*
X63490476Y-47223809D01*
X61752380Y-27790476D02*
X61752380Y-28361904D01*
X61752380Y-28076190D02*
X60752380Y-28076190D01*
X60895238Y-28171428D01*
X60990476Y-28266666D01*
X61038095Y-28361904D01*
X60752380Y-27171428D02*
X60752380Y-27076190D01*
X60800000Y-26980952D01*
X60847619Y-26933333D01*
X60942857Y-26885714D01*
X61133333Y-26838095D01*
X61371428Y-26838095D01*
X61561904Y-26885714D01*
X61657142Y-26933333D01*
X61704761Y-26980952D01*
X61752380Y-27076190D01*
X61752380Y-27171428D01*
X61704761Y-27266666D01*
X61657142Y-27314285D01*
X61561904Y-27361904D01*
X61371428Y-27409523D01*
X61133333Y-27409523D01*
X60942857Y-27361904D01*
X60847619Y-27314285D01*
X60800000Y-27266666D01*
X60752380Y-27171428D01*
X61752380Y-26409523D02*
X60752380Y-26409523D01*
X61752380Y-25838095D02*
X61180952Y-26266666D01*
X60752380Y-25838095D02*
X61323809Y-26409523D01*
X65752380Y-27590476D02*
X65752380Y-28161904D01*
X65752380Y-27876190D02*
X64752380Y-27876190D01*
X64895238Y-27971428D01*
X64990476Y-28066666D01*
X65038095Y-28161904D01*
X64752380Y-26971428D02*
X64752380Y-26876190D01*
X64800000Y-26780952D01*
X64847619Y-26733333D01*
X64942857Y-26685714D01*
X65133333Y-26638095D01*
X65371428Y-26638095D01*
X65561904Y-26685714D01*
X65657142Y-26733333D01*
X65704761Y-26780952D01*
X65752380Y-26876190D01*
X65752380Y-26971428D01*
X65704761Y-27066666D01*
X65657142Y-27114285D01*
X65561904Y-27161904D01*
X65371428Y-27209523D01*
X65133333Y-27209523D01*
X64942857Y-27161904D01*
X64847619Y-27114285D01*
X64800000Y-27066666D01*
X64752380Y-26971428D01*
X65752380Y-26209523D02*
X64752380Y-26209523D01*
X65752380Y-25638095D02*
X65180952Y-26066666D01*
X64752380Y-25638095D02*
X65323809Y-26209523D01*
X69602380Y-27615476D02*
X69602380Y-28186904D01*
X69602380Y-27901190D02*
X68602380Y-27901190D01*
X68745238Y-27996428D01*
X68840476Y-28091666D01*
X68888095Y-28186904D01*
X68602380Y-26996428D02*
X68602380Y-26901190D01*
X68650000Y-26805952D01*
X68697619Y-26758333D01*
X68792857Y-26710714D01*
X68983333Y-26663095D01*
X69221428Y-26663095D01*
X69411904Y-26710714D01*
X69507142Y-26758333D01*
X69554761Y-26805952D01*
X69602380Y-26901190D01*
X69602380Y-26996428D01*
X69554761Y-27091666D01*
X69507142Y-27139285D01*
X69411904Y-27186904D01*
X69221428Y-27234523D01*
X68983333Y-27234523D01*
X68792857Y-27186904D01*
X68697619Y-27139285D01*
X68650000Y-27091666D01*
X68602380Y-26996428D01*
X69602380Y-26234523D02*
X68602380Y-26234523D01*
X69602380Y-25663095D02*
X69030952Y-26091666D01*
X68602380Y-25663095D02*
X69173809Y-26234523D01*
X46452380Y-43964285D02*
X46452380Y-44440476D01*
X46928571Y-44488095D01*
X46880952Y-44440476D01*
X46833333Y-44345238D01*
X46833333Y-44107142D01*
X46880952Y-44011904D01*
X46928571Y-43964285D01*
X47023809Y-43916666D01*
X47261904Y-43916666D01*
X47357142Y-43964285D01*
X47404761Y-44011904D01*
X47452380Y-44107142D01*
X47452380Y-44345238D01*
X47404761Y-44440476D01*
X47357142Y-44488095D01*
X47452380Y-42964285D02*
X47452380Y-43535714D01*
X47452380Y-43250000D02*
X46452380Y-43250000D01*
X46595238Y-43345238D01*
X46690476Y-43440476D01*
X46738095Y-43535714D01*
X46452380Y-42345238D02*
X46452380Y-42250000D01*
X46500000Y-42154761D01*
X46547619Y-42107142D01*
X46642857Y-42059523D01*
X46833333Y-42011904D01*
X47071428Y-42011904D01*
X47261904Y-42059523D01*
X47357142Y-42107142D01*
X47404761Y-42154761D01*
X47452380Y-42250000D01*
X47452380Y-42345238D01*
X47404761Y-42440476D01*
X47357142Y-42488095D01*
X47261904Y-42535714D01*
X47071428Y-42583333D01*
X46833333Y-42583333D01*
X46642857Y-42535714D01*
X46547619Y-42488095D01*
X46500000Y-42440476D01*
X46452380Y-42345238D01*
X73752380Y-52514285D02*
X73752380Y-52990476D01*
X74228571Y-53038095D01*
X74180952Y-52990476D01*
X74133333Y-52895238D01*
X74133333Y-52657142D01*
X74180952Y-52561904D01*
X74228571Y-52514285D01*
X74323809Y-52466666D01*
X74561904Y-52466666D01*
X74657142Y-52514285D01*
X74704761Y-52561904D01*
X74752380Y-52657142D01*
X74752380Y-52895238D01*
X74704761Y-52990476D01*
X74657142Y-53038095D01*
X74752380Y-51514285D02*
X74752380Y-52085714D01*
X74752380Y-51800000D02*
X73752380Y-51800000D01*
X73895238Y-51895238D01*
X73990476Y-51990476D01*
X74038095Y-52085714D01*
X73752380Y-50895238D02*
X73752380Y-50800000D01*
X73800000Y-50704761D01*
X73847619Y-50657142D01*
X73942857Y-50609523D01*
X74133333Y-50561904D01*
X74371428Y-50561904D01*
X74561904Y-50609523D01*
X74657142Y-50657142D01*
X74704761Y-50704761D01*
X74752380Y-50800000D01*
X74752380Y-50895238D01*
X74704761Y-50990476D01*
X74657142Y-51038095D01*
X74561904Y-51085714D01*
X74371428Y-51133333D01*
X74133333Y-51133333D01*
X73942857Y-51085714D01*
X73847619Y-51038095D01*
X73800000Y-50990476D01*
X73752380Y-50895238D01*
X72152380Y-52514285D02*
X72152380Y-52990476D01*
X72628571Y-53038095D01*
X72580952Y-52990476D01*
X72533333Y-52895238D01*
X72533333Y-52657142D01*
X72580952Y-52561904D01*
X72628571Y-52514285D01*
X72723809Y-52466666D01*
X72961904Y-52466666D01*
X73057142Y-52514285D01*
X73104761Y-52561904D01*
X73152380Y-52657142D01*
X73152380Y-52895238D01*
X73104761Y-52990476D01*
X73057142Y-53038095D01*
X73152380Y-51514285D02*
X73152380Y-52085714D01*
X73152380Y-51800000D02*
X72152380Y-51800000D01*
X72295238Y-51895238D01*
X72390476Y-51990476D01*
X72438095Y-52085714D01*
X72152380Y-50895238D02*
X72152380Y-50800000D01*
X72200000Y-50704761D01*
X72247619Y-50657142D01*
X72342857Y-50609523D01*
X72533333Y-50561904D01*
X72771428Y-50561904D01*
X72961904Y-50609523D01*
X73057142Y-50657142D01*
X73104761Y-50704761D01*
X73152380Y-50800000D01*
X73152380Y-50895238D01*
X73104761Y-50990476D01*
X73057142Y-51038095D01*
X72961904Y-51085714D01*
X72771428Y-51133333D01*
X72533333Y-51133333D01*
X72342857Y-51085714D01*
X72247619Y-51038095D01*
X72200000Y-50990476D01*
X72152380Y-50895238D01*
X85252380Y-51814285D02*
X85252380Y-52290476D01*
X85728571Y-52338095D01*
X85680952Y-52290476D01*
X85633333Y-52195238D01*
X85633333Y-51957142D01*
X85680952Y-51861904D01*
X85728571Y-51814285D01*
X85823809Y-51766666D01*
X86061904Y-51766666D01*
X86157142Y-51814285D01*
X86204761Y-51861904D01*
X86252380Y-51957142D01*
X86252380Y-52195238D01*
X86204761Y-52290476D01*
X86157142Y-52338095D01*
X86252380Y-50814285D02*
X86252380Y-51385714D01*
X86252380Y-51100000D02*
X85252380Y-51100000D01*
X85395238Y-51195238D01*
X85490476Y-51290476D01*
X85538095Y-51385714D01*
X85252380Y-50195238D02*
X85252380Y-50100000D01*
X85300000Y-50004761D01*
X85347619Y-49957142D01*
X85442857Y-49909523D01*
X85633333Y-49861904D01*
X85871428Y-49861904D01*
X86061904Y-49909523D01*
X86157142Y-49957142D01*
X86204761Y-50004761D01*
X86252380Y-50100000D01*
X86252380Y-50195238D01*
X86204761Y-50290476D01*
X86157142Y-50338095D01*
X86061904Y-50385714D01*
X85871428Y-50433333D01*
X85633333Y-50433333D01*
X85442857Y-50385714D01*
X85347619Y-50338095D01*
X85300000Y-50290476D01*
X85252380Y-50195238D01*
X29585714Y-53852380D02*
X29109523Y-53852380D01*
X29061904Y-54328571D01*
X29109523Y-54280952D01*
X29204761Y-54233333D01*
X29442857Y-54233333D01*
X29538095Y-54280952D01*
X29585714Y-54328571D01*
X29633333Y-54423809D01*
X29633333Y-54661904D01*
X29585714Y-54757142D01*
X29538095Y-54804761D01*
X29442857Y-54852380D01*
X29204761Y-54852380D01*
X29109523Y-54804761D01*
X29061904Y-54757142D01*
X30585714Y-54852380D02*
X30014285Y-54852380D01*
X30300000Y-54852380D02*
X30300000Y-53852380D01*
X30204761Y-53995238D01*
X30109523Y-54090476D01*
X30014285Y-54138095D01*
X31204761Y-53852380D02*
X31300000Y-53852380D01*
X31395238Y-53900000D01*
X31442857Y-53947619D01*
X31490476Y-54042857D01*
X31538095Y-54233333D01*
X31538095Y-54471428D01*
X31490476Y-54661904D01*
X31442857Y-54757142D01*
X31395238Y-54804761D01*
X31300000Y-54852380D01*
X31204761Y-54852380D01*
X31109523Y-54804761D01*
X31061904Y-54757142D01*
X31014285Y-54661904D01*
X30966666Y-54471428D01*
X30966666Y-54233333D01*
X31014285Y-54042857D01*
X31061904Y-53947619D01*
X31109523Y-53900000D01*
X31204761Y-53852380D01*
X56452380Y-27714285D02*
X56452380Y-28190476D01*
X56928571Y-28238095D01*
X56880952Y-28190476D01*
X56833333Y-28095238D01*
X56833333Y-27857142D01*
X56880952Y-27761904D01*
X56928571Y-27714285D01*
X57023809Y-27666666D01*
X57261904Y-27666666D01*
X57357142Y-27714285D01*
X57404761Y-27761904D01*
X57452380Y-27857142D01*
X57452380Y-28095238D01*
X57404761Y-28190476D01*
X57357142Y-28238095D01*
X57452380Y-26714285D02*
X57452380Y-27285714D01*
X57452380Y-27000000D02*
X56452380Y-27000000D01*
X56595238Y-27095238D01*
X56690476Y-27190476D01*
X56738095Y-27285714D01*
X56452380Y-26095238D02*
X56452380Y-26000000D01*
X56500000Y-25904761D01*
X56547619Y-25857142D01*
X56642857Y-25809523D01*
X56833333Y-25761904D01*
X57071428Y-25761904D01*
X57261904Y-25809523D01*
X57357142Y-25857142D01*
X57404761Y-25904761D01*
X57452380Y-26000000D01*
X57452380Y-26095238D01*
X57404761Y-26190476D01*
X57357142Y-26238095D01*
X57261904Y-26285714D01*
X57071428Y-26333333D01*
X56833333Y-26333333D01*
X56642857Y-26285714D01*
X56547619Y-26238095D01*
X56500000Y-26190476D01*
X56452380Y-26095238D01*
X48452380Y-39964285D02*
X48452380Y-40440476D01*
X48928571Y-40488095D01*
X48880952Y-40440476D01*
X48833333Y-40345238D01*
X48833333Y-40107142D01*
X48880952Y-40011904D01*
X48928571Y-39964285D01*
X49023809Y-39916666D01*
X49261904Y-39916666D01*
X49357142Y-39964285D01*
X49404761Y-40011904D01*
X49452380Y-40107142D01*
X49452380Y-40345238D01*
X49404761Y-40440476D01*
X49357142Y-40488095D01*
X49452380Y-38964285D02*
X49452380Y-39535714D01*
X49452380Y-39250000D02*
X48452380Y-39250000D01*
X48595238Y-39345238D01*
X48690476Y-39440476D01*
X48738095Y-39535714D01*
X48452380Y-38345238D02*
X48452380Y-38250000D01*
X48500000Y-38154761D01*
X48547619Y-38107142D01*
X48642857Y-38059523D01*
X48833333Y-38011904D01*
X49071428Y-38011904D01*
X49261904Y-38059523D01*
X49357142Y-38107142D01*
X49404761Y-38154761D01*
X49452380Y-38250000D01*
X49452380Y-38345238D01*
X49404761Y-38440476D01*
X49357142Y-38488095D01*
X49261904Y-38535714D01*
X49071428Y-38583333D01*
X48833333Y-38583333D01*
X48642857Y-38535714D01*
X48547619Y-38488095D01*
X48500000Y-38440476D01*
X48452380Y-38345238D01*
X77152380Y-24152380D02*
X76152380Y-24152380D01*
X77152380Y-23676190D02*
X76152380Y-23676190D01*
X77152380Y-23104761D01*
X76152380Y-23104761D01*
X77152380Y-22628571D02*
X76152380Y-22628571D01*
X76152380Y-22390476D01*
X76200000Y-22247619D01*
X76295238Y-22152380D01*
X76390476Y-22104761D01*
X76580952Y-22057142D01*
X76723809Y-22057142D01*
X76914285Y-22104761D01*
X77009523Y-22152380D01*
X77104761Y-22247619D01*
X77152380Y-22390476D01*
X77152380Y-22628571D01*
X76152380Y-21628571D02*
X76961904Y-21628571D01*
X77057142Y-21580952D01*
X77104761Y-21533333D01*
X77152380Y-21438095D01*
X77152380Y-21247619D01*
X77104761Y-21152380D01*
X77057142Y-21104761D01*
X76961904Y-21057142D01*
X76152380Y-21057142D01*
X77057142Y-20009523D02*
X77104761Y-20057142D01*
X77152380Y-20200000D01*
X77152380Y-20295238D01*
X77104761Y-20438095D01*
X77009523Y-20533333D01*
X76914285Y-20580952D01*
X76723809Y-20628571D01*
X76580952Y-20628571D01*
X76390476Y-20580952D01*
X76295238Y-20533333D01*
X76200000Y-20438095D01*
X76152380Y-20295238D01*
X76152380Y-20200000D01*
X76200000Y-20057142D01*
X76247619Y-20009523D01*
X76152380Y-19723809D02*
X76152380Y-19152380D01*
X77152380Y-19438095D02*
X76152380Y-19438095D01*
X76152380Y-18628571D02*
X76152380Y-18438095D01*
X76200000Y-18342857D01*
X76295238Y-18247619D01*
X76485714Y-18200000D01*
X76819047Y-18200000D01*
X77009523Y-18247619D01*
X77104761Y-18342857D01*
X77152380Y-18438095D01*
X77152380Y-18628571D01*
X77104761Y-18723809D01*
X77009523Y-18819047D01*
X76819047Y-18866666D01*
X76485714Y-18866666D01*
X76295238Y-18819047D01*
X76200000Y-18723809D01*
X76152380Y-18628571D01*
X77152380Y-17200000D02*
X76676190Y-17533333D01*
X77152380Y-17771428D02*
X76152380Y-17771428D01*
X76152380Y-17390476D01*
X76200000Y-17295238D01*
X76247619Y-17247619D01*
X76342857Y-17200000D01*
X76485714Y-17200000D01*
X76580952Y-17247619D01*
X76628571Y-17295238D01*
X76676190Y-17390476D01*
X76676190Y-17771428D01*
X35833333Y-19952380D02*
X35261904Y-19952380D01*
X35547619Y-19952380D02*
X35547619Y-18952380D01*
X35452380Y-19095238D01*
X35357142Y-19190476D01*
X35261904Y-19238095D01*
X36452380Y-18952380D02*
X36547619Y-18952380D01*
X36642857Y-19000000D01*
X36690476Y-19047619D01*
X36738095Y-19142857D01*
X36785714Y-19333333D01*
X36785714Y-19571428D01*
X36738095Y-19761904D01*
X36690476Y-19857142D01*
X36642857Y-19904761D01*
X36547619Y-19952380D01*
X36452380Y-19952380D01*
X36357142Y-19904761D01*
X36309523Y-19857142D01*
X36261904Y-19761904D01*
X36214285Y-19571428D01*
X36214285Y-19333333D01*
X36261904Y-19142857D01*
X36309523Y-19047619D01*
X36357142Y-19000000D01*
X36452380Y-18952380D01*
X37119047Y-19285714D02*
X37357142Y-19952380D01*
X37595238Y-19285714D01*
X39261904Y-19952380D02*
X38690476Y-19952380D01*
X38976190Y-19952380D02*
X38976190Y-18952380D01*
X38880952Y-19095238D01*
X38785714Y-19190476D01*
X38690476Y-19238095D01*
X40119047Y-19285714D02*
X40119047Y-19952380D01*
X39690476Y-19285714D02*
X39690476Y-19809523D01*
X39738095Y-19904761D01*
X39833333Y-19952380D01*
X39976190Y-19952380D01*
X40071428Y-19904761D01*
X40119047Y-19857142D01*
X40452380Y-19285714D02*
X40833333Y-19285714D01*
X40595238Y-19952380D02*
X40595238Y-19095238D01*
X40642857Y-19000000D01*
X40738095Y-18952380D01*
X40833333Y-18952380D01*
X40752380Y-15261904D02*
X40752380Y-15833333D01*
X40752380Y-15547619D02*
X39752380Y-15547619D01*
X39895238Y-15642857D01*
X39990476Y-15738095D01*
X40038095Y-15833333D01*
X39752380Y-14404761D02*
X39752380Y-14595238D01*
X39800000Y-14690476D01*
X39847619Y-14738095D01*
X39990476Y-14833333D01*
X40180952Y-14880952D01*
X40561904Y-14880952D01*
X40657142Y-14833333D01*
X40704761Y-14785714D01*
X40752380Y-14690476D01*
X40752380Y-14500000D01*
X40704761Y-14404761D01*
X40657142Y-14357142D01*
X40561904Y-14309523D01*
X40323809Y-14309523D01*
X40228571Y-14357142D01*
X40180952Y-14404761D01*
X40133333Y-14500000D01*
X40133333Y-14690476D01*
X40180952Y-14785714D01*
X40228571Y-14833333D01*
X40323809Y-14880952D01*
X40085714Y-13976190D02*
X40752380Y-13738095D01*
X40085714Y-13500000D01*
X39847619Y-12404761D02*
X39800000Y-12357142D01*
X39752380Y-12261904D01*
X39752380Y-12023809D01*
X39800000Y-11928571D01*
X39847619Y-11880952D01*
X39942857Y-11833333D01*
X40038095Y-11833333D01*
X40180952Y-11880952D01*
X40752380Y-12452380D01*
X40752380Y-11833333D01*
X39847619Y-11452380D02*
X39800000Y-11404761D01*
X39752380Y-11309523D01*
X39752380Y-11071428D01*
X39800000Y-10976190D01*
X39847619Y-10928571D01*
X39942857Y-10880952D01*
X40038095Y-10880952D01*
X40180952Y-10928571D01*
X40752380Y-11500000D01*
X40752380Y-10880952D01*
X39752380Y-10261904D02*
X39752380Y-10166666D01*
X39800000Y-10071428D01*
X39847619Y-10023809D01*
X39942857Y-9976190D01*
X40133333Y-9928571D01*
X40371428Y-9928571D01*
X40561904Y-9976190D01*
X40657142Y-10023809D01*
X40704761Y-10071428D01*
X40752380Y-10166666D01*
X40752380Y-10261904D01*
X40704761Y-10357142D01*
X40657142Y-10404761D01*
X40561904Y-10452380D01*
X40371428Y-10500000D01*
X40133333Y-10500000D01*
X39942857Y-10452380D01*
X39847619Y-10404761D01*
X39800000Y-10357142D01*
X39752380Y-10261904D01*
X40085714Y-9071428D02*
X40752380Y-9071428D01*
X40085714Y-9500000D02*
X40609523Y-9500000D01*
X40704761Y-9452380D01*
X40752380Y-9357142D01*
X40752380Y-9214285D01*
X40704761Y-9119047D01*
X40657142Y-9071428D01*
X40228571Y-8261904D02*
X40228571Y-8595238D01*
X40752380Y-8595238D02*
X39752380Y-8595238D01*
X39752380Y-8119047D01*
X93808333Y-42285714D02*
X93808333Y-42952380D01*
X93570238Y-41904761D02*
X93332142Y-42619047D01*
X93951190Y-42619047D01*
X94236904Y-41952380D02*
X94903571Y-41952380D01*
X94475000Y-42952380D01*
X95713095Y-42285714D02*
X95713095Y-42952380D01*
X95284523Y-42285714D02*
X95284523Y-42809523D01*
X95332142Y-42904761D01*
X95427380Y-42952380D01*
X95570238Y-42952380D01*
X95665476Y-42904761D01*
X95713095Y-42857142D01*
X96522619Y-42428571D02*
X96189285Y-42428571D01*
X96189285Y-42952380D02*
X96189285Y-41952380D01*
X96665476Y-41952380D01*
X69952380Y-5261904D02*
X69952380Y-5833333D01*
X69952380Y-5547619D02*
X68952380Y-5547619D01*
X69095238Y-5642857D01*
X69190476Y-5738095D01*
X69238095Y-5833333D01*
X68952380Y-4404761D02*
X68952380Y-4595238D01*
X69000000Y-4690476D01*
X69047619Y-4738095D01*
X69190476Y-4833333D01*
X69380952Y-4880952D01*
X69761904Y-4880952D01*
X69857142Y-4833333D01*
X69904761Y-4785714D01*
X69952380Y-4690476D01*
X69952380Y-4500000D01*
X69904761Y-4404761D01*
X69857142Y-4357142D01*
X69761904Y-4309523D01*
X69523809Y-4309523D01*
X69428571Y-4357142D01*
X69380952Y-4404761D01*
X69333333Y-4500000D01*
X69333333Y-4690476D01*
X69380952Y-4785714D01*
X69428571Y-4833333D01*
X69523809Y-4880952D01*
X69285714Y-3976190D02*
X69952380Y-3738095D01*
X69285714Y-3500000D01*
X69047619Y-2404761D02*
X69000000Y-2357142D01*
X68952380Y-2261904D01*
X68952380Y-2023809D01*
X69000000Y-1928571D01*
X69047619Y-1880952D01*
X69142857Y-1833333D01*
X69238095Y-1833333D01*
X69380952Y-1880952D01*
X69952380Y-2452380D01*
X69952380Y-1833333D01*
X69047619Y-1452380D02*
X69000000Y-1404761D01*
X68952380Y-1309523D01*
X68952380Y-1071428D01*
X69000000Y-976190D01*
X69047619Y-928571D01*
X69142857Y-880952D01*
X69238095Y-880952D01*
X69380952Y-928571D01*
X69952380Y-1500000D01*
X69952380Y-880952D01*
X68952380Y-261904D02*
X68952380Y-166666D01*
X69000000Y-71428D01*
X69047619Y-23809D01*
X69142857Y23809D01*
X69333333Y71428D01*
X69571428Y71428D01*
X69761904Y23809D01*
X69857142Y-23809D01*
X69904761Y-71428D01*
X69952380Y-166666D01*
X69952380Y-261904D01*
X69904761Y-357142D01*
X69857142Y-404761D01*
X69761904Y-452380D01*
X69571428Y-500000D01*
X69333333Y-500000D01*
X69142857Y-452380D01*
X69047619Y-404761D01*
X69000000Y-357142D01*
X68952380Y-261904D01*
X69285714Y928571D02*
X69952380Y928571D01*
X69285714Y500000D02*
X69809523Y500000D01*
X69904761Y547619D01*
X69952380Y642857D01*
X69952380Y785714D01*
X69904761Y880952D01*
X69857142Y928571D01*
X69428571Y1738095D02*
X69428571Y1404761D01*
X69952380Y1404761D02*
X68952380Y1404761D01*
X68952380Y1880952D01*
X79952380Y-4833333D02*
X79952380Y-5309523D01*
X80428571Y-5357142D01*
X80380952Y-5309523D01*
X80333333Y-5214285D01*
X80333333Y-4976190D01*
X80380952Y-4880952D01*
X80428571Y-4833333D01*
X80523809Y-4785714D01*
X80761904Y-4785714D01*
X80857142Y-4833333D01*
X80904761Y-4880952D01*
X80952380Y-4976190D01*
X80952380Y-5214285D01*
X80904761Y-5309523D01*
X80857142Y-5357142D01*
X79952380Y-4166666D02*
X79952380Y-4071428D01*
X80000000Y-3976190D01*
X80047619Y-3928571D01*
X80142857Y-3880952D01*
X80333333Y-3833333D01*
X80571428Y-3833333D01*
X80761904Y-3880952D01*
X80857142Y-3928571D01*
X80904761Y-3976190D01*
X80952380Y-4071428D01*
X80952380Y-4166666D01*
X80904761Y-4261904D01*
X80857142Y-4309523D01*
X80761904Y-4357142D01*
X80571428Y-4404761D01*
X80333333Y-4404761D01*
X80142857Y-4357142D01*
X80047619Y-4309523D01*
X80000000Y-4261904D01*
X79952380Y-4166666D01*
X80285714Y-3500000D02*
X80952380Y-3261904D01*
X80285714Y-3023809D01*
X80047619Y-1928571D02*
X80000000Y-1880952D01*
X79952380Y-1785714D01*
X79952380Y-1547619D01*
X80000000Y-1452380D01*
X80047619Y-1404761D01*
X80142857Y-1357142D01*
X80238095Y-1357142D01*
X80380952Y-1404761D01*
X80952380Y-1976190D01*
X80952380Y-1357142D01*
X80047619Y-976190D02*
X80000000Y-928571D01*
X79952380Y-833333D01*
X79952380Y-595238D01*
X80000000Y-500000D01*
X80047619Y-452380D01*
X80142857Y-404761D01*
X80238095Y-404761D01*
X80380952Y-452380D01*
X80952380Y-1023809D01*
X80952380Y-404761D01*
X80285714Y452380D02*
X80952380Y452380D01*
X80285714Y23809D02*
X80809523Y23809D01*
X80904761Y71428D01*
X80952380Y166666D01*
X80952380Y309523D01*
X80904761Y404761D01*
X80857142Y452380D01*
X80428571Y1261904D02*
X80428571Y928571D01*
X80952380Y928571D02*
X79952380Y928571D01*
X79952380Y1404761D01*
M02*
